<?xml version="1.0" standalone="no"?><!DOCTYPE svg PUBLIC "-//W3C//DTD SVG 1.1//EN" "http://www.w3.org/Graphics/SVG/1.1/DTD/svg11.dtd"><svg t="1712433783997" class="icon" viewBox="0 0 1024 1024" version="1.1" xmlns="http://www.w3.org/2000/svg" p-id="19152" xmlns:xlink="http://www.w3.org/1999/xlink" width="256" height="256"><path d="M831.9 960h-64V832H639.8v-64h128.1V640.1h64V768H960v64H831.9z" fill="#669E8B" p-id="19153"></path><path d="M896.3 153.8v459.5h-64V153.8c0-17.1-5.5-25.8-16.2-25.8H163.5c-16.2 0-35.5 14-35.5 25.8v715.5c0 10.4 20.3 25.8 38.5 25.8H599v64H166.5c-48.4 0-102.5-38.4-102.5-89.8V153.8c0-24.4 12.2-48.3 33.6-65.7C116.4 72.8 140.5 64 163.5 64h652.6c47.2 0 80.2 36.9 80.2 89.8z" fill="#727272" p-id="19154"></path><path d="M816.1 128H163.5c-16.2 0-35.5 14-35.5 25.8v230h704.2v-230c0.1-17.1-5.4-25.8-16.1-25.8zM608.3 256.2H191v-64h417.3v64z m159.6 0h-64v-64h64v64z" fill="#E6C37C" p-id="19155"></path><path d="M128 319.6h704.4v64H128z" fill="#B2B2B2" p-id="19156"></path></svg>