<?xml version="1.0" standalone="no"?><!DOCTYPE svg PUBLIC "-//W3C//DTD SVG 1.1//EN" "http://www.w3.org/Graphics/SVG/1.1/DTD/svg11.dtd"><svg t="1710774716680" class="icon" viewBox="0 0 1024 1024" version="1.1" xmlns="http://www.w3.org/2000/svg" p-id="5782" xmlns:xlink="http://www.w3.org/1999/xlink" width="256" height="256"><path d="M916.115386 467.228307 557.971519 467.228307 557.971519 109.085464c0-24.714891-20.056801-44.771693-44.770669-44.771693-24.715915 0-44.772716 20.056801-44.772716 44.771693l0 358.142843L110.285291 467.228307c-24.715915 0-44.771693 20.056801-44.771693 44.771693s20.056801 44.772716 44.771693 44.772716l358.142843 0 0 358.143866c0 24.761963 20.056801 44.770669 44.772716 44.770669 24.713868 0 44.770669-20.008706 44.770669-44.770669L557.971519 556.772716l358.143866 0c24.762987 0 44.771693-20.057825 44.771693-44.772716S940.878372 467.228307 916.115386 467.228307L916.115386 467.228307zM916.115386 467.228307" fill="#515151" p-id="5783"></path></svg>