<?xml version="1.0" standalone="no"?><!DOCTYPE svg PUBLIC "-//W3C//DTD SVG 1.1//EN" "http://www.w3.org/Graphics/SVG/1.1/DTD/svg11.dtd"><svg t="1711983547363" class="icon" viewBox="0 0 1024 1024" version="1.1" xmlns="http://www.w3.org/2000/svg" p-id="6585" xmlns:xlink="http://www.w3.org/1999/xlink" width="256" height="256"><path d="M27.275636 156.547879h658.432v460.660363H27.275636z" fill="#FAA919" p-id="6586"></path><path d="M685.707636 617.208242H27.275636l68.840728-370.967272h658.447515z" fill="#E4E4E4" p-id="6587"></path><path d="M131.987394 93.618424h-104.727273v62.929455h132.266667z" fill="#FAA919" p-id="6588"></path><path d="M636.322909 555.737212h352.892121V988.16H636.322909z" fill="#FFFFFF" p-id="6589"></path><path d="M666.748121 586.162424h292.057212v371.587879H666.748121z" fill="#E4E4E4" p-id="6590"></path><path d="M166.167273 875.628606H120.397576a41.068606 41.068606 0 0 0 0 82.121697h45.800727v-82.121697z" fill="#F89C1C" p-id="6591"></path><path d="M165.91903 957.750303H514.01697l76.055272-41.068606-76.055272-41.053091H165.91903z" fill="#E4E4E4" p-id="6592"></path><path d="M839.524848 440.785455m-53.915151 0a53.915152 53.915152 0 1 0 107.830303 0 53.915152 53.915152 0 1 0-107.830303 0Z" fill="#459FD8" p-id="6593"></path><path d="M878.607515 184.707879m-53.915151 0a53.915152 53.915152 0 1 0 107.830303 0 53.915152 53.915152 0 1 0-107.830303 0Z" fill="#459FD8" p-id="6594"></path><path d="M668.097939 82.214788m-53.915151 0a53.915152 53.915152 0 1 0 107.830303 0 53.915152 53.915152 0 1 0-107.830303 0Z" fill="#459FD8" p-id="6595"></path><path d="M568.956121 543.728485v65.427394l-43.442424 6.562909a196.111515 196.111515 0 0 1-29.370182 70.842182l25.429333 34.443636-46.235151 46.235152-34.614303-25.584485a191.767273 191.767273 0 0 1-71.835152 29.028848l-6.221575 42.139152h-65.427394l-6.392243-43.132121a194.032485 194.032485 0 0 1-70.035394-30.332122l-35.421091 26.065455-46.235151-46.235152 27.058424-36.569212a192.015515 192.015515 0 0 1-27.229091-69.042424l-45.583515-6.873212v-65.442909l47.057455-7.214546a192.744727 192.744727 0 0 1 28.70303-66.404848l-28.377212-38.36897 46.250667-46.250667 39.191272 28.858182a197.290667 197.290667 0 0 1 66.404849-27.213575l7.059394-47.228122h65.427394l7.059394 47.228122c24.436364 5.073455 47.228121 14.584242 67.397818 27.71006l37.391515-27.554909 46.235151 46.235152-27.213575 37.081212a195.723636 195.723636 0 0 1 29.013333 69.042424l43.954424 6.547394z" fill="#FFFFFF" p-id="6596"></path><path d="M331.186424 575.131152m-149.550545 0a149.550545 149.550545 0 1 0 299.101091 0 149.550545 149.550545 0 1 0-299.101091 0Z" fill="#459FD8" p-id="6597"></path><path d="M423.796364 519.043879v115.23103M391.152485 545.466182v88.808727M358.508606 596.48v37.794909M325.849212 556.032v78.242909M293.205333 578.187636v56.087273M260.545939 600.327758v33.947151M227.902061 618.682182v15.592727" fill="#FFFFFF" p-id="6598"></path><path d="M989.21503 548.227879H636.322909a7.509333 7.509333 0 0 0-7.509333 7.509333v432.438303c0 4.142545 3.366788 7.509333 7.509333 7.509333h352.892121a7.509333 7.509333 0 0 0 7.509334-7.509333V555.737212a7.509333 7.509333 0 0 0-7.509334-7.509333z m-7.524848 432.422788H643.847758V563.262061h337.842424v417.388606z" fill="#2F1854" p-id="6599"></path><path d="M768.232727 649.309091h154.127515a7.509333 7.509333 0 1 0 0-15.034182h-154.127515a7.509333 7.509333 0 1 0 0 15.034182zM703.193212 699.531636h219.16703a7.509333 7.509333 0 1 0 0-15.034181H703.193212a7.509333 7.509333 0 1 0 0 15.034181zM703.193212 752.065939h219.16703a7.509333 7.509333 0 1 0 0-15.049697H703.193212a7.509333 7.509333 0 1 0 0 15.049697zM703.193212 804.584727h219.16703a7.509333 7.509333 0 1 0 0-15.034182H703.193212a7.509333 7.509333 0 1 0 0 15.034182zM703.193212 857.11903h219.16703a7.509333 7.509333 0 1 0 0-15.049697H703.193212a7.509333 7.509333 0 1 0 0 15.049697zM703.193212 909.653333h113.524364a7.509333 7.509333 0 1 0 0-15.049697h-113.524364a7.509333 7.509333 0 1 0 0 15.049697zM593.609697 910.072242c-77.218909-41.301333-75.869091-41.890909-79.515152-41.937454l-0.09309-0.03103H120.382061a48.64 48.64 0 0 0-48.593455 48.577939 48.64 48.64 0 0 0 48.593455 48.593455h393.619394l0.09309-0.031031c3.506424-0.046545 0.961939 0.077576 79.530667-41.937454a7.509333 7.509333 0 0 0 0-13.234425z m-506.786909 6.609455c0-18.494061 15.049697-33.543758 33.559273-33.543758h38.027636v67.103031H120.382061a33.590303 33.590303 0 0 1-33.559273-33.559273z m86.869333-33.543758h332.76897v67.103031H173.692121V883.122424z m347.803152 62.029576v-56.956121l52.751515 28.470303-52.751515 28.485818zM812.761212 448.294788h19.238788v19.238788a7.509333 7.509333 0 1 0 15.049697 0v-19.238788h19.238788a7.509333 7.509333 0 1 0 0-15.018667h-19.238788v-19.238788a7.509333 7.509333 0 1 0-15.049697 0v19.238788h-19.238788a7.509333 7.509333 0 1 0 0 15.018667zM851.859394 192.232727h19.238788v19.238788a7.509333 7.509333 0 1 0 15.034182 0v-19.238788h19.238788a7.509333 7.509333 0 1 0 0-15.034182h-19.238788v-19.238787a7.509333 7.509333 0 1 0-15.034182 0v19.238787h-19.238788a7.509333 7.509333 0 1 0 0 15.049697zM658.028606 103.951515a7.509333 7.509333 0 0 0 10.395152-0.589576l34.195394-36.832969a7.524848 7.524848 0 0 0-11.015758-10.224485L662.341818 87.846788l-18.338909-15.763394a7.509333 7.509333 0 1 0-9.790061 11.419151L658.028606 103.951515zM92.284121 614.120727l40.354909 6.11297a198.361212 198.361212 0 0 0 24.482909 62.045091L133.12 714.72097a7.493818 7.493818 0 0 0 0.713697 9.774545l46.250667 46.250667c2.637576 2.637576 6.780121 2.932364 9.774545 0.744727l31.154424-22.946909a199.959273 199.959273 0 0 0 63.146667 27.353212l5.647515 38.027636a7.509333 7.509333 0 0 0 7.431758 6.423273h65.427394c3.723636 0 6.888727-2.730667 7.431757-6.423273l5.461334-36.89503c23.04-4.840727 44.823273-13.653333 64.868848-26.220606l30.425212 22.481455c2.994424 2.203152 7.152485 1.908364 9.774546-0.744728l46.250666-46.235151c2.637576-2.637576 2.947879-6.780121 0.729212-9.774546l-22.326303-30.254545a202.534788 202.534788 0 0 0 26.499879-63.922424l38.306909-5.771637a7.509333 7.509333 0 0 0 6.392243-7.431757v-65.427394a7.509333 7.509333 0 0 0-6.407758-7.447273l-38.849939-5.787151a201.852121 201.852121 0 0 0-26.096485-62.122667l24.141576-32.861091a7.509333 7.509333 0 0 0-0.760243-9.75903l-46.235151-46.235152a7.509333 7.509333 0 0 0-9.774546-0.744727l-33.248969 24.513939a203.931152 203.931152 0 0 0-60.416-24.855272l-6.268122-42.108122a7.509333 7.509333 0 0 0-7.447272-6.407757h-65.427394a7.509333 7.509333 0 0 0-7.431758 6.407757l-6.283636 42.123637a204.303515 204.303515 0 0 0-59.423031 24.358788l-35.064242-25.832728a7.493818 7.493818 0 0 0-9.774545 0.744728l-46.235152 46.235151a7.509333 7.509333 0 0 0-0.729212 9.774546l25.243151 34.164363a199.835152 199.835152 0 0 0-25.677575 59.500606l-42.046061 6.438788a7.524848 7.524848 0 0 0-6.376727 7.447273v65.411879c0 3.723636 2.715152 6.873212 6.392242 7.447272z m8.626424-66.404848l40.680728-6.237091a7.524848 7.524848 0 0 0 6.20606-5.787152c5.12-22.900364 14.398061-44.373333 27.58594-63.844848a7.524848 7.524848 0 0 0-0.186182-8.688485l-24.513939-33.155879 37.096727-37.096727 33.993697 25.025939a7.555879 7.555879 0 0 0 8.533333 0.263758 189.253818 189.253818 0 0 1 63.891394-26.189576 7.509333 7.509333 0 0 0 5.880242-6.237091l6.097455-40.820363h52.472242l6.097455 40.804848c0.465455 3.118545 2.808242 5.616485 5.895758 6.252606 23.272727 4.856242 45.071515 13.808485 64.837818 26.686061 2.622061 1.691152 6.035394 1.582545 8.564363-0.263758l32.178425-23.722666 37.096727 37.112242-23.396849 31.868121a7.509333 7.509333 0 0 0-0.170666 8.626424 187.283394 187.283394 0 0 1 27.911757 66.404849c0.636121 3.056485 3.134061 5.430303 6.252606 5.880242l37.531152 5.60097v52.487758l-37.081212 5.600969a7.524848 7.524848 0 0 0-6.237091 5.973334 187.810909 187.810909 0 0 1-28.237576 68.12703 7.509333 7.509333 0 0 0 0.217212 8.626424l21.566061 29.246061-37.081212 37.081212-29.401212-21.721212a7.540364 7.540364 0 0 0-8.626425-0.217212 183.497697 183.497697 0 0 1-69.026909 27.896242 7.509333 7.509333 0 0 0-6.081939 6.283636l-5.275152 35.731394h-52.456727l-5.445818-36.708848a7.493818 7.493818 0 0 0-5.880243-6.252606 185.561212 185.561212 0 0 1-67.304727-29.168485 7.493818 7.493818 0 0 0-8.73503 0.124121l-30.208 22.248727-37.112243-37.081212 23.210667-31.371636a7.493818 7.493818 0 0 0 0.279273-8.533333 183.451152 183.451152 0 0 1-26.14303-66.342788 7.524848 7.524848 0 0 0-6.268122-6.066424l-39.206788-5.926788v-52.518788z" fill="#2F1854" p-id="6600"></path><path d="M423.796364 641.784242a7.509333 7.509333 0 0 0 7.524848-7.509333v-115.23103a7.509333 7.509333 0 1 0-15.034182 0v115.23103c0 4.142545 3.366788 7.509333 7.509334 7.509333zM391.152485 641.784242a7.509333 7.509333 0 0 0 7.509333-7.509333v-88.808727a7.509333 7.509333 0 1 0-15.018666 0v88.808727c0 4.142545 3.351273 7.509333 7.509333 7.509333zM358.493091 641.784242a7.509333 7.509333 0 0 0 7.524848-7.509333v-37.794909a7.509333 7.509333 0 1 0-15.034181 0v37.794909c0 4.142545 3.366788 7.509333 7.509333 7.509333zM325.849212 641.784242a7.509333 7.509333 0 0 0 7.509333-7.509333v-78.242909a7.509333 7.509333 0 1 0-15.018666 0v78.242909c0 4.142545 3.351273 7.509333 7.509333 7.509333zM293.205333 641.784242a7.509333 7.509333 0 0 0 7.509334-7.509333v-56.087273a7.509333 7.509333 0 1 0-15.018667 0v56.087273c0 4.142545 3.351273 7.509333 7.509333 7.509333zM260.545939 641.784242a7.509333 7.509333 0 0 0 7.524849-7.509333v-33.947151a7.509333 7.509333 0 1 0-15.034182 0v33.947151c0 4.142545 3.366788 7.509333 7.509333 7.509333zM227.902061 641.784242a7.509333 7.509333 0 0 0 7.509333-7.509333v-15.592727a7.509333 7.509333 0 1 0-15.018667 0v15.592727c0 4.142545 3.351273 7.509333 7.509334 7.509333z" fill="#2F1854" p-id="6601"></path></svg>