<?xml version="1.0" standalone="no"?><!DOCTYPE svg PUBLIC "-//W3C//DTD SVG 1.1//EN" "http://www.w3.org/Graphics/SVG/1.1/DTD/svg11.dtd"><svg height="1024" node-id="1" sillyvg="true" template-height="1024" template-width="1024" version="1.1" viewBox="0 0 1024 1024" width="1024" xmlns="http://www.w3.org/2000/svg" xmlns:xlink="http://www.w3.org/1999/xlink"><defs node-id="44"><linearGradient gradientUnits="userSpaceOnUse" id="SVGID_1_" node-id="4" spreadMethod="pad" x1="300.8494" x2="723.1506" y1="97.5937" y2="926.4063"><stop offset="0" stop-color="#dfebf8"></stop><stop offset="0.2928" stop-color="#cfe2f7"></stop><stop offset="0.6466" stop-color="#c3dbf5"></stop><stop offset="1" stop-color="#bfd9f5"></stop></linearGradient><clipPath id="SVGID_3_" node-id="13"><path d="M 977.00 512.00 C 977.00 635.33 928.01 753.60 840.80 840.80 C 753.60 928.01 635.33 977.00 512.00 977.00 C 388.67 977.00 270.40 928.01 183.20 840.80 C 95.99 753.60 47.00 635.33 47.00 512.00 C 47.00 388.67 95.99 270.40 183.20 183.20 C 270.40 95.99 388.67 47.00 512.00 47.00 C 635.33 47.00 753.60 95.99 840.80 183.20 C 928.01 270.40 977.00 388.67 977.00 512.00 Z" fill="#000000" fill-rule="nonzero" node-id="57" stroke="none" target-height="930" target-width="930" target-x="47" target-y="47"></path></clipPath><clipPath id="SVGID_5_" node-id="21"><path d="M 806.74 1175.39 L 186.61 1175.39 C 167.52 1175.39 152.04 1159.91 152.04 1140.82 L 152.04 292.54 C 152.04 273.45 167.52 257.97 186.61 257.97 L 806.74 257.97 C 825.83 257.97 841.31 273.45 841.31 292.54 L 841.31 1140.81 C 841.31 1159.91 825.83 1175.39 806.74 1175.39 Z" fill="#000000" fill-rule="nonzero" node-id="61" stroke="none" target-height="917.42004" target-width="689.27" target-x="152.04" target-y="257.97"></path></clipPath><clipPath id="SVGID_7_" node-id="37"><path d="M 844.03 379.77 C 844.03 473.41 768.12 549.32 674.48 549.32 C 580.84 549.32 504.93 473.41 504.93 379.77 C 504.93 286.13 580.84 210.22 674.48 210.22 C 768.12 210.22 844.03 286.13 844.03 379.77 Z" fill="#000000" fill-rule="nonzero" node-id="65" stroke="none" target-height="339.1" target-width="339.10004" target-x="504.93" target-y="210.22"></path></clipPath></defs><path d="M 977.00 512.00 C 977.00 635.33 928.01 753.60 840.80 840.80 C 753.60 928.01 635.33 977.00 512.00 977.00 C 388.67 977.00 270.40 928.01 183.20 840.80 C 95.99 753.60 47.00 635.33 47.00 512.00 C 47.00 388.67 95.99 270.40 183.20 183.20 C 270.40 95.99 388.67 47.00 512.00 47.00 C 635.33 47.00 753.60 95.99 840.80 183.20 C 928.01 270.40 977.00 388.67 977.00 512.00 Z" fill="url(#SVGID_1_)" fill-rule="nonzero" node-id="69" stroke="none" target-height="930" target-width="930" target-x="47" target-y="47"></path><g node-id="124"><g clip-path="url(#SVGID_3_)" group-id="1" id="sillyvg_g_1" node-id="73"><path d="M 856.74 1125.39 L 236.61 1125.39 C 217.52 1125.39 202.04 1109.91 202.04 1090.82 L 202.04 242.54 C 202.04 223.45 217.52 207.97 236.61 207.97 L 856.74 207.97 C 875.83 207.97 891.31 223.45 891.31 242.54 L 891.31 1090.81 C 891.31 1109.91 875.83 1125.39 856.74 1125.39 Z" fill="#edf4fc" fill-rule="nonzero" group-id="1,3" node-id="75" stroke="none" target-height="917.42004" target-width="689.27" target-x="202.04" target-y="207.97"></path><path d="M 806.74 1175.39 L 186.61 1175.39 C 167.52 1175.39 152.04 1159.91 152.04 1140.82 L 152.04 292.54 C 152.04 273.45 167.52 257.97 186.61 257.97 L 806.74 257.97 C 825.83 257.97 841.31 273.45 841.31 292.54 L 841.31 1140.81 C 841.31 1159.91 825.83 1175.39 806.74 1175.39 Z" fill="#f3f9ff" fill-rule="nonzero" group-id="1,3,5,6" node-id="81" stroke="none" target-height="917.42004" target-width="689.27" target-x="152.04" target-y="257.97"></path><g clip-path="url(#SVGID_5_)" group-id="1,3,5,7" node-id="84"><path d="M 900.43 958.68 L 849.33 84.04 L 57.52 991.13" fill="#eaf3fb" fill-rule="nonzero" group-id="1,3,5,7" node-id="86" stroke="none" target-height="907.09" target-width="842.91" target-x="57.52" target-y="84.04"></path></g><path d="M 738.82 422.98 L 497.22 422.98 C 484.04 422.98 473.26 412.20 473.26 399.02 L 473.26 383.98 C 473.26 370.80 484.04 360.02 497.22 360.02 L 738.82 360.02 C 752.00 360.02 762.78 370.80 762.78 383.98 L 762.78 399.02 C 762.79 412.19 752.00 422.98 738.82 422.98 Z" fill="#abc6e3" fill-rule="nonzero" group-id="1,3" node-id="90" stroke="none" target-height="62.960022" target-width="289.52997" target-x="473.26" target-y="360.02"></path><path d="M 738.82 566.98 L 497.22 566.98 C 484.04 566.98 473.26 556.20 473.26 543.02 L 473.26 527.98 C 473.26 514.80 484.04 504.02 497.22 504.02 L 738.82 504.02 C 752.00 504.02 762.78 514.80 762.78 527.98 L 762.78 543.02 C 762.79 556.19 752.00 566.98 738.82 566.98 Z" fill="#abc6e3" fill-rule="nonzero" group-id="1,3" node-id="92" stroke="none" target-height="62.95999" target-width="289.52997" target-x="473.26" target-y="504.02"></path><path d="M 582.22 710.98 L 283.54 710.98 C 270.36 710.98 259.58 700.20 259.58 687.02 L 259.58 671.98 C 259.58 658.80 270.36 648.02 283.54 648.02 L 582.22 648.02 C 595.40 648.02 606.18 658.80 606.18 671.98 L 606.18 687.02 C 606.19 700.19 595.40 710.98 582.22 710.98 Z" fill="#abc6e3" fill-rule="nonzero" group-id="1,3" node-id="94" stroke="none" target-height="62.95996" target-width="346.61002" target-x="259.58" target-y="648.02"></path><path d="M 662.97 854.98 L 283.54 854.98 C 270.36 854.98 259.58 844.20 259.58 831.02 L 259.58 815.98 C 259.58 802.80 270.36 792.02 283.54 792.02 L 662.97 792.02 C 676.15 792.02 686.93 802.80 686.93 815.98 L 686.93 831.02 C 686.94 844.19 676.15 854.98 662.97 854.98 Z" fill="#abc6e3" fill-rule="nonzero" group-id="1,3" node-id="96" stroke="none" target-height="62.95996" target-width="427.36002" target-x="259.58" target-y="792.02"></path><path d="M 196.10 471.16 L 297.90 583.87 L 396.67 471.16 L 332.44 471.16 L 331.83 408.75 C 331.83 408.75 331.83 371.79 356.07 351.18 C 380.31 330.57 393.64 321.49 393.64 321.49 C 393.64 321.49 331.83 328.16 300.32 366.33 C 268.81 404.50 266.39 427.53 266.39 427.53 L 259.72 471.20 L 196.10 471.16 Z" fill="#abc6e3" fill-rule="nonzero" group-id="1,3" node-id="98" stroke="none" target-height="262.38" target-width="200.57" target-x="196.1" target-y="321.49"></path></g></g><path d="M 683.48 166.61 C 558.57 166.61 457.32 267.87 457.32 392.77 C 457.32 517.67 558.58 618.93 683.48 618.93 C 808.38 618.93 909.64 517.67 909.64 392.77 C 909.64 267.87 808.39 166.61 683.48 166.61 Z M 683.48 562.32 C 589.84 562.32 513.93 486.41 513.93 392.77 C 513.93 299.13 589.84 223.22 683.48 223.22 C 777.12 223.22 853.03 299.13 853.03 392.77 C 853.03 486.41 777.12 562.32 683.48 562.32 Z" fill="#5d7ac1" fill-opacity="0.25" fill-rule="nonzero" node-id="102" stroke="none" target-height="452.32" target-width="452.32" target-x="457.32" target-y="166.61"></path><path d="M 900.64 379.77 C 900.64 504.67 799.38 605.93 674.48 605.93 C 549.58 605.93 448.32 504.67 448.32 379.77 C 448.32 254.87 549.58 153.61 674.48 153.61 C 799.38 153.61 900.64 254.87 900.64 379.77 Z" fill="#ffffff" fill-rule="nonzero" node-id="104" stroke="none" target-height="452.32" target-width="452.32" target-x="448.32" target-y="153.61"></path><path d="M 890.81 591.80 L 824.04 537.49 C 815.11 530.23 813.76 517.10 821.02 508.17 L 829.89 497.26 C 837.15 488.33 850.28 486.98 859.21 494.24 L 925.98 548.55 C 934.91 555.81 936.26 568.94 929.00 577.87 L 920.13 588.78 C 912.86 597.71 899.73 599.07 890.81 591.80 Z" fill="#ffffff" fill-rule="nonzero" node-id="106" stroke="none" target-height="112.09" target-width="122.5" target-x="813.76" target-y="486.98"></path><path d="M 944.84 658.95 L 878.85 605.28 C 861.44 591.12 858.80 565.52 872.96 548.10 L 879.55 539.99 C 893.71 522.58 919.31 519.94 936.73 534.10 L 1002.72 587.77 C 1020.13 601.93 1022.77 627.53 1008.61 644.95 L 1002.02 653.06 C 987.85 670.48 962.25 673.12 944.84 658.95 Z" fill="#3a8be8" fill-rule="nonzero" node-id="108" stroke="none" target-height="153.18" target-width="163.97003" target-x="858.8" target-y="519.94"></path><path d="M 844.03 379.77 C 844.03 473.41 768.12 549.32 674.48 549.32 C 580.84 549.32 504.93 473.41 504.93 379.77 C 504.93 286.13 580.84 210.22 674.48 210.22 C 768.12 210.22 844.03 286.13 844.03 379.77 Z" fill="#eaf3fb" fill-rule="nonzero" node-id="110" stroke="none" target-height="339.1" target-width="339.10004" target-x="504.93" target-y="210.22"></path><g clip-path="url(#SVGID_7_)" group-id="2" id="sillyvg_g_3" node-id="114"><path d="M 758.97 366.81 L 427.54 366.81 C 414.36 366.81 403.58 356.03 403.58 342.85 L 403.58 308.27 C 403.58 295.09 414.36 284.31 427.54 284.31 L 758.97 284.31 C 772.15 284.31 782.93 295.09 782.93 308.27 L 782.93 342.85 C 782.94 356.02 772.15 366.81 758.97 366.81 Z" fill="#abc6e3" fill-rule="nonzero" group-id="2,4" node-id="116" stroke="none" target-height="82.5" target-width="379.36002" target-x="403.58" target-y="284.31"></path><path d="M 674.59 506.48 L 427.54 506.48 C 414.36 506.48 403.58 495.70 403.58 482.52 L 403.58 447.94 C 403.58 434.76 414.36 423.98 427.54 423.98 L 674.58 423.98 C 687.76 423.98 698.54 434.76 698.54 447.94 L 698.54 482.52 C 698.55 495.70 687.76 506.48 674.59 506.48 Z" fill="#abc6e3" fill-rule="nonzero" group-id="2,4" node-id="118" stroke="none" target-height="82.5" target-width="294.97" target-x="403.58" target-y="423.98"></path></g><path d="M 523.32 414.61 C 523.32 320.97 599.23 245.06 692.87 245.06 C 750.91 245.06 802.12 274.23 832.69 318.69 C 808.17 255.23 746.59 210.22 674.49 210.22 C 580.85 210.22 504.94 286.13 504.94 379.77 C 504.94 415.37 515.92 448.41 534.67 475.69 C 527.35 456.74 523.32 436.15 523.32 414.61 Z" fill="#3a8be8" fill-opacity="0.23" fill-rule="nonzero" node-id="122" stroke="none" target-height="265.47" target-width="327.75" target-x="504.94" target-y="210.22"></path></svg>