<?xml version="1.0" standalone="no"?><!DOCTYPE svg PUBLIC "-//W3C//DTD SVG 1.1//EN" "http://www.w3.org/Graphics/SVG/1.1/DTD/svg11.dtd"><svg t="1714590376081" class="icon" viewBox="0 0 1024 1024" version="1.1" xmlns="http://www.w3.org/2000/svg" p-id="9588" xmlns:xlink="http://www.w3.org/1999/xlink" width="512" height="512"><path d="M874.688 618.688A21.312 21.312 0 0 1 896 640v297.152a42.624 42.624 0 0 1-59.904 39.04l-89.408-39.552-89.408 39.552a42.688 42.688 0 0 1-59.968-39.04V640a21.312 21.312 0 0 1 21.376-21.312h256zM832 85.312a42.688 42.688 0 0 1 42.56 39.488l0.128 3.2v405.312h-85.376V170.688H192v704h320V960H149.312a42.688 42.688 0 0 1-42.56-39.488l-0.064-3.2V128a42.688 42.688 0 0 1 39.424-42.56l3.2-0.128H832zM810.688 704h-128v167.68l64-28.352 64 28.288V704z m-256-213.312A21.312 21.312 0 0 1 576 512v32a21.312 21.312 0 0 1-21.312 21.312H277.312A21.312 21.312 0 0 1 256 544V512a21.312 21.312 0 0 1 21.312-21.312h277.376z m149.312-192a21.312 21.312 0 0 1 21.312 21.312v32a21.312 21.312 0 0 1-21.312 21.312H277.312A21.312 21.312 0 0 1 256 352V320a21.312 21.312 0 0 1 21.312-21.312H704z" p-id="9589" fill="#7cba59"></path></svg>