<?xml version="1.0" standalone="no"?><!DOCTYPE svg PUBLIC "-//W3C//DTD SVG 1.1//EN" "http://www.w3.org/Graphics/SVG/1.1/DTD/svg11.dtd"><svg t="1712044475847" class="icon" viewBox="0 0 1551 1024" version="1.1" xmlns="http://www.w3.org/2000/svg" p-id="18717" xmlns:xlink="http://www.w3.org/1999/xlink" width="387.75" height="256"><path d="M828.722778 301.353737H75.338434a75.338434 75.338434 0 0 0 0 150.676869h753.384344a75.338434 75.338434 0 0 0 0-150.676869z m0-301.353737H75.338434a75.338434 75.338434 0 0 0 0 150.676869h753.384344a75.338434 75.338434 0 0 0 0-150.676869zM75.338434 753.384344h452.030607a75.338434 75.338434 0 0 0 0-150.676869H75.338434a75.338434 75.338434 0 0 0 0 150.676869z m1447.251325-285.532667l6.780459 6.78046a75.338434 75.338434 0 0 1 0 106.227192l-420.388464 421.141848a75.338434 75.338434 0 0 1-106.227192 0l-232.795763-232.795762a75.338434 75.338434 0 0 1 0-106.227193l6.780459-6.780459a75.338434 75.338434 0 0 1 106.227193 0l173.278399 173.278399 360.117716-360.8711a74.359035 74.359035 0 0 1 106.227193-0.753385z" p-id="18718" fill="#dd6572"></path></svg>