<?xml version="1.0" standalone="no"?><!DOCTYPE svg PUBLIC "-//W3C//DTD SVG 1.1//EN" "http://www.w3.org/Graphics/SVG/1.1/DTD/svg11.dtd"><svg t="1714370112640" class="icon" viewBox="0 0 1024 1024" version="1.1" xmlns="http://www.w3.org/2000/svg" p-id="2026" xmlns:xlink="http://www.w3.org/1999/xlink" width="256" height="256"><path d="M384 512a128 128 0 0 0 128-128V170.666667a42.666667 42.666667 0 1 0-85.333333 0v213.333333a42.666667 42.666667 0 0 1-42.666667 42.666667H170.666667a42.666667 42.666667 0 1 0 0 85.333333h213.333333z m277.333333 42.666667a128 128 0 0 0-128 128v170.666666a42.666667 42.666667 0 1 0 85.333334 0v-170.666666a42.666667 42.666667 0 0 1 42.666666-42.666667H853.333333a42.666667 42.666667 0 1 0 0-85.333333h-192z" fill="#7cba59" p-id="2027"></path></svg>