<?xml version="1.0" standalone="no"?><!DOCTYPE svg PUBLIC "-//W3C//DTD SVG 1.1//EN" "http://www.w3.org/Graphics/SVG/1.1/DTD/svg11.dtd"><svg t="1712240835178" class="icon" viewBox="0 0 1036 1024" version="1.1" xmlns="http://www.w3.org/2000/svg" p-id="12808" xmlns:xlink="http://www.w3.org/1999/xlink" width="259" height="256"><path d="M519.98567 13.641666l155.103872 314.256641L1021.675062 378.291492a2.055593 2.055593 0 0 1 1.183523 3.550571l-250.969277 244.615625 59.487629 345.277415a2.055593 2.055593 0 0 1-2.989954 2.180175l-310.207744-162.890211-310.270035 163.077083a2.055593 2.055593 0 0 1-2.989954-2.180175l59.238467-345.464287L13.188439 381.842063a2.055593 2.055593 0 0 1 1.183523-3.550571L361.393518 327.898307 516.310518 13.641666a2.055593 2.055593 0 0 1 3.675152 0z" fill="#FFF100" p-id="12809"></path><path d="M1021.675062 378.291492l-56.061641-8.160083-257.883546 257.883547H772.512215v-1.557268l250.595533-244.615625a2.055593 2.055593 0 0 0-1.432686-3.550571z" fill="#F8B62D" p-id="12810"></path><path d="M521.916682 3.675152l25.539191 50.953802-163.762281 325.905004-20.306772-61.418642h1.494977L518.179239 3.675152a2.055593 2.055593 0 0 1 3.737443 0z" fill="#FFFFFF" p-id="12811"></path><path d="M206.974843 986.809455a14.576027 14.576027 0 0 1-14.326864-17.005364L224.353952 786.357945a12.458142 12.458142 0 0 1 24.54254 4.235768L220.74109 953.047889l297.438149-156.287395L815.555097 953.047889l-56.809129-331.137423 240.566728-234.52453-45.160766-6.229071a12.458142 12.458142 0 1 1 3.550571-24.916285l66.028154 9.59277a14.513736 14.513736 0 0 1 8.035502 24.916285l-246.235183 240.068403 58.117234 338.986053a14.513736 14.513736 0 0 1-21.116552 15.261224l-304.352417-159.962547-304.476999 160.024838a14.326864 14.326864 0 0 1-6.727397 1.681849z m10.215677-12.831886z m-15.012062-10.900875z m631.939271 0z m186.000065-572.38935z m-5.730745-17.690562zM908.181385 374.242596h-1.806431l-21.178842-3.114536a12.458142 12.458142 0 0 1 3.550571-24.916284l21.241133 3.114535a12.458142 12.458142 0 0 1-1.806431 24.916285zM249.270236 726.247408h-2.117884a12.458142 12.458142 0 0 1-10.340258-14.576027l13.828538-80.977925L4.53003 390.749635a14.513736 14.513736 0 0 1 8.035502-24.916285l340.356449-49.458825L505.098189 8.097793a14.576027 14.576027 0 0 1 26.099809 0l152.176208 308.401313 158.529862 23.047564a12.458142 12.458142 0 0 1-3.550571 24.916284l-171.486329-24.916284L518.116948 37.997334 369.429019 339.297507 36.983491 387.572808l240.566729 234.52453L261.728379 715.90715a12.458142 12.458142 0 0 1-12.458143 10.340258z" fill="#231815" p-id="12812"></path><path d="M693.216139 433.418772l93.436067 189.114601 208.673885 30.335577a1.245814 1.245814 0 0 1 0.685198 2.117884l-150.992686 147.192952 35.630287 207.926395a1.245814 1.245814 0 0 1-1.80643 1.308105l-186.872135-98.170161-186.872136 98.170161a1.245814 1.245814 0 0 1-1.80643-1.308105l35.692578-207.926395-150.743523-147.192952a1.245814 1.245814 0 0 1 0.685198-2.117884l208.736175-30.335577 93.436068-189.114601a1.245814 1.245814 0 0 1 2.117884 0z" fill="#FFFFFF" p-id="12813"></path><path d="M995.2638 652.86895l-41.298742-4.920967-155.228453 155.166163h46.344289v-0.93436l150.992685-147.192952a1.245814 1.245814 0 0 0-0.809779-2.117884z" fill="#DCDDDD" p-id="12814"></path><path d="M504.662154 1023.99701a13.641666 13.641666 0 0 1-13.517084-16.008713l34.571345-201.448162-146.383173-142.645729a13.703957 13.703957 0 0 1 7.599467-23.359017l202.444813-29.401216 90.446114-183.259274a13.579375 13.579375 0 0 1 12.458142-7.599467 13.703957 13.703957 0 0 1 12.458143 7.599467l90.383822 183.259274 86.459508 12.458142a12.458142 12.458142 0 1 1-3.612861 24.916285l-99.353685-14.451445-86.210345-174.413993-86.148055 174.413993-192.727462 27.968529 139.09516 135.856042-32.889496 191.917683 172.358399-90.632985 172.358399 90.632985-32.889495-191.917683 139.468903-135.980623-27.781657-3.986606a12.458142 12.458142 0 0 1 3.612861-24.916284l50.206314 7.288013a13.703957 13.703957 0 0 1 7.599466 23.359017l-146.320881 142.64573 34.509054 201.448161a13.703957 13.703957 0 0 1-19.870737 14.451445l-180.643064-95.117916-180.643064 95.117916a13.517084 13.517084 0 0 1-7.038851 1.806431z m488.608343-358.794499z" fill="#231815" p-id="12815"></path></svg>