<svg t="1710427772474" class="icon" viewBox="0 0 1156 1024" version="1.1" xmlns="http://www.w3.org/2000/svg" p-id="5808" width="128" height="128"><path d="M0 384.743226L318.843871 0l384.751484 318.852129-318.852129 384.743226z" fill="#FFB200" p-id="5809" data-spm-anchor-id="a313x.search_index.0.i5.21e43a81ABi8LE" class="selected"></path><path d="M659.563355 358.218323s-32.412903 30.926452-25.30271 38.829419c7.118452 7.89471 60.878452 0 60.878452 0s3.154581 14.228645 25.294451 13.444129c22.148129-0.784516 67.220645 0 67.220646 0" fill="#CCF8FE" p-id="5810"></path><path d="M416.21471 366.08l127.512774 121.492645s35.584 185.748645 65.23871 222.769549c29.646452 37.020903 180.26529 149.627871 180.26529 149.627871l141.130322 156.556387 220.58942-111.293936-106.735484-127.132903s24.220903-229.367742 8.803097-272.747355c-11.22271-31.562323-143.508645-147.067871-227.947355-225.998452a151.931871 151.931871 0 0 0-124.093936-39.523096l-243.959742 32.974451a11.115355 11.115355 0 0 0-5.128258 19.943226l26.624 19.703742 215.832775 1.569032 132.294193 227.427097-129.131355-2.081032S560.656516 296.827871 425.538065 330.388645a21.058065 21.058065 0 0 0-9.331613 35.691355z" fill="#F1F6FF" p-id="5811" data-spm-anchor-id="a313x.search_index.0.i6.21e43a81ABi8LE" class="selected"></path><path d="M736.289032 238.402065c9.108645 2.188387 20.843355 6.598194 31.066839 15.467354 3.468387 3.005935 8.530581 8.704 14.682839 16.235355 6.18529 7.564387 13.551484 17.094194 21.636129 27.870968 16.185806 21.553548 35.270194 48.144516 53.520516 73.992258a7644.870194 7644.870194 0 0 1 63.942193 92.11871l4.261162 6.234838 1.494709 2.196646s0.008258 0.008258-1.87458 1.28l-1.874581 1.28-1.49471-2.196646-4.261161-6.234838a7510.528 7510.528 0 0 0-63.909161-92.060904c-18.233806-25.839484-37.293419-52.372645-53.429678-73.876645a881.688774 881.688774 0 0 0-21.528774-27.73058c-6.160516-7.539613-11.008-12.956903-14.146064-15.673807-9.496774-8.249806-20.48-12.403613-29.150968-14.492903a79.219613 79.219613 0 0 0-10.685936-1.816774 57.789935 57.789935 0 0 0-3.856516-0.247742l-0.189935-0.008258h-0.049549v-2.270968-2.270968H720.788645l0.908387 0.033033a83.901935 83.901935 0 0 1 14.600258 2.163612z m-15.855484 2.337032zM777.447226 246.833548c8.456258 3.848258 19.868903 10.611613 31.851355 22.272 25.707355 25.021935 71.853419 72.192 111.558193 113.085936a22107.342452 22107.342452 0 0 1 67.187613 69.491613l5.813678 6.044903c0.008258 0 0.008258 0.008258-1.626839 1.585548l-1.643355 1.569033-5.813677-6.053162c-3.740903-3.88129-9.141677-9.496774-15.78942-16.375742a21661.811613 21661.811613 0 0 0-51.381677-53.099354c-39.713032-40.902194-85.826065-88.02271-111.475613-112.986839-11.56129-11.264-22.528-17.738323-30.554839-21.388387a72.439742 72.439742 0 0 0-9.562839-3.617032 42.595097 42.595097 0 0 0-3.237161-0.817549l-0.148645-0.024774h-0.033032l0.371613-2.246194 0.379871-2.237935h0.024774l0.066064 0.016516 0.206452 0.04129a47.698581 47.698581 0 0 1 3.633548 0.908387c2.460903 0.718452 5.945806 1.915871 10.173936 3.84z" fill="#000000" p-id="5812"></path><path d="M1040.549161 406.750968l-618.140903-27.466323-78.839742-46.988387 85.71871-28.944516 614.639484 27.334193a38.053161 38.053161 0 0 1 36.39329 39.754323 38.020129 38.020129 0 0 1-39.770839 36.31071z" fill="#000000" p-id="5813" data-spm-anchor-id="a313x.search_index.0.i3.21e43a81ABi8LE" class=""></path><path d="M575.917419 387.361032l-145.482322-6.457806-14.212129-13.543226a21.082839 21.082839 0 0 1 9.331613-35.707871c52.579097-13.047742 105.372903 15.715097 150.371096 55.708903z" fill="#FFFFFF" p-id="5814"></path><path d="M1043.621161 386.097548a17.986065 17.986065 0 1 0 0-35.972129 17.986065 17.986065 0 0 0 0 35.972129z" fill="#FFFFFF" p-id="5815" data-spm-anchor-id="a313x.search_index.0.i4.21e43a81ABi8LE" class="selected"></path><path d="M461.683613 272.119742s32.371613 32.222968 52.075355-7.035871zM427.586065 376.87329s-5.235613-23.882323 28.424258-20.232258c33.659871 3.650065 38.342194 30.530065 26.161548 39.622194-7.671742 5.466839-17.011613 8.092903-26.40929 7.399226" fill="#000000" opacity=".2" p-id="5816"></path><path d="M231.886452 209.333677h-0.024775c-0.123871 0.016516-2.510452 0.594581-6.680774 6.243097-3.897806 5.285161-7.985548 13.146839-12.089806 23.320774-8.175484 20.240516-15.492129 47.203097-21.619613 74.570323-6.110968 27.235097-10.925419 54.371097-14.228645 74.735484a1435.928774 1435.928774 0 0 0-4.723613 31.364129l-0.247742 1.783742-0.057807 0.445935-0.016516 0.140387-12.321032-1.610322-12.321032-1.610323 0.024774-0.173419 0.057806-0.487226 0.247742-1.858064 0.990968-7.011097c0.875355-6.028387 2.155355-14.625032 3.831742-24.964129 3.344516-20.645161 8.258065-48.301419 14.509419-76.197162 6.226581-27.771871 13.881806-56.295226 22.825291-78.435096 4.459355-11.024516 9.463742-21.082839 15.14529-28.771097 5.400774-7.324903 13.072516-14.757161 23.419871-16.128 10.941935-1.445161 19.406452 4.219871 25.12929 10.941935 5.557677 6.523871 9.827097 15.409548 13.287226 24.798968 6.978065 18.952258 12.122839 44.205419 16.375742 68.690581 1.899355 10.900645 3.600516 21.553548 5.202581 31.628387 2.122323 13.212903 4.079484 25.459613 6.110967 36.087742 1.527742 7.919484 2.972903 14.261677 4.376775 18.869677 0.578065-0.520258 1.213935-1.114839 1.882838-1.775484 4.599742-4.56671 9.653677-11.189677 14.492904-18.415484a305.655742 305.655742 0 0 0 12.139354-19.852387 323.633548 323.633548 0 0 0 4.583226-8.423225l0.247742-0.462452 0.049549-0.107355 0.008258-0.024774 11.065806 5.648516 11.074065 5.648516-0.033033 0.057807-0.08258 0.156903-0.280775 0.55329-1.073548 2.031484a352.578065 352.578065 0 0 1-17.052903 28.622452c-5.194323 7.737806-11.313548 15.938065-17.647484 22.214193-3.162839 3.138065-6.746839 6.168774-10.644645 8.381936-3.806968 2.163613-8.968258 4.145548-14.823226 3.509677-6.779871-0.734968-10.628129-5.582452-12.254968-8.010322-1.907613-2.849032-3.319742-6.226581-4.418064-9.414194-2.254452-6.474323-4.203355-15.079226-6.011871-24.526452-2.064516-10.776774-4.162065-23.865806-6.35871-37.565935a2396.308645 2396.308645 0 0 0-5.037419-30.579613c-4.252903-24.485161-9.092129-47.731613-15.211355-64.355097-3.096774-8.390194-6.144-14.055226-8.893936-17.284129-1.313032-1.536-2.229677-2.122323-2.617806-2.312258-0.21471-0.115613-0.256-0.107355-0.305548-0.090839z" fill="#000000" p-id="5817"></path></svg>
