<?xml version="1.0" standalone="no"?><!DOCTYPE svg PUBLIC "-//W3C//DTD SVG 1.1//EN" "http://www.w3.org/Graphics/SVG/1.1/DTD/svg11.dtd"><svg t="1711995965839" class="icon" viewBox="0 0 1024 1024" version="1.1" xmlns="http://www.w3.org/2000/svg" p-id="7723" xmlns:xlink="http://www.w3.org/1999/xlink" width="256" height="256"><path d="M492.728 191.912h28.152V281.04h-28.152zM740.92 501.064h89.144v28.184H740.92z" p-id="7724" fill="#0a49ac"></path><path d="M612.512 840.832a342.224 342.224 0 0 1-107.768 15.208l0.04-0.088a352.816 352.816 0 0 1-38.048-2.88l-0.424-0.08-1.184-0.136a351.408 351.408 0 0 1-81.264-21.536l-0.04 0.048a345.096 345.096 0 0 1-115.168-76.144c-62.256-62.2-100.768-148.24-100.768-243.248 0-33.264 4.696-65.504 13.544-95.944l0.08 0.04a343.256 343.256 0 0 1 25.096-62.8l0.088-0.256 1.352-2.456 1.184-2.248 0.336-0.592a343.64 343.64 0 0 1 59.088-79.008 343.768 343.768 0 0 1 33.432-29.368l0.68-0.544 0.296-0.216 0.208-0.168a351.52 351.52 0 0 1 36.656-24.376 344.44 344.44 0 0 1 95.656-37.584l1.184-0.256 2.112-0.464a345.792 345.792 0 0 1 116.216-5.08l2.464 0.296 0.504 0.088c14.304 1.944 28.608 4.824 42.912 8.632a348.08 348.08 0 0 1 68.568 26.408l1.856 0.968 1.144 0.64A345.264 345.264 0 0 1 784.832 302.48a341.76 341.76 0 0 1 25.056 37.496 344.552 344.552 0 0 1 37.592 95.648l0.248 1.184 0.504 2.2c5.08 23.528 7.744 47.904 7.744 72.96 0 13.88-0.8 27.592-2.456 41.088h0.048c-1.504 12.24-3.888 24.512-6.752 36.8a193.024 193.024 0 0 1 76.936 42.312c0.88-3.048 1.864-6.04 2.688-9.12 17.904-66.688 19.048-133.936 6.016-197.248l-0.344-1.48-0.544-2.704a428.288 428.288 0 0 0-79.152-170.928 427.552 427.552 0 0 0-144.536-120.576l-2.376-1.232-1.64-0.84a427.312 427.312 0 0 0-133.92-41.304L568 86.48l-2.072-0.248a425.36 425.36 0 0 0-140.184 5.288l-1.52 0.296-2.712 0.592a427.36 427.36 0 0 0-170.736 79.016 426.488 426.488 0 0 0-120.712 144.52l-1.312 2.536-0.8 1.568c-28.952 57.768-45.208 122.944-45.208 191.92 0 118.496 48.04 225.776 125.704 303.44 64.76 64.792 150.168 108.928 245.448 121.808l1.944 0.248 2.12 0.296c69.888 8.96 138.96 0.24 202.12-23.056a193.6 193.6 0 0 1-47.568-73.872z" p-id="7725" fill="#0a49ac"></path><path d="M690.472 371.096c-10.456-9.944-20.904-19.936-31.408-29.84-42.792 31.872-80.76 68.816-114.704 109.952a66.56 66.56 0 0 0-48.248-3.816c-35.256-71.776-78.168-140.376-127.272-206.392l-33.312 18.328A1146.488 1146.488 0 0 0 460.72 473.136a66.088 66.088 0 0 0-11.768 37.832 66.376 66.376 0 0 0 66.408 66.36 66.376 66.376 0 0 0 66.368-66.36c0-4.568-0.472-9.016-1.312-13.288a635.16 635.16 0 0 0 110.056-126.584zM492.728 749.264h28.152v89.168h-28.152zM183.504 501.064h89.176v28.184H183.504zM274.968 732.768l8.88 8.928 28.232-28.224-8.888-8.944zM291.216 274.984l-8.928 8.888 28.232 28.232 8.888-8.936zM711.88 310.536l8.936 8.888 28.184-28.192-8.88-8.888zM812.768 929.528c-12.536 0-22.976-10.448-22.976-22.976l-0.232-94-94 0.232c-12.776 0-23.208-10.224-23.208-22.76v-7.424c0-12.528 10.44-22.984 22.976-22.984l94-0.232-0.232-94c0-12.768 10.216-23.208 22.76-23.208h7.424c12.528 0 22.984 10.448 22.984 22.976l0.224 94.008 94.008-0.232c12.768 0 23.208 10.216 23.208 22.752v7.424c0 12.544-10.448 22.984-22.976 22.984l-94.008 0.232 0.232 94.008c0 12.76-10.216 23.2-22.752 23.2h-7.432z" p-id="7726" fill="#0a49ac"></path></svg>