<?xml version="1.0" standalone="no"?><!DOCTYPE svg PUBLIC "-//W3C//DTD SVG 1.1//EN" "http://www.w3.org/Graphics/SVG/1.1/DTD/svg11.dtd"><svg t="1710855741221" class="icon" viewBox="0 0 1024 1024" version="1.1" xmlns="http://www.w3.org/2000/svg" p-id="19156" xmlns:xlink="http://www.w3.org/1999/xlink" width="256" height="256"><path d="M512 341.333333m42.666667 0l256 0q42.666667 0 42.666666 42.666667l0 0q0 42.666667-42.666666 42.666667l-256 0q-42.666667 0-42.666667-42.666667l0 0q0-42.666667 42.666667-42.666667Z" fill="#515151" p-id="19157"></path><path d="M512 170.666667m42.666667 0l256 0q42.666667 0 42.666666 42.666666l0 0q0 42.666667-42.666666 42.666667l-256 0q-42.666667 0-42.666667-42.666667l0 0q0-42.666667 42.666667-42.666666Z" fill="#515151" p-id="19158"></path><path d="M256 170.666667m0 42.666666l0 597.333334q0 42.666667-42.666667 42.666666l0 0q-42.666667 0-42.666666-42.666666l0-597.333334q0-42.666667 42.666666-42.666666l0 0q42.666667 0 42.666667 42.666666Z" fill="#515151" p-id="19159"></path><path d="M341.333333 341.333333m42.666667 0l0 0q42.666667 0 42.666667 42.666667l0 0q0 42.666667-42.666667 42.666667l0 0q-42.666667 0-42.666667-42.666667l0 0q0-42.666667 42.666667-42.666667Z" fill="#515151" p-id="19160"></path><path d="M341.333333 170.666667m42.666667 0l0 0q42.666667 0 42.666667 42.666666l0 0q0 42.666667-42.666667 42.666667l0 0q-42.666667 0-42.666667-42.666667l0 0q0-42.666667 42.666667-42.666666Z" fill="#515151" p-id="19161"></path><path d="M512 597.333333m42.666667 0l256 0q42.666667 0 42.666666 42.666667l0 0q0 42.666667-42.666666 42.666667l-256 0q-42.666667 0-42.666667-42.666667l0 0q0-42.666667 42.666667-42.666667Z" fill="#515151" p-id="19162"></path><path d="M341.333333 597.333333m42.666667 0l0 0q42.666667 0 42.666667 42.666667l0 0q0 42.666667-42.666667 42.666667l0 0q-42.666667 0-42.666667-42.666667l0 0q0-42.666667 42.666667-42.666667Z" fill="#515151" p-id="19163"></path><path d="M512 768m42.666667 0l256 0q42.666667 0 42.666666 42.666667l0 0q0 42.666667-42.666666 42.666666l-256 0q-42.666667 0-42.666667-42.666666l0 0q0-42.666667 42.666667-42.666667Z" fill="#515151" p-id="19164"></path><path d="M341.333333 768m42.666667 0l0 0q42.666667 0 42.666667 42.666667l0 0q0 42.666667-42.666667 42.666666l0 0q-42.666667 0-42.666667-42.666666l0 0q0-42.666667 42.666667-42.666667Z" fill="#515151" p-id="19165"></path></svg>