<?xml version="1.0" standalone="no"?><!DOCTYPE svg PUBLIC "-//W3C//DTD SVG 1.1//EN" "http://www.w3.org/Graphics/SVG/1.1/DTD/svg11.dtd"><svg t="1711542187585" class="icon" viewBox="0 0 1024 1024" version="1.1" xmlns="http://www.w3.org/2000/svg" p-id="32723" xmlns:xlink="http://www.w3.org/1999/xlink" width="256" height="256"><path d="M61.379 17.83h900.29v467.704H61.379z" fill="#F16051" p-id="32724"></path><path d="M962.148 500.827H61.858c-9.578 0-15.963-6.385-15.963-15.964V17.16c0-4.788 1.596-7.982 4.788-11.173 3.193-3.194 7.982-4.788 11.173-4.788h900.29c9.579 0 15.964 6.385 15.964 15.963v467.704c0 4.789-1.597 7.982-4.788 11.174-3.192 3.191-6.385 4.788-11.174 4.788zM77.82 468.902h868.365V33.122H77.82v435.78z" fill="#193651" p-id="32725"></path><path d="M125.228 81.682H897.82v340.002H125.23z" fill="#FFFFFF" p-id="32726"></path><path d="M906.278 428.995H117.726V73.03h788.552v355.966zM133.69 413.032h756.627V88.99H133.69v324.04z" fill="#FFFFFF" p-id="32727"></path><path d="M189.558 144.86h644.889v212.304h-644.89z" fill="#E1E6E9" p-id="32728"></path><path d="M976.515 255.002H658.86l-54.274 63.85H49.088c-20.752 0-35.118 19.155-31.925 38.31l62.255 488.456c3.194 14.366 15.964 25.54 31.925 25.54h802.92c15.963 0 28.733-11.174 31.924-25.54l63.85-552.306c1.594-20.75-14.367-38.31-33.522-38.31z" fill="#FFFFFF" p-id="32729"></path><path d="M1013.228 256.599c-9.578-11.173-22.348-17.558-36.713-17.558H658.86c-4.788 0-9.579 1.596-12.77 4.788l-49.485 59.061H47.49c-14.366 0-28.733 6.385-36.713 17.559-9.578 11.173-12.77 25.54-9.578 38.31L63.455 848.81c4.788 22.349 23.943 38.31 46.292 38.31h802.918c22.349 0 43.098-15.963 47.889-39.907l62.255-552.305c3.19-12.77-0.002-28.732-9.58-38.31z m-84.601 584.23c-1.597 7.982-7.982 12.77-15.964 12.77H109.744c-7.981 0-14.366-4.788-15.963-11.173L33.125 353.97c-1.597-4.788 0-9.578 3.193-12.77 3.194-3.193 7.982-6.385 12.77-6.385h555.5c4.788 0 9.578-1.596 12.77-4.788l49.483-59.061h309.674c4.788 0 9.579 1.596 12.77 6.384 3.194 3.194 4.788 7.982 3.194 14.367L928.627 840.83z" fill="#193651" p-id="32730"></path><path d="M135.284 807.308L87.398 382.704h545.92l54.274-63.85h249.016l-49.485 488.454z" fill="#FDBF5E" p-id="32731"></path><path d="M17.161 748.246a258.595 258.595 0 1 0 517.19 0 258.595 258.595 0 1 0-517.19 0z" fill="#2EA2DB" p-id="32732"></path><path d="M275.756 1022.804C124.111 1022.804 1.2 899.894 1.2 748.248S124.11 473.692 275.756 473.692s274.556 122.912 274.556 274.556-122.911 274.556-274.556 274.556z m0-517.189c-134.087 0-242.631 108.547-242.631 242.631S141.67 990.878 275.756 990.878s242.631-108.545 242.631-242.632-108.544-242.631-242.631-242.631z" fill="#193651" p-id="32733"></path><path d="M275.756 942.991c-106.95 0-194.743-87.795-194.743-194.743s87.795-194.743 194.743-194.743S470.499 641.3 470.499 748.248s-87.793 194.743-194.743 194.743z" fill="#FFFFFF" p-id="32734"></path><path d="M470.5 748.246c0 46.292-15.963 87.795-43.097 121.317-35.119 44.695-90.987 73.428-151.645 73.428s-116.526-28.733-151.645-73.428c-27.136-33.522-43.098-75.025-43.098-121.317 0-106.95 87.795-194.743 194.743-194.743s194.743 87.795 194.743 194.743z" fill="#FFFFFF" p-id="32735"></path><path d="M189.558 689.185a86.198 86.198 0 1 0 172.396 0 86.198 86.198 0 1 0-172.396 0z" fill="#E1E6E9" p-id="32736"></path><path d="M427.4 853.6v15.963c-35.118 44.695-90.986 73.428-151.644 73.428s-116.526-28.733-151.645-73.428v-15.964c0-33.521 20.752-60.658 47.889-73.428 25.54 28.734 62.255 46.292 103.756 46.292s78.216-17.558 103.756-46.292c28.734 12.772 47.889 41.504 47.889 73.428z" fill="#E1E6E9" p-id="32737"></path><path d="M590.219 489.654h31.925v31.924h-31.925z m105.353 0h31.925v31.924h-31.925z m106.95 0h31.925v31.924h-31.925z m-212.303 79.81h31.925v31.926h-31.925z m105.353 0h31.925v31.926h-31.925z m106.95 0h31.925v31.926h-31.925z" fill="#193651" p-id="32738"></path></svg>