<?xml version="1.0" standalone="no"?><!DOCTYPE svg PUBLIC "-//W3C//DTD SVG 1.1//EN" "http://www.w3.org/Graphics/SVG/1.1/DTD/svg11.dtd"><svg t="1712586516709" class="icon" viewBox="0 0 1024 1024" version="1.1" xmlns="http://www.w3.org/2000/svg" p-id="7933" xmlns:xlink="http://www.w3.org/1999/xlink" width="256" height="256"><path d="M645.376 932.267A42.667 42.667 0 0 0 665.515 896V676.565a42.667 42.667 0 1 0-85.334 0v150.699L443.82 759.808V457.131a42.667 42.667 0 0 0-9.814-27.222l-215.21-259.242H805.12L589.995 429.909a42.667 42.667 0 0 0-9.814 27.222V512a42.667 42.667 0 1 0 85.334 0v-39.467l263.253-317.269A42.667 42.667 0 0 0 896 85.334H128a42.667 42.667 0 0 0-32.853 69.93l263.338 317.27v313.77a42.667 42.667 0 0 0 23.723 38.23l221.739 109.695a42.667 42.667 0 0 0 41.386-1.962z m101.12-255.702a42.667 42.667 0 0 0 42.667 42.667H896a42.667 42.667 0 1 0 0-85.333H789.12a42.667 42.667 0 0 0-42.667 42.666z m0-164.565a42.667 42.667 0 0 0 42.667 42.667H896a42.667 42.667 0 1 0 0-85.334H789.12A42.667 42.667 0 0 0 746.453 512z" fill="#448ED8" p-id="7934"></path></svg>