<?xml version="1.0" standalone="no"?><!DOCTYPE svg PUBLIC "-//W3C//DTD SVG 1.1//EN" "http://www.w3.org/Graphics/SVG/1.1/DTD/svg11.dtd"><svg t="1711959402707" class="icon" viewBox="0 0 1024 1024" version="1.1" xmlns="http://www.w3.org/2000/svg" p-id="4429" xmlns:xlink="http://www.w3.org/1999/xlink" width="256" height="256"><path d="M1023.480043 939.023209V222.911771c0-80.373427-62.654876-79.863469-70.394244-79.473501H550.39873a59.355146 59.355146 0 0 1-36.996975-12.798953 702.562546 702.562546 0 0 1-47.936079-81.07337c-0.509958-0.899926-0.999918-1.799853-1.46988-2.68978C439.187824-1.689862 408.280352-0.72994 400.790964 0.289976a34.997138 34.997138 0 0 1-4.799607 0H88.456506A89.14271 89.14271 0 0 0 0.023738 90.132629c0 0.869929 0 1.749857 0.059995 2.619786V931.023863c0 95.282208 58.685201 93.682339 69.494317 92.782413a40.046725 40.046725 0 0 1 4.099665 0h886.927469c68.344411 0 63.994767-72.994031 62.904856-84.333104m-130.219351-7.359398H130.1131a38.39686 38.39686 0 0 1-38.39686-38.406859V130.95929a38.39686 38.39686 0 0 1 38.39686-38.39686H361.994137a38.386861 38.386861 0 0 1 33.227283 19.20843c6.999428 12.288995 15.418739 27.127782 19.19843 33.847232a158.327052 158.327052 0 0 0 42.236546 57.59529 151.607602 151.607602 0 0 0 93.42236 32.377352h343.501909A38.386861 38.386861 0 0 1 931.947528 273.977595v619.799314a38.386861 38.386861 0 0 1-38.386861 38.39686" fill="#8a8a8a" p-id="4430"></path><path d="M789.58917 527.886831h-341.972035a57.59529 57.59529 0 0 1 0-114.350649h341.972035a57.59529 57.59529 0 0 1 0 114.350649" fill="#8a8a8a" p-id="4431"></path><path d="M204.407024 696.183068a53.235647 53.235647 0 0 0 51.445793 54.995503h3.579707a55.0305 55.0305 0 1 0 0-110.061 53.235647 53.235647 0 0 0-54.995502 51.385798v3.639702" fill="#8a8a8a" p-id="4432"></path><path d="M204.407024 470.681509a53.225647 53.225647 0 0 0 51.385798 54.995503h3.639702a54.995503 54.995503 0 1 0-54.995502-54.995503" fill="#8a8a8a" p-id="4433"></path><path d="M789.58917 753.318396h-341.972035a57.585291 57.585291 0 0 1 0-114.34065h341.972035a57.585291 57.585291 0 0 1 0 114.34065" fill="#8a8a8a" p-id="4434"></path></svg>