<?xml version="1.0" standalone="no"?><!DOCTYPE svg PUBLIC "-//W3C//DTD SVG 1.1//EN" "http://www.w3.org/Graphics/SVG/1.1/DTD/svg11.dtd"><svg t="1712300115001" class="icon" viewBox="0 0 1024 1024" version="1.1" xmlns="http://www.w3.org/2000/svg" p-id="7219" xmlns:xlink="http://www.w3.org/1999/xlink" width="256" height="256"><path d="M818.98511 763.676626H606.346757c-14.530629 0-26.298391-11.767763-26.298391-26.298391s11.767763-26.298391 26.298391-26.298391h212.638353c14.530629 0 26.298391 11.767763 26.298392 26.298391 0 14.4283-11.767763 26.298391-26.298392 26.298391z" fill="#CD76FF" p-id="7220"></path><path d="M712.665934 976.007994c-131.594284 0-238.732088-107.035475-238.732088-238.732087s107.035475-238.732088 238.732088-238.732088c131.594284 0 238.732088 107.035475 238.732087 238.732088S844.260218 976.007994 712.665934 976.007994z m0-424.765064c-102.533027 0-186.032977 83.397622-186.032977 186.032977s83.397622 186.032977 186.032977 186.032977c102.533027 0 186.032977-83.397622 186.032977-186.032977s-83.49995-186.032977-186.032977-186.032977z" fill="#CD76FF" p-id="7221"></path><path d="M520.493255 365.516938c0-14.530629-11.767763-26.298391-26.298391-26.298391H244.615969c-14.530629 0-26.298391 11.767763-26.298391 26.298391s11.767763 26.298391 26.298391 26.298391h249.578895c14.530629 0 26.298391-11.767763 26.298391-26.298391zM437.30029 476.440891c0-14.530629-11.767763-26.298391-26.298391-26.298391H244.615969c-14.530629 0-26.298391 11.767763-26.298391 26.298391s11.767763 26.298391 26.298391 26.298392h166.38593c14.530629 0 26.298391-11.767763 26.298391-26.298392zM244.615969 560.964125c-14.530629 0-26.298391 11.767763-26.298391 26.298391s11.767763 26.298391 26.298391 26.298391h97.007295c14.530629 0 26.298391-11.767763 26.298391-26.298391s-11.767763-26.298391-26.298391-26.298391H244.615969z" fill="#333333" p-id="7222"></path><path d="M681.251124 103.453982H647.789747c-11.051464-32.233437-41.44299-55.461977-77.360248-55.461976H320.850605c-35.917258 0-66.411112 23.22854-77.360248 55.461976h-33.563706c-75.722994 0-137.222344 61.601679-137.222344 137.222345v582.248426c0 75.722994 61.601679 137.222344 137.222344 137.222344h291.124213c14.530629 0 26.298391-11.767763 26.298392-26.298391s-11.767763-26.298391-26.298392-26.298391H209.926651c-46.661737 0-84.523234-37.963825-84.523233-84.523234v-582.248426c0-46.661737 37.963825-84.523234 84.523233-84.523234h33.563706c11.051464 32.233437 41.44299 55.461977 77.360248 55.461977h249.578894c35.917258 0 66.411112-23.22854 77.360248-55.461977h33.563706c46.661737 0 84.523234 37.963825 84.523233 84.523234v207.726591c0 14.530629 11.767763 26.298391 26.298391 26.298391s26.298391-11.767763 26.298392-26.298391v-207.726591c0.102328-75.722994-61.49935-137.324673-137.222345-137.324673z m-110.821625 55.461977H320.850605c-16.065554 0-29.061257-13.098031-29.061258-29.061257s13.098031-29.061257 29.061258-29.061257h249.578894c16.065554 0 29.061257 13.098031 29.061257 29.061257s-13.098031 29.061257-29.061257 29.061257z" fill="#333333" p-id="7223"></path></svg>