<?xml version="1.0" standalone="no"?><!DOCTYPE svg PUBLIC "-//W3C//DTD SVG 1.1//EN" "http://www.w3.org/Graphics/SVG/1.1/DTD/svg11.dtd"><svg t="1710609985297" class="icon" viewBox="0 0 1024 1024" version="1.1" xmlns="http://www.w3.org/2000/svg" p-id="23259" width="256" height="256" xmlns:xlink="http://www.w3.org/1999/xlink"><path d="M918.050133 478.344533L512 165.341867 105.949867 478.344533a51.165867 51.165867 0 0 1-62.7712-80.8448L477.184 57.9584 512 25.6l34.833067 32.3584 434.005333 339.541333a51.2 51.2 0 1 1-62.788267 80.8448z" fill="#B02721" p-id="23260"></path><path d="M918.050133 478.344533L512 165.341867 105.949867 478.344533a51.165867 51.165867 0 0 1-62.7712-80.8448L477.184 57.9584 512 25.6l34.833067 32.3584 434.005333 339.541333a51.2 51.2 0 1 1-62.788267 80.8448z" fill="#B02721" p-id="23261"></path><path d="M512 165.341867L119.466667 467.9168V981.333333h785.066666V467.9168z" fill="#E0E1E2" p-id="23262"></path><path d="M1006.933333 810.666667a17.066667 17.066667 0 0 0-17.066666 17.066666v17.066667h-17.066667v-17.066667a17.066667 17.066667 0 1 0-34.133333 0v17.066667h-34.133334a17.066667 17.066667 0 1 0 0 34.133333h34.133334v51.2h-34.133334a17.066667 17.066667 0 1 0 0 34.133334h34.133334v17.066666a17.066667 17.066667 0 1 0 34.133333 0v-17.066666h17.066667v17.066666a17.066667 17.066667 0 1 0 34.133333 0v-153.6a17.066667 17.066667 0 0 0-17.066667-17.066666z m-34.133333 119.466666v-51.2h17.066667v51.2h-17.066667zM119.466667 878.933333a17.066667 17.066667 0 1 0 0-34.133333H85.333333v-17.066667a17.066667 17.066667 0 1 0-34.133333 0v17.066667H34.133333v-17.066667a17.066667 17.066667 0 1 0-34.133333 0v153.6a17.066667 17.066667 0 1 0 34.133333 0v-17.066666h17.066667v17.066666a17.066667 17.066667 0 1 0 34.133333 0v-17.066666h34.133334a17.066667 17.066667 0 1 0 0-34.133334H85.333333v-51.2h34.133334z m-68.266667 51.2H34.133333v-51.2h17.066667v51.2z" fill="#E0E1E2" p-id="23263"></path><path d="M256 452.266667h204.8v136.533333H256zM256 691.2h204.8v170.666667H256zM563.2 452.266667h204.8v136.533333H563.2zM563.2 691.2h204.8v290.133333H563.2z" fill="#556080" p-id="23264"></path><path d="M563.2 452.266667h204.8v102.4H563.2zM256 452.266667h204.8v47.189333H256zM375.466667 759.466667v-68.266667h-34.133334v68.266667h-85.333333v34.133333h85.333333v68.266667h34.133334v-68.266667h85.333333v-34.133333z" fill="#7383BF" p-id="23265"></path></svg>
