<svg t="1710609950566" class="icon" viewBox="0 0 1024 1024" version="1.1" xmlns="http://www.w3.org/2000/svg"
     p-id="21304" width="256" height="256">
    <path d="M345.522649 772.722397H251.808461A65.393966 65.393966 0 0 1 191.048713 736.678478a48.401833 48.401833 0 0 1-5.664044-27.805308 183.309071 183.309071 0 0 0-27.805309-98.348406 176.100287 176.100287 0 0 0-25.230743-29.864961A401.117321 401.117321 0 0 1 83.431871 515.265836a340.357573 340.357573 0 0 1-33.469353-67.453618A214.203858 214.203858 0 0 1 36.574777 382.933164 321.820701 321.820701 0 0 1 43.78356 309.300588 274.448693 274.448693 0 0 1 88.066089 206.317964a322.335614 322.335614 0 0 1 122.549323-102.982624 287.836435 287.836435 0 0 1 65.393966-22.141265 349.111096 349.111096 0 0 1 83.415926-6.69387A308.947873 308.947873 0 0 1 471.161451 103.33534a317.186483 317.186483 0 0 1 62.819401 38.618484 329.544397 329.544397 0 0 1 72.60275 80.84136 273.93378 273.93378 0 0 1 37.588657 91.654535 277.023259 277.023259 0 0 1 5.664045 79.811534 210.599466 210.599466 0 0 1-16.992133 66.423793 377.946231 377.946231 0 0 1-51.491312 92.684361 376.916405 376.916405 0 0 1-29.864961 34.49918 134.392325 134.392325 0 0 0-27.805309 41.707962 196.696812 196.696812 0 0 0-16.992133 47.886921c0 10.298262 0 20.596525-2.574565 30.379874a154.473936 154.473936 0 0 1-3.089479 22.141264 62.819401 62.819401 0 0 1-29.864961 35.014092 69.513271 69.513271 0 0 1-35.014092 8.753523zM311.02347 159.975783a164.257286 164.257286 0 0 0-27.805308 3.604392 182.794158 182.794158 0 0 0-63.334314 22.656177 193.09242 193.09242 0 0 0-46.857094 37.588658 186.913463 186.913463 0 0 0-37.073745 51.491312 202.360857 202.360857 0 0 0-15.447394 79.811534 23.17109 23.17109 0 1 0 46.342181 0v-6.178958A144.175674 144.175674 0 0 1 176.116232 309.300588a158.593241 158.593241 0 0 1 55.610618-73.632576A141.086195 141.086195 0 0 1 311.538383 206.317964a79.811534 79.811534 0 0 0 15.962307 0A20.596525 20.596525 0 0 0 345.522649 192.41531a41.707963 41.707963 0 0 0 0-15.962307 21.111438 21.111438 0 0 0-18.021959-16.47722zM222.973326 856.653236h240.464428a18.021959 18.021959 0 0 1 19.051785 16.47722v51.491312a18.021959 18.021959 0 0 1-19.051785 16.47722H222.973326a18.021959 18.021959 0 0 1-19.051785-16.47722V875.705021a18.021959 18.021959 0 0 1 19.051785-19.051785z"
          fill="#175A40" p-id="21305"></path>
    <path d="M622.030995 844.810234h-108.131755a76.722055 76.722055 0 0 1-71.058011-43.767615 58.185183 58.185183 0 0 1-7.208784-31.924614 219.867903 219.867903 0 0 0-33.469352-118.944931 222.957381 222.957381 0 0 0-29.350048-36.558831 481.958681 481.958681 0 0 1-59.729922-80.84136 426.862977 426.862977 0 0 1-39.648311-79.811534 275.993433 275.993433 0 0 1-13.902654-81.871186 350.655835 350.655835 0 0 1 8.753523-89.594883 320.275961 320.275961 0 0 1 55.610617-121.004584A387.214667 387.214667 0 0 1 467.042146 36.396634 345.506704 345.506704 0 0 1 545.30894 8.591325a388.759406 388.759406 0 0 1 97.833493-8.23861 337.783007 337.783007 0 0 1 205.965249 78.266795 404.2068 404.2068 0 0 1 86.505404 98.348406 327.484745 327.484745 0 0 1 44.282528 111.736147 332.633876 332.633876 0 0 1 6.178958 95.773841A289.896087 289.896087 0 0 1 963.418394 463.774524a463.421809 463.421809 0 0 1-99.893145 154.473937 179.704679 179.704679 0 0 0-32.439527 51.491312 232.740731 232.740731 0 0 0-20.081611 58.700096c0 11.843002 0 24.200917-3.089479 36.043918a170.436243 170.436243 0 0 1-3.604392 28.320222 72.087837 72.087837 0 0 1-35.529005 42.222876 81.871186 81.871186 0 0 1-41.19305 10.813175z m-22.656177-750.228417a197.211725 197.211725 0 0 0-34.499179 4.119305 222.442468 222.442468 0 0 0-78.266795 27.805308 250.247777 250.247777 0 0 0-59.729922 46.857094 219.867903 219.867903 0 0 0-45.312354 66.938706 251.277603 251.277603 0 0 0-20.081612 98.863319 28.835135 28.835135 0 0 0 9.783349 21.626351 29.350048 29.350048 0 0 0 25.745656 9.268436 30.894787 30.894787 0 0 0 23.686004-27.805308v-14.932481a160.652894 160.652894 0 0 1 10.298262-51.491312A196.696812 196.696812 0 0 1 499.996586 187.781092 176.6152 176.6152 0 0 1 598.344992 154.826652h20.081611a24.71583 24.71583 0 0 0 19.566699-16.47722 31.924614 31.924614 0 0 0 0-19.566699 24.200917 24.200917 0 0 0-21.626351-19.566698zM482.489539 912.263853h278.567999a21.626351 21.626351 0 0 1 21.626351 21.626351v67.453619a22.141264 22.141264 0 0 1-21.626351 22.656177H482.489539a22.656177 22.656177 0 0 1-21.626351-22.141264v-67.968532a21.626351 21.626351 0 0 1 21.626351-21.626351z"
          fill="#6BC09C" p-id="21306"></path>
</svg>
