<?xml version="1.0" standalone="no"?><!DOCTYPE svg PUBLIC "-//W3C//DTD SVG 1.1//EN" "http://www.w3.org/Graphics/SVG/1.1/DTD/svg11.dtd"><svg t="1709565955348" class="icon" viewBox="0 0 1024 1024" version="1.1" xmlns="http://www.w3.org/2000/svg" p-id="5686" xmlns:xlink="http://www.w3.org/1999/xlink" width="128" height="128"><path d="M671.148651 478.803349c-1.786047 0-3.524465 0.214326-5.215256 0.571535a12.549953 12.549953 0 0 0-3.643535-0.571535H403.57507a12.478512 12.478512 0 0 0-2.214698 0.238139 25.218977 25.218977 0 0 0-3.214884-0.238139c-15.169488 0-27.457488 13.788279-27.457488 30.767628 0 17.003163 12.288 30.767628 27.457488 30.767628 1.071628 0 2.143256-0.071442 3.214884-0.23814 0.714419 0.142884 1.452651 0.23814 2.214698 0.23814h258.71479a12.716651 12.716651 0 0 0 3.643535-0.571535c1.690791 0.381023 3.429209 0.571535 5.23907 0.571535 15.145674 0 27.433674-13.764465 27.433675-30.767628 0-16.979349-12.288-30.767628-27.457489-30.767628z m104.614698 130.262325a25.48093 25.48093 0 0 0-5.23907 0.571535 12.288 12.288 0 0 0-3.643535-0.547721H403.57507a12.811907 12.811907 0 0 0-2.214698 0.214326 25.6 25.6 0 0 0-3.214884-0.23814c-15.169488 0-27.457488 13.788279-27.457488 30.791442 0 16.979349 12.288 30.743814 27.457488 30.743814 1.071628 0 2.143256-0.071442 3.214884-0.214325 0.714419 0.142884 1.428837 0.23814 2.214698 0.238139h363.305674a12.240372 12.240372 0 0 0 3.643535-0.595349c1.714605 0.381023 3.453023 0.571535 5.23907 0.571535 15.169488 0 27.457488-13.764465 27.457488-30.743814 0-17.003163-12.288-30.767628-27.457488-30.767628z m0 130.28614c-1.786047 0-3.524465 0.190512-5.23907 0.547721a12.288 12.288 0 0 0-3.643535-0.547721H403.57507a11.668837 11.668837 0 0 0-2.214698 0.214326 25.385674 25.385674 0 0 0-3.214884-0.214326c-15.169488 0-27.457488 13.764465-27.457488 30.767628 0 16.979349 12.288 30.767628 27.457488 30.767628 1.071628 0 2.143256-0.095256 3.214884-0.23814 0.714419 0.142884 1.428837 0.23814 2.214698 0.23814h363.305674a12.359442 12.359442 0 0 0 3.643535-0.571535c1.714605 0.357209 3.453023 0.571535 5.23907 0.571535 15.169488 0 27.457488-13.788279 27.457488-30.767628 0-17.003163-12.288-30.767628-27.457488-30.767628z m200.251535 221.112558V84.825302S977.515163 22.599442 910.693209 22.599442H120.212837C56.343814 22.575628 54.843535 84.849116 54.843535 84.849116v875.686698c0-0.071442-0.190512 62.273488 65.369302 62.273488h186.391814l1.809861 0.047628 2.000372-0.047628h600.278325c68.131721 0 65.321674-62.34493 65.321675-62.34493z m-720.896 2.929116l-113.306791 0.095256c-28.600558 0-31.934512-28.695814-31.934512-28.695814V107.091349c0-27.481302 32.053581-24.004465 32.053582-24.004465h113.187721v880.306604z m636.142139-1.071628H311.081674V83.110698h288.458419v267.02586l86.611349-86.349395 87.325767 86.349395V83.086884h115.735814c32.458419 0 30.815256 24.123535 30.815256 24.123535v831.011721s1.595535 24.099721-28.767256 24.09972z" fill="#333333" p-id="5687"></path><path d="M559.151628 83.110698v309.581395l118.593488-100.11386 119.546047 100.090046v-309.581395z" fill="#26CBAA" p-id="5688"></path></svg>
