<?xml version="1.0" standalone="no"?><!DOCTYPE svg PUBLIC "-//W3C//DTD SVG 1.1//EN" "http://www.w3.org/Graphics/SVG/1.1/DTD/svg11.dtd"><svg height="1024" node-id="1" sillyvg="true" template-height="1024" template-width="1024" version="1.1" viewBox="0 0 1024 1024" width="1024" xmlns="http://www.w3.org/2000/svg" xmlns:xlink="http://www.w3.org/1999/xlink"><defs node-id="29"><linearGradient gradientUnits="userSpaceOnUse" id="SVGID_1_" node-id="4" spreadMethod="pad" x1="512" x2="512" y1="47" y2="977"><stop offset="0" stop-color="#ece0be"></stop><stop offset="1" stop-color="#ffffee"></stop></linearGradient></defs><path d="M 977.00 512.00 C 977.00 635.33 928.01 753.60 840.80 840.80 C 753.60 928.01 635.33 977.00 512.00 977.00 C 388.67 977.00 270.40 928.01 183.20 840.80 C 95.99 753.60 47.00 635.33 47.00 512.00 C 47.00 388.67 95.99 270.40 183.20 183.20 C 270.40 95.99 388.67 47.00 512.00 47.00 C 635.33 47.00 753.60 95.99 840.80 183.20 C 928.01 270.40 977.00 388.67 977.00 512.00 Z" fill="url(#SVGID_1_)" fill-rule="nonzero" node-id="38" stroke="none" target-height="930" target-width="930" target-x="47" target-y="47"></path><path d="M 821.68 630.97 L 202.32 630.97 C 191.20 630.97 182.19 621.96 182.19 610.84 L 182.19 147.10 C 182.19 135.98 191.20 126.97 202.32 126.97 L 821.67 126.97 C 832.79 126.97 841.80 135.98 841.80 147.10 L 841.80 610.84 C 841.81 621.96 832.79 630.97 821.68 630.97 Z" fill="#e1ab5d" fill-rule="nonzero" node-id="40" stroke="none" target-height="503.99997" target-width="659.62" target-x="182.19" target-y="126.97"></path><path d="M 767.52 630.97 L 256.48 630.97 C 245.36 630.97 236.35 621.96 236.35 610.84 L 236.35 198.42 C 236.35 187.30 245.36 178.29 256.48 178.29 L 767.51 178.29 C 778.63 178.29 787.64 187.30 787.64 198.42 L 787.64 610.84 C 787.65 621.96 778.63 630.97 767.52 630.97 Z" fill="#2f1c07" fill-rule="nonzero" node-id="42" stroke="none" target-height="452.68" target-width="551.30005" target-x="236.35" target-y="178.29"></path><path d="M 184.52 536.00 L 261.90 435.10 L 757.07 419.31 L 839.48 536.00 L 496.48 638.16 L 236.35 610.84 Z" fill="#7b3814" fill-rule="nonzero" node-id="44" stroke="none" target-height="218.84998" target-width="654.95996" target-x="184.52" target-y="419.31"></path><path d="M 742.01 512.00 L 324.45 362.82 L 491.84 145.27 L 636.74 371.06 L 810.03 362.82 Z" fill="#c7bfc0" fill-rule="nonzero" node-id="46" stroke="none" target-height="366.72998" target-width="485.58002" target-x="324.45" target-y="145.27"></path><path d="M 309.90 580.38 L 234.00 350.65 L 705.04 145.27 L 787.65 580.38 Z" fill="#ffffff" fill-rule="nonzero" node-id="48" stroke="none" target-height="435.11" target-width="553.65" target-x="234" target-y="145.27"></path><g node-id="82"><g node-id="84"><path d="M 184.52 556.00 L 512.00 556.00 L 512.00 536.00 L 184.52 536.00 C 158.33 536.00 136.91 557.43 136.91 583.61 L 136.91 603.61 C 136.90 577.43 158.33 556.00 184.52 556.00 Z" fill="#cb8d42" fill-rule="nonzero" group-id="1,3" node-id="54" stroke="none" target-height="67.609985" target-width="375.1" target-x="136.9" target-y="536"></path><path d="M 184.52 556.00 C 158.33 556.00 136.91 577.43 136.91 603.61 L 136.91 757.80 L 136.91 777.80 C 136.91 803.99 158.34 825.41 184.52 825.41 L 512.00 825.41 L 512.00 805.41 L 512.00 556.00 L 184.52 556.00 Z" fill="#e1ab5d" fill-rule="nonzero" group-id="1,3" node-id="56" stroke="none" target-height="269.40997" target-width="375.09" target-x="136.91" target-y="556"></path><path d="M 839.48 556.00 C 865.67 556.00 887.09 577.43 887.09 603.61 L 887.09 583.61 C 887.09 557.42 865.66 536.00 839.48 536.00 L 512.00 536.00 L 512.00 556.00 L 839.48 556.00 Z" fill="#b97d35" fill-rule="nonzero" group-id="1,3" node-id="58" stroke="none" target-height="67.609985" target-width="375.09003" target-x="512" target-y="536"></path><path d="M 839.48 556.00 L 512.00 556.00 L 512.00 805.42 L 512.00 825.42 L 839.48 825.42 C 865.67 825.42 887.09 803.99 887.09 777.81 L 887.09 757.81 L 887.09 603.61 C 887.10 577.43 865.67 556.00 839.48 556.00 Z" fill="#d69b4f" fill-rule="nonzero" group-id="1,3" node-id="60" stroke="none" target-height="269.41998" target-width="375.09998" target-x="512" target-y="556"></path></g><path d="M 434.68 690.71 C 434.68 715.08 414.92 734.84 390.55 734.84 C 366.18 734.84 346.42 715.08 346.42 690.71 C 346.42 666.34 366.18 646.58 390.55 646.58 C 414.92 646.58 434.68 666.34 434.68 690.71 Z" fill="#f0d4ab" fill-rule="nonzero" group-id="1" node-id="63" stroke="none" target-height="88.26001" target-width="88.25998" target-x="346.42" target-y="646.58"></path><path d="M 680.87 690.71 C 680.87 715.08 661.11 734.84 636.74 734.84 C 612.37 734.84 592.61 715.08 592.61 690.71 C 592.61 666.34 612.37 646.58 636.74 646.58 C 661.11 646.58 680.87 666.34 680.87 690.71 Z" fill="#f0d4ab" fill-rule="nonzero" group-id="1" node-id="65" stroke="none" target-height="88.26001" target-width="88.26001" target-x="592.61" target-y="646.58"></path><path d="M 628.58 713.94 L 396.32 713.94 C 383.49 713.94 373.09 703.54 373.09 690.71 L 373.09 690.71 C 373.09 677.88 383.49 667.48 396.32 667.48 L 628.58 667.48 C 641.41 667.48 651.81 677.88 651.81 690.71 L 651.81 690.71 C 651.81 703.54 641.41 713.94 628.58 713.94 Z" fill="#ffffff" fill-rule="nonzero" group-id="1" node-id="67" stroke="none" target-height="46.460022" target-width="278.72" target-x="373.09" target-y="667.48"></path></g><path d="M 301.39 690.71 L 263.06 650.71 L 224.74 690.71 L 224.74 556.00 L 301.39 556.00 Z" fill="#fdebbe" fill-rule="nonzero" node-id="70" stroke="none" target-height="134.71002" target-width="76.65001" target-x="224.74" target-y="556"></path><path d="M 311.39 536.00 L 240.74 536.00 L 224.74 556.00 L 301.39 556.00 Z" fill="#efdbab" fill-rule="nonzero" node-id="72" stroke="none" target-height="20" target-width="86.65001" target-x="224.74" target-y="536"></path><path d="M 567.28 306.55 L 319.62 401.47 C 310.34 405.03 299.93 400.39 296.37 391.10 L 296.37 391.10 C 292.81 381.82 297.45 371.41 306.74 367.85 L 554.40 272.93 C 563.68 269.37 574.09 274.01 577.65 283.30 L 577.65 283.30 C 581.20 292.58 576.56 302.99 567.28 306.55 Z" fill="#f4caa5" fill-rule="nonzero" group-id="2" node-id="76" stroke="none" target-height="135.66" target-width="288.39" target-x="292.81" target-y="269.37"></path><path d="M 653.92 341.88 L 342.52 461.23 C 333.24 464.79 322.83 460.15 319.27 450.86 L 319.27 450.86 C 315.71 441.58 320.35 431.17 329.64 427.61 L 641.04 308.26 C 650.32 304.70 660.73 309.34 664.29 318.63 L 664.29 318.63 C 667.84 327.91 663.20 338.32 653.92 341.88 Z" fill="#f4caa5" fill-rule="nonzero" group-id="2" node-id="78" stroke="none" target-height="160.09" target-width="352.13004" target-x="315.71" target-y="304.7"></path><path d="M 575.01 440.66 L 365.43 520.99 C 356.15 524.55 345.74 519.91 342.18 510.62 L 342.18 510.62 C 338.62 501.34 343.26 490.93 352.55 487.37 L 562.13 407.04 C 571.41 403.48 581.82 408.12 585.38 417.41 L 585.38 417.41 C 588.94 426.70 584.29 437.11 575.01 440.66 Z" fill="#f4caa5" fill-rule="nonzero" group-id="2" node-id="80" stroke="none" target-height="121.06998" target-width="250.32" target-x="338.62" target-y="403.48"></path></svg>