<?xml version="1.0" standalone="no"?><!DOCTYPE svg PUBLIC "-//W3C//DTD SVG 1.1//EN" "http://www.w3.org/Graphics/SVG/1.1/DTD/svg11.dtd"><svg t="1710691144733" class="icon" viewBox="0 0 1024 1024" version="1.1" xmlns="http://www.w3.org/2000/svg" p-id="26122" xmlns:xlink="http://www.w3.org/1999/xlink" width="256" height="256"><path d="M0.001 686.081003a332.798997 332.798997 0 1 0 665.597994 0 332.798997 332.798997 0 1 0-665.597994 0z" fill="#DFDFF2" p-id="26123"></path><path d="M883.197991 1024H243.200998a141.055999 141.055999 0 0 1-140.799999-140.799999V140.803009A141.055999 141.055999 0 0 1 243.200998 0.00301h516.349995a89.087999 89.087999 0 0 1 63.232999 25.6l189.694998 189.694998a38.4 38.4 0 0 1 11.52 27.904V883.200001a141.055999 141.055999 0 0 1-140.799999 140.799999zM243.200998 76.803009a63.999999 63.999999 0 0 0-64 64V883.200001a63.999999 63.999999 0 0 0 64 64h639.997993a63.999999 63.999999 0 0 0 64-64V259.074007l-179.199998-179.199998a12.8 12.8 0 0 0-8.447-3.071z" fill="#434260" p-id="26124"></path><path d="M354.559997 399.106006h40.959999l41.216 112.895999c5.12 15.103 9.728 30.463 15.104 45.823h1.536c5.12-15.36 9.472-30.72 14.847999-45.823l40.96-114.175999h41.215v226.046998h-33.536V512.002005c0-20.224 2.816-49.408 4.608-69.887999l-18.176 51.199999-39.423 107.774999h-22.015999l-39.68-107.774999-17.92-51.199999c1.536 20.48 4.352 49.664 4.352 69.887999v111.870999h-34.047999z m254.974997 0h58.623999c69.375999 0 109.055999 38.4 109.055999 112.127999s-39.68 113.919999-107.263999 113.919999h-60.415999z m56.064 196.606998c48.384 0 74.495999-28.672 74.495999-84.734999s-25.6-83.199999-74.495999-83.199999h-20.48v167.934998z" fill="#434260" p-id="26125"></path></svg>