<?xml version="1.0" standalone="no"?><!DOCTYPE svg PUBLIC "-//W3C//DTD SVG 1.1//EN" "http://www.w3.org/Graphics/SVG/1.1/DTD/svg11.dtd"><svg t="1712170284084" class="icon" viewBox="0 0 1024 1024" version="1.1" xmlns="http://www.w3.org/2000/svg" p-id="4270" width="256" height="256" xmlns:xlink="http://www.w3.org/1999/xlink"><path d="M416.09769 314.026667m-314.026667 0a314.026667 314.026667 0 1 0 628.053333 0 314.026667 314.026667 0 1 0-628.053333 0Z" fill="#8CF6FB" p-id="4271"></path><path d="M655.031023 793.258667c64.170667 45.056 102.4 117.418667 102.4 196.608 0 19.114667-15.018667 34.133333-34.133333 34.133333S689.164356 1008.981333 689.164356 989.866667C689.164356 895.658667 612.70569 819.2 518.49769 819.2S347.831023 895.658667 347.831023 989.866667c0 19.114667-15.018667 34.133333-34.133333 34.133333S279.564356 1008.981333 279.564356 989.866667c0-76.458667 36.864-148.821333 98.304-192.512C164.876356 723.626667 51.55369 490.154667 125.28169 275.797333 199.00969 62.805333 431.116356-50.517333 645.47369 23.210667s327.68 307.2 253.952 520.192c-40.96 116.053333-129.706667 207.530667-244.394667 249.856zM511.671023 68.266667C323.255023 68.266667 170.33769 221.184 170.33769 409.6s152.917333 341.333333 341.333333 341.333333 341.333333-152.917333 341.333333-341.333333S700.087023 68.266667 511.671023 68.266667z" fill="#3C2DCB" p-id="4272"></path><path d="M640.012356 574.805333c-75.093333 47.786667-170.666667 46.421333-245.76-2.730666-16.384-10.922667-20.48-32.768-10.922666-49.152 9.557333-16.384 28.672-21.845333 45.056-12.288l1.365333 1.365333c53.248 34.133333 121.514667 35.498667 174.762667 1.365333 15.018667-9.557333 35.498667-5.461333 45.056 10.922667l1.365333 1.365333c9.557333 17.749333 4.096 39.594667-10.922667 49.152z" fill="#D098FF" p-id="4273"></path></svg>