<?xml version="1.0" standalone="no"?><!DOCTYPE svg PUBLIC "-//W3C//DTD SVG 1.1//EN" "http://www.w3.org/Graphics/SVG/1.1/DTD/svg11.dtd"><svg t="1712644511570" class="icon" viewBox="0 0 1024 1024" version="1.1" xmlns="http://www.w3.org/2000/svg" p-id="5203" xmlns:xlink="http://www.w3.org/1999/xlink" width="256" height="256"><path d="M847.872 33.92H136.448a51.2 51.2 0 0 0-51.2 51.2v524.416h-24.96a51.2 51.2 0 0 0-51.2 51.2v157.632a151.744 151.744 0 0 0 151.616 151.552h293.44a51.2 51.2 0 0 0 0-102.4H160.64a49.28 49.28 0 0 1-49.28-49.152v-106.432h150.464l26.304 38.08a51.2 51.2 0 0 0 42.176 22.08h98.624a51.2 51.2 0 0 0 0-102.4H357.248L330.88 631.68a51.2 51.2 0 0 0-42.112-22.144h-101.12V136.32h609.024V413.44a51.2 51.2 0 0 0 102.4 0V85.056a51.2 51.2 0 0 0-51.2-51.2z" fill="#4A6284" p-id="5204"></path><path d="M339.392 321.408h158.976a51.2 51.2 0 1 0 0-102.4H339.392a51.2 51.2 0 1 0 0 102.4zM652.48 391.552H339.392a51.2 51.2 0 1 0 0 102.4h313.088a51.2 51.2 0 0 0 0-102.4z" fill="#4A6284" p-id="5205"></path><path d="M774.208 526.72a246.912 246.912 0 1 0 0 493.76 246.912 246.912 0 0 0 0-493.76z m-29.312 354.816h-76.288v-215.872h76.288v215.872z m134.912 0h-76.288v-215.872h76.288v215.872z" fill="#FF9124" p-id="5206"></path></svg>