<?xml version="1.0" standalone="no"?><!DOCTYPE svg PUBLIC "-//W3C//DTD SVG 1.1//EN" "http://www.w3.org/Graphics/SVG/1.1/DTD/svg11.dtd"><svg t="1712056874660" class="icon" viewBox="0 0 1028 1024" version="1.1" xmlns="http://www.w3.org/2000/svg" p-id="20342" xmlns:xlink="http://www.w3.org/1999/xlink" width="257" height="256"><path d="M300.957571 417.104901a33.43973 33.43973 0 0 1-23.630742-9.808988l-83.041997-83.041996a33.43973 33.43973 0 1 1 47.261486-47.261485L300.957571 336.403685l130.414948-130.86081a33.43973 33.43973 0 0 1 47.93028 47.261485L324.142451 407.295913a33.43973 33.43973 0 0 1-23.18488 9.808988z" fill="#FFE164" p-id="20343"></path><path d="M316.339847 828.19065a133.758921 133.758921 0 1 1 134.31625-133.75892 134.427715 134.427715 0 0 1-134.31625 133.75892z m0-201.753038a66.87946 66.87946 0 1 0 67.43679 66.87946 67.436789 67.436789 0 0 0-67.43679-66.87946z" fill="#437DFF" p-id="20344"></path><path d="M813.031306 332.948247H607.822829a33.43973 33.43973 0 0 1 0-66.879461h205.208477a33.43973 33.43973 0 0 1 0 66.879461z" fill="#E84842" p-id="20345"></path><path d="M813.031306 727.314131H607.822829a33.43973 33.43973 0 0 1 0-66.87946h205.208477a33.43973 33.43973 0 0 1 0 66.87946z" fill="#FFE164" p-id="20346"></path><path d="M995.054904 363.489867a33.43973 33.43973 0 0 1-33.43973-33.43973v-80.143887a33.43973 33.43973 0 0 1 66.87946 0v80.143887a33.43973 33.43973 0 0 1-33.43973 33.43973z" fill="#494949" p-id="20347"></path><path d="M995.054904 398.267186a33.43973 33.43973 0 0 1-33.43973-33.43973v-84.602517a33.43973 33.43973 0 0 1 66.87946 0v84.602517a33.43973 33.43973 0 0 1-33.43973 33.43973z" fill="#494949" p-id="20348"></path><path d="M966.073804 1023.924538a33.43973 33.43973 0 0 1-4.45863-66.879461v-490.449375a33.43973 33.43973 0 0 1 66.87946 0v494.908006a62.42083 62.42083 0 0 1-62.42083 62.42083z" fill="#E84842" p-id="20349"></path><path d="M966.073804 1023.924538a33.43973 33.43973 0 0 1-4.45863-66.879461V530.242655a33.43973 33.43973 0 0 1 66.87946 0v431.261053a62.42083 62.42083 0 0 1-62.42083 62.42083z" fill="#FFE164" p-id="20350"></path><path d="M966.073804 1023.924538a33.43973 33.43973 0 0 1-4.45863-66.879461V585.975538a33.43973 33.43973 0 0 1 66.87946 0v375.52817a62.42083 62.42083 0 0 1-62.42083 62.42083z" fill="#437DFF" p-id="20351"></path><path d="M966.073804 1023.924538H62.42083a62.42083 62.42083 0 0 1-62.42083-62.42083V62.42083A62.42083 62.42083 0 0 1 62.42083 0h903.652974a62.42083 62.42083 0 0 1 62.42083 62.42083V167.198651a33.43973 33.43973 0 1 1-66.87946 0V66.87946H66.87946v890.165617h894.735714v-300.957571a33.43973 33.43973 0 0 1 66.87946 0v305.416202a62.42083 62.42083 0 0 1-62.42083 62.42083z" fill="#494949" p-id="20352"></path></svg>