<?xml version="1.0" standalone="no"?><!DOCTYPE svg PUBLIC "-//W3C//DTD SVG 1.1//EN" "http://www.w3.org/Graphics/SVG/1.1/DTD/svg11.dtd"><svg t="1712644571860" class="icon" viewBox="0 0 1024 1024" version="1.1" xmlns="http://www.w3.org/2000/svg" p-id="8730" xmlns:xlink="http://www.w3.org/1999/xlink" width="256" height="256"><path d="M847.872 33.92H136.448a51.2 51.2 0 0 0-51.2 51.2v524.416h-24.96a51.2 51.2 0 0 0-51.2 51.2v157.632a151.744 151.744 0 0 0 151.616 151.552h474.24a51.2 51.2 0 0 0 0-102.4h-474.24a49.28 49.28 0 0 1-49.28-49.152v-106.432h150.464l26.304 38.08a51.2 51.2 0 0 0 42.176 22.08H440.96a51.2 51.2 0 0 0 0-102.4H357.12l-26.24-38.016a51.2 51.2 0 0 0-42.176-22.144h-101.12V136.32h609.024V413.44a51.2 51.2 0 0 0 102.4 0V85.056a51.2 51.2 0 0 0-51.2-51.2z" fill="#4A6284" p-id="8731"></path><path d="M339.392 321.408h158.976a51.2 51.2 0 0 0 0-102.4H339.392a51.2 51.2 0 0 0 0 102.4zM652.48 391.552H339.392a51.2 51.2 0 0 0 0 102.4h313.088a51.2 51.2 0 0 0 0-102.4z" fill="#4A6284" p-id="8732"></path><path d="M989.44 513.216l-81.472 473.408a10.368 10.368 0 0 1-19.072 3.776l-110.72-176.96a14.528 14.528 0 0 0-9.856-6.592l-205.568-36.352a10.368 10.368 0 0 1-3.648-19.072l408.32-252.992a14.528 14.528 0 0 1 21.952 14.72z" fill="#00C18B" p-id="8733"></path></svg>