<?xml version="1.0" standalone="no"?><!DOCTYPE svg PUBLIC "-//W3C//DTD SVG 1.1//EN" "http://www.w3.org/Graphics/SVG/1.1/DTD/svg11.dtd"><svg t="1712299544500" class="icon" viewBox="0 0 1024 1024" version="1.1" xmlns="http://www.w3.org/2000/svg" p-id="1855" xmlns:xlink="http://www.w3.org/1999/xlink" width="256" height="256"><path d="M866.9 725H157.6c-25.9 0-46.8-21-46.8-46.8V229.8c0-25.9 21-46.8 46.8-46.8h709.3c25.9 0 46.8 21 46.8 46.8v448.3c0.1 25.9-20.9 46.9-46.8 46.9z" fill="#B8EADA" p-id="1856"></path><path d="M961.9 437h-201c-7.7 0-14.6 4.6-17.7 11.6L680.8 593c-1.6 3.6-5.1 5.9-9 5.9h-310c-3.9 0-7.5-2.3-9-5.9l-62.4-144.4c-3-7.1-10-11.6-17.7-11.6h-210C28.3 437 0.4 464.9 0.4 499.3v427.4c0 34.4 27.9 62.3 62.3 62.3h899.4c34.4 0 62.3-27.9 62.3-62.3V499.3c-0.1-34.4-28.1-62.3-62.5-62.3z" fill="#24C891" p-id="1857"></path><path d="M825.3 109h-626c-19.9 0-36-16.1-36-36s16.1-36 36-36h626c19.9 0 36 16.1 36 36s-16.2 36-36 36zM770.8 841h-517c-19.9 0-36-16.1-36-36s16.1-36 36-36h517c19.9 0 36 16.1 36 36s-16.2 36-36 36z" fill="#B8EADA" p-id="1858"></path></svg>