<?xml version="1.0" standalone="no"?><!DOCTYPE svg PUBLIC "-//W3C//DTD SVG 1.1//EN" "http://www.w3.org/Graphics/SVG/1.1/DTD/svg11.dtd"><svg t="1713158852220" class="icon" viewBox="0 0 1099 1024" version="1.1" xmlns="http://www.w3.org/2000/svg" p-id="11169" xmlns:xlink="http://www.w3.org/1999/xlink" width="274.75" height="256"><path d="M334.026837 304.582748c0-60.851118 49.073482-110.251757 110.251757-110.251758h495.315016c60.851118 0 110.251757 49.400639 110.251757 110.251758v337.298402c0 60.851118-49.073482 110.251757-110.251757 110.251757h-28.135463v141.658786l-171.430032-141.658786h-295.749521c-60.851118 0-110.578914-49.400639-110.578913-110.251757V304.582748z" fill="#FF8E7F" p-id="11170"></path><path d="M911.458147 893.791693l-171.430032-141.658786h-295.749521c-60.851118 0-110.578914-49.400639-110.578913-110.251757V304.582748c0-60.851118 49.400639-110.251757 110.251757-110.251758h495.315016c60.851118 0 110.251757 49.400639 110.251757 110.251758v337.298402c0 60.851118-49.400639 110.251757-110.251757 110.251757h-28.135464v141.658786zM444.278594 221.812141c-45.47476 0-82.770607 36.96869-82.770607 82.770607v337.298402c0 45.47476 37.295847 82.770607 82.770607 82.770607h305.564218l133.807028 110.578914v-110.578914h55.616614c45.801917 0 82.770607-36.96869 82.770607-82.770607V304.582748c0-45.47476-36.96869-82.770607-82.770607-82.770607H444.278594z" fill="#453C35" p-id="11171"></path><path d="M442.315655 724.651757s135.769968 1.962939 136.424281 0c35.660064-101.745687 33.697125-310.144409-217.231949-366.088179v101.418531c0 144.930351 80.807668 264.669649 80.807668 264.669648z" fill="#FF6464" p-id="11172"></path><path d="M832.286262 387.353355h-269.24984c-7.524601 0-13.740575-6.215974-13.740575-13.740575s6.215974-13.740575 13.740575-13.740576h269.24984c7.524601 0 13.740575 6.215974 13.740575 13.740576s-6.215974 13.740575-13.740575 13.740575zM832.286262 483.864537h-269.24984c-7.524601 0-13.740575-6.215974-13.740575-13.740575 0-7.524601 6.215974-13.740575 13.740575-13.740575h269.24984c7.524601 0 13.740575 6.215974 13.740575 13.740575 0 7.524601-6.215974 13.740575-13.740575 13.740575zM832.286262 580.375719h-269.24984c-7.524601 0-13.740575-6.215974-13.740575-13.740575 0-7.524601 6.215974-13.740575 13.740575-13.740575h269.24984c7.524601 0 13.740575 6.215974 13.740575 13.740575 0 7.524601-6.215974 13.740575-13.740575 13.740575z" fill="#453C35" p-id="11173"></path><path d="M473.830645 460.744383c-44.820447-43.838978-104.690096-68.048562-168.158466-68.048562s-123.338019 24.209585-168.158467 68.048562c-44.493291 43.511821-69.030032 101.41853-69.030031 162.923962 0 55.289457 20.283706 108.615974 56.925239 150.492013 2.617252 2.944409 6.215974 9.48754 2.944409 20.283706-1.635783 4.580192-4.253035 10.141853-8.178914 16.357827-6.870288 10.796166-17.012141 23.555272-26.826837 35.987221-7.197444 9.160383-14.067732 17.99361-19.629393 25.845367-1.962939 2.944409-3.598722 5.561661-4.907348 7.197444 35.98722-1.635783 71.974441-14.722045 101.41853-25.191054 27.48115-9.814696 45.801917-16.357827 57.90671-12.431949 3.598722 1.308626 7.524601 2.290096 11.123322 3.598722l284.299042-313.743131c-11.777636-26.172524-28.46262-50.382109-49.727796-71.320128z m-273.502875 89.640895c-18.97508 0-34.024281-16.030671-34.024281-35.660064s15.376358-35.660064 34.024281-35.660064 34.024281 16.030671 34.024281 35.660064c0.327157 19.629393-15.049201 35.660064-34.024281 35.660064z m273.502875 241.76869c35.660064-33.042812 58.561022-74.91885 66.41278-120.066454l-169.139936 176.337381c38.277316-10.141853 73.610224-29.444089 102.727156-56.270927z m57.252397-241.76869l-296.403834 302.619808c15.376358 2.290096 30.752716 3.598722 46.783386 3.598722 11.123323 0 22.246645-0.654313 33.042812-1.962939l228.355271-233.26262v-0.654313c0-24.209585-4.253035-48.092013-11.777635-70.338658z" fill="#FFFFFF" p-id="11174"></path><path d="M295.857482 834.357163c128.899681 0 233.26262-93.239617 233.26262-208.398722 0-27.808307-17.666454 37.295847-55.289457 37.295847-37.95016 0-26.826837-37.295847-75.573163-31.407029-29.771246 3.598722-35.98722 49.727796-62.814057 52.672204-28.789776 3.271565-34.024281-41.548882-64.776997-41.548882-39.258786 0-52.345048 40.894569-70.665815 44.820448-33.369968 7.197444-54.635144-17.666454-63.795527-24.536741-40.567412-29.771246-64.122684 0.98147-63.141214 4.253035 10.46901 40.240256 22.246645 73.93738 53.653674 102.4 5.561661 5.234505-73.283067 87.023642-66.739936 91.603834 27.48115 19.629393 95.529712-12.759105 157.035144-27.481151 29.116933-6.870288 61.178275 0.327157 78.844728 0.327157z" fill="#FFD6D6" p-id="11175"></path><path d="M526.50285 533.045981c-12.759105-27.48115-30.752716-52.345048-53.653674-73.610224-46.783387-43.511821-109.270288-67.394249-175.355911-67.394249s-128.572524 23.882428-175.35591 67.394249c-22.900958 21.265176-40.894569 45.801917-53.653674 73.610224-13.086262 28.789776-19.629393 59.215335-19.629393 90.295207 0 54.635144 20.938019 107.634505 58.561022 149.183387-0.654313 1.962939-2.944409 6.215974-8.50607 14.067732-5.888818 8.178914-13.740575 17.339297-21.265176 26.49968-24.209585 29.116933-35.98722 43.838978-30.425559 55.616614 1.308626 3.271565 5.234505 8.50607 14.394888 8.50607 40.240256 0 79.826198-13.413419 111.560383-24.209585 11.450479-3.925879 21.592332-7.197444 29.771246-9.48754 10.141853-2.617252 13.740575-1.962939 14.394889-1.635782 25.845367 8.178914 52.999361 12.431949 80.480511 12.431948 66.085623 0 128.572524-23.882428 175.35591-67.394249 22.900958-21.265176 40.894569-45.801917 53.653674-73.610223 13.086262-28.789776 19.629393-59.215335 19.629393-90.295208-0.327157-31.079872-6.870288-61.505431-19.956549-89.968051z m-303.928435 289.533546c-11.777636-3.598722-29.444089 2.290096-55.94377 11.123323-28.46262 9.48754-63.468371 21.592332-98.146964 22.900958 0.98147-1.635783 2.617252-3.925879 4.580191-6.543131 5.234505-6.870288 11.777636-15.049201 18.97508-23.555271 9.48754-11.123323 18.97508-22.900958 25.845367-32.715655 3.925879-5.888818 6.543131-10.796166 7.851758-15.049201 3.271565-10.141853-0.327157-16.030671-2.617253-18.647924-35.660064-37.95016-54.9623-86.696486-54.9623-137.078594 0-55.94377 23.555272-108.943131 66.739936-148.529074 43.184665-39.913099 101.091374-62.159744 162.269649-62.159744s119.084984 21.919489 162.269648 62.159744c20.610863 18.97508 36.96869 41.221725 48.092013 65.104154l-274.484345 285.607668c-3.271565-0.654313-6.870288-1.635783-10.46901-2.617253z m237.188499-50.709265c-28.135463 25.845367-62.159744 44.493291-99.455591 53.980831l163.578274-170.121406c-7.524601 43.838978-29.444089 84.079233-64.122683 116.140575z m-133.479872 60.523962c-9.48754 0.98147-19.302236 1.635783-29.116933 1.635782-13.740575 0-27.48115-1.308626-40.894569-3.271565l259.435144-270.23131c6.870288 19.95655 10.46901 41.221725 10.469009 62.814057v0.654314l-199.892651 208.398722z" fill="#453C35" p-id="11176"></path><path d="M61.286236 881.467706c-12.104792 0-17.012141-7.524601-18.320766-11.123323-6.215974-14.394888 5.888818-29.444089 31.079872-60.196805 7.524601-9.160383 15.376358-18.647923 21.265176-26.49968 3.925879-5.234505 5.888818-8.833227 6.870287-10.796166-37.295847-41.548882-57.579553-94.875399-57.579553-149.510544 0-32.061342 6.870288-63.141214 20.283706-92.258146 12.759105-28.135463 31.079872-53.326518 54.635144-74.91885 47.764856-44.166134 110.90607-68.375719 178.30032-68.375719s130.535463 24.209585 178.300319 68.375719c23.228115 21.592332 41.548882 46.783387 54.635144 74.91885 13.413419 29.116933 19.95655 60.196805 19.95655 92.258146s-6.870288 63.141214-20.283707 92.258147c-12.759105 28.135463-31.079872 53.326518-54.635143 74.91885-47.764856 44.166134-110.90607 68.375719-178.30032 68.375719-27.808307 0-55.289457-4.253035-81.789137-12.431949 0 0-2.944409-0.327157-12.104793 1.96294-7.524601 1.962939-16.357827 4.907348-26.49968 8.178913l-2.944409 0.98147c-32.388498 10.46901-71.974441 23.882428-112.86901 23.882428z m236.207029-485.173163c-65.104153 0-126.609585 23.555272-172.738658 66.085623-22.573802 20.938019-40.240256 45.147604-52.672204 72.301598-12.759105 28.135463-19.302236 57.906709-19.302237 88.659424 0 53.653674 20.610863 105.671565 57.579553 146.238978l1.635783 1.962939-0.98147 2.290096c-0.98147 2.290096-3.271565 6.870288-9.160383 15.049202-5.888818 8.178914-13.740575 17.666454-21.265176 26.49968-22.900958 27.48115-34.351438 41.876038-30.098403 51.690735 1.308626 2.617252 3.925879 5.888818 10.796166 5.888818 39.258786 0 78.517572-13.086262 109.597445-23.882428l3.271565-0.98147c10.46901-3.598722 19.629393-6.543131 27.153994-8.50607 7.851757-1.962939 13.413419-2.617252 16.357827-1.635783 25.518211 8.178914 52.345048 12.104792 79.499042 12.104792 65.104153 0 126.609585-23.555272 172.738658-66.085623 22.573802-20.938019 40.240256-45.147604 52.672204-72.301597 12.759105-28.135463 19.302236-57.906709 19.302237-88.659425 0-30.752716-6.543131-60.523962-19.302237-88.659425-12.431949-27.153994-30.098403-51.363578-52.672204-72.301597-46.129073-42.203195-107.307348-65.758466-172.411502-65.758467z m-236.207029 464.889457l4.253036-6.543131c1.308626-1.962939 2.617252-4.253035 4.907348-6.870288 5.234505-7.197444 12.104792-15.376358 18.97508-23.555271l0.654313-0.98147c9.160383-10.796166 18.320767-22.246645 24.863898-31.407028 3.925879-5.561661 6.215974-10.141853 7.5246-14.067732 2.617252-7.524601 0.327157-12.104792-1.962939-14.394888-35.98722-38.604473-55.94377-88.332268-55.94377-139.695847 0-57.252396 24.209585-110.90607 68.048562-151.473482 44.166134-40.894569 102.727157-63.141214 165.214058-63.141214s121.047923 22.573802 165.214057 63.141214c20.938019 19.302236 37.295847 41.876038 49.073483 66.412779l1.308626 2.617253-278.083067 289.533546-2.290096-0.654313-10.796166-2.944409c-10.46901-3.271565-28.46262 2.944409-53.326518 11.123323-28.46262 9.814696-63.795527 21.592332-99.128434 23.228115l-8.506071-0.327157z m236.207029-444.278594c-60.523962 0-117.122045 21.592332-159.652396 61.178275-42.203195 38.931629-65.43131 90.622364-65.43131 145.584664 0 49.400639 18.97508 96.838339 53.980831 134.134185 2.944409 3.271565 7.524601 10.796166 3.598722 22.573802-1.635783 4.580192-4.253035 9.814696-8.50607 16.030671-6.543131 9.814696-16.030671 21.265176-25.191055 32.061342l-0.654313 0.98147c-6.870288 8.178914-13.413419 16.030671-18.320767 22.900958 31.407029-2.944409 62.814058-13.413419 88.332269-22.246645 27.48115-9.160383 45.47476-15.376358 58.561022-11.450479 2.617252 0.98147 5.561661 1.635783 8.178914 2.290095l270.885623-282.008945c-11.123323-22.573802-26.499681-43.184665-45.801917-61.178275-42.857508-39.258786-99.455591-60.851118-159.979553-60.851118z m0 421.377636c-13.740575 0-27.808307-1.308626-41.548882-3.271566l-7.851757-1.308626 269.576997-280.70032 2.290096 6.543131c6.870288 20.610863 10.46901 42.203195 10.469009 64.449841v1.635782l-0.981469 1.96294-201.201278 209.380191-1.635783 0.327157c-9.160383 0.327157-19.302236 0.98147-29.116933 0.98147z m-32.388498-10.46901c19.95655 2.617252 40.240256 2.617252 59.215335 0.654313l197.929713-206.108626c0-18.647923-2.944409-36.641534-8.178914-53.980831l-248.966134 259.435144z m82.116294 5.888818l182.880511-190.405112-2.290096 13.086262c-7.524601 45.147604-30.098403 86.042173-65.104153 118.430671-28.135463 26.172524-63.141214 45.147604-101.091374 54.9623l-14.394888 3.925879z m169.794249-164.886901l-142.640256 148.529073c30.752716-10.141853 59.215335-26.826837 82.770607-48.746326 30.098403-27.48115 50.382109-61.832588 59.869649-99.782747z" fill="#453C35" p-id="11177"></path><path d="M163.031923 503.929048c0 18.97508 14.722045 34.351438 33.042812 34.351438s33.042812-15.376358 33.042811-34.351438c0-12.104792-6.215974-23.555272-16.357827-29.771246-10.141853-6.215974-22.900958-6.215974-33.042812 0s-16.684984 17.666454-16.684984 29.771246z" fill="#FFFCC4" p-id="11178"></path></svg>