<?xml version="1.0" standalone="no"?><!DOCTYPE svg PUBLIC "-//W3C//DTD SVG 1.1//EN" "http://www.w3.org/Graphics/SVG/1.1/DTD/svg11.dtd"><svg t="1712240965651" class="icon" viewBox="0 0 1024 1024" version="1.1" xmlns="http://www.w3.org/2000/svg" p-id="15484" xmlns:xlink="http://www.w3.org/1999/xlink" width="256" height="256"><path d="M 100.143 870.587 l 83.4035 -163.452 l 73.4243 -144.79 l 15.191 -31.3469 c 4.14541 0.171915 8.61931 0.257873 13.436 0.257873 c 4.97225 0 9.44512 -0.085958 13.4196 -0.257873 l 48.2202 136.844 l 73.323 202.745 c -4.31938 -0.153496 -8.06877 -0.2415 -11.2175 -0.2415 c -3.337 0 -7.07105 0.088004 -11.2349 0.2415 c -4.64479 -15.9145 -13.349 -42.2513 -26.1148 -78.9818 s -22.7952 -64.4806 -30.0893 -83.2142 H 201.266 l -78.2584 162.196 c -4.14746 -0.153496 -7.94802 -0.2415 -11.4242 -0.2415 c -3.47412 0 -7.2931 0.088004 -11.4406 0.2415 Z m 109.037 -178.367 h 127.462 l -53.0052 -134.09 l -74.4568 134.09 Z" fill="#231815" p-id="15485"></path><path d="M 66.0713 892.331 l 99.2454 -194.497 l 73.3189 -144.582 l 20.9635 -43.2572 l 13.4104 0.555655 c 3.84559 0.159636 8.08105 0.240477 12.5887 0.240477 l 0.91586 -0.001023 l 0.243546 -0.438998 l 0.172939 0.437975 c 4.13006 -0.014326 7.89378 -0.093121 11.2042 -0.236384 l 15.148 -0.654916 l 53.2324 151.067 l 83.598 231.155 l -30.2786 -1.07857 c -4.32244 -0.153496 -7.75257 -0.229221 -10.4889 -0.22922 c -2.9021 0 -6.33017 0.074701 -10.4787 0.228197 l -15.9339 0.588401 l -4.46775 -15.3066 c -4.54553 -15.5757 -13.2262 -41.8174 -25.7996 -77.9974 c -9.94961 -28.628 -18.2793 -51.9082 -24.8571 -69.4671 H 214.116 l -78.4917 162.678 l -13.3756 -0.49528 c -4.13006 -0.152473 -7.61852 -0.228197 -10.6649 -0.228197 c -3.05866 0 -6.55223 0.074701 -10.6813 0.228197 l -34.8313 1.29141 Z m 177.883 -220.578 h 62.5905 l -26.0288 -65.8457 l -36.5617 65.8457 Z" fill="#d81e06" p-id="15486"></path><path d="M 716.284 870.587 l 5.24854 -81.8543 l 7.22556 -213.449 c 0.171915 -8.11994 0.25685 -16.0854 0.25685 -23.8799 l -0.25685 -20.4037 l 51.4897 0.257873 l 53.9876 -0.257873 c 17.08 0 29.9665 0.757247 38.6718 2.23797 c 8.70424 1.49607 16.6707 4.16179 23.8778 7.96439 c 7.20919 3.81898 13.6448 8.96416 19.2689 15.4315 c 5.64456 6.46934 9.9097 14.1769 12.8159 23.141 c 2.90721 8.94574 4.35315 18.3223 4.35315 28.1112 c 0 8.12198 -0.946558 15.9677 -2.85605 23.5023 c -1.90949 7.55302 -4.93745 14.7274 -9.08491 21.5222 c -4.14541 6.79578 -8.99486 12.8169 -14.5535 18.0296 c -5.55655 5.22909 -10.9402 9.34074 -16.1723 12.3175 c -5.2117 2.99317 -12.0576 6.22682 -20.5234 9.70299 c 8.46479 2.64934 15.2247 5.05616 20.283 7.22454 c 5.05718 2.14997 10.1492 4.88526 15.2943 8.20691 a 69.9194 69.9194 0 0 1 13.8146 11.681 c 4.05843 4.49027 7.50083 9.49628 10.3221 15.0539 c 2.82023 5.55553 5.05718 11.8704 6.70982 18.9076 c 1.65059 7.05263 2.49482 14.3989 2.49482 22.0205 c 0 15.4315 -3.11494 29.4855 -9.32539 42.1653 c -6.22682 12.6972 -15.5154 23.3447 -27.8687 31.965 c -12.3513 8.63466 -25.5479 14.1759 -39.5518 16.6707 c -14.0213 2.4938 -29.4845 3.732 -46.3977 3.732 l -60.2124 -0.2415 l -39.3113 0.240477 Z m 22.2467 -15.673 h 72.2035 c 22.742 0 39.2581 -1.32518 49.5464 -3.9735 c 10.2863 -2.65036 20.0936 -7.01783 29.3822 -13.0738 c 9.2906 -6.03751 16.7218 -14.9157 22.2784 -26.6152 c 5.57702 -11.68 8.34404 -23.9986 8.34404 -36.9362 c 0 -12.4362 -2.56236 -23.5166 -7.7055 -33.2206 c -5.16156 -9.70299 -12.2838 -17.65 -21.4209 -23.8789 c -9.13608 -6.21044 -18.922 -10.2351 -29.3812 -12.0586 c -10.4623 -1.82353 -22.831 -2.73632 -37.1092 -2.73632 h -80.9098 l -5.22807 152.493 Z m 6.03648 -168.165 h 49.0297 c 25.7198 0 42.8888 -0.669242 51.5265 -1.99545 c 11.1131 -1.82251 21.7442 -5.31505 31.8627 -10.4756 c 6.79373 -3.64809 13.1065 -8.87821 18.9209 -15.6914 c 5.79908 -6.81113 10.3579 -14.8287 13.6775 -24.0508 c 3.32063 -9.22101 4.98862 -18.8217 4.98862 -28.7825 c 0 -9.63545 -1.61682 -18.1494 -4.85149 -25.5489 c -3.23262 -7.39748 -7.96439 -13.7481 -14.1912 -19.0621 c -6.21044 -5.3171 -13.4196 -9.15245 -21.6429 -11.4764 c -8.20487 -2.32291 -21.0218 -3.49152 -38.4344 -3.49152 h -85.8278 l -5.0582 140.575 Z" fill="#231815" p-id="15487"></path><path d="M 694.455 891.188 l 6.63307 -103.457 l 7.21022 -213.007 c 0.164752 -7.81806 0.248663 -15.6187 0.249686 -23.1891 l -0.517792 -41.1052 l 72.2219 0.36225 l 53.8842 -0.256849 c 18.4267 0 32.1983 0.825808 42.2001 2.52654 c 10.8061 1.8573 20.8857 5.23319 29.9972 10.0407 c 9.46047 5.01215 17.916 11.7701 25.1621 20.1028 c 7.41488 8.5006 13.0891 18.6886 16.8405 30.2571 c 3.54985 10.9238 5.35087 22.5097 5.35087 34.425 c 0 9.81248 -1.17271 19.4111 -3.48333 28.5308 c -2.4017 9.49833 -6.25547 18.6395 -11.4528 27.1555 c -5.1022 8.3645 -11.1673 15.8674 -18.0235 22.2968 a 132.273 132.273 0 0 1 -5.1503 4.60488 c 0.3776 0.237407 0.754177 0.478907 1.13075 0.721431 a 90.8246 90.8246 0 0 1 17.8434 15.0897 a 89.7388 89.7388 0 0 1 13.4462 19.5779 c 3.54166 6.9769 6.36292 14.8819 8.38395 23.4941 c 2.01591 8.60907 3.03615 17.5876 3.03615 26.697 c 0 18.4932 -3.83945 35.7093 -11.4119 51.1684 c -7.74131 15.7865 -19.3599 29.156 -34.5376 39.7462 c -14.6947 10.274 -30.7401 17.0186 -47.6738 20.0353 c -15.1142 2.68823 -31.9302 4.05025 -49.9875 4.05025 h -0.081865 l -60.1049 -0.241501 l -61.1651 0.37453 Z m 65.2552 -56.7403 h 51.0231 c 26.0503 0 38.5479 -1.81023 44.4453 -3.32677 c 8.06979 -2.07936 15.9134 -5.57804 23.3058 -10.3988 c 6.14086 -3.98987 11.0282 -9.95575 14.9679 -18.2507 c 4.28868 -8.98258 6.36599 -18.1801 6.36599 -28.1563 c 0 -9.14733 -1.74064 -16.8784 -5.32222 -23.6353 c -3.60102 -6.76815 -8.46684 -12.1917 -14.8656 -16.554 c -6.75791 -4.59362 -13.7543 -7.48037 -21.3687 -8.80657 c -9.25683 -1.61375 -20.5603 -2.4324 -33.5931 -2.4324 h -61.1333 l -3.82512 111.561 Z m 6.07332 -168.165 h 27.8145 c 30.3666 0 43.0403 -0.944512 48.3236 -1.74371 a 88.4034 88.4034 0 0 0 25.5581 -8.38702 c 4.46264 -2.43035 8.7902 -6.08048 12.8609 -10.8511 c 4.15462 -4.88015 7.5213 -10.8399 9.98952 -17.6971 c 2.5071 -6.9636 3.77805 -14.314 3.77805 -21.8507 c 0 -6.75075 -1.05503 -12.5877 -3.13746 -17.3502 c -1.99135 -4.55781 -4.84536 -8.3819 -8.72471 -11.6933 c -4.01443 -3.43626 -8.55996 -5.83387 -13.9211 -7.34938 c -3.5959 -1.01717 -12.6337 -2.71995 -32.8696 -2.71995 h -66.0851 l -3.58669 99.6424 Z" fill="#0e932e" p-id="15488"></path><path d="M 555.813 531.807 l -21.3411 -34.9285 c 105.816 -64.6586 202.999 -124.005 202.999 -124.005 c 7.57144 -4.6366 9.77155 -14.9311 4.88322 -22.9364 c 0 0 -54.1667 -88.6848 -122.227 -200.094 l 34.9306 -21.339 a 2.71338e+006 2.71338e+006 0 0 1 122.229 200.098 c 16.639 27.2455 8.35632 62.7696 -18.4615 79.1916 c -0.022513 0.013303 -97.1998 59.3579 -203.013 124.013 Z" fill="#707070" p-id="15489"></path><path d="M 759.966 395.227 c -216.305 -116.139 -351.624 -112.648 -427.054 -89.265 c -78.3085 24.2738 -107.823 73.0641 -108.112 73.5542 l -35.257 -20.7926 c 1.50835 -2.55724 38.0035 -62.9538 131.25 -91.8581 c 53.4043 -16.554 114.781 -19.4909 182.432 -8.73085 c 82.9185 13.1894 175.814 47.1806 276.104 101.03 l -19.363 36.0623 Z" fill="#707070" p-id="15490"></path></svg>