<?xml version="1.0" standalone="no"?><!DOCTYPE svg PUBLIC "-//W3C//DTD SVG 1.1//EN" "http://www.w3.org/Graphics/SVG/1.1/DTD/svg11.dtd"><svg t="1712433839836" class="icon" viewBox="0 0 1024 1024" version="1.1" xmlns="http://www.w3.org/2000/svg" p-id="21254" xmlns:xlink="http://www.w3.org/1999/xlink" width="256" height="256"><path d="M963.75 1019.531H210.116c-30.626 0-55.474-24.848-55.474-55.474V210.424c0-30.626 24.848-55.474 55.474-55.474H963.75c30.626 0 55.474 24.847 55.474 55.474v753.634c0 30.51-24.848 55.473-55.474 55.473z m-721.274-87.834h688.915V242.783H242.476v688.914z" p-id="21255" fill="#4a6288"></path><path d="M47.393 870.445c-24.27 0-43.917-19.646-43.917-43.917V59.142c0-30.626 24.848-55.474 55.474-55.474h767.388c24.27 0 43.916 19.647 43.916 43.917 0 24.27-19.646 43.917-43.916 43.917H91.31v735.026c0 24.271-19.763 43.917-43.917 43.917zM466.735 766.991h72.261v117.255h-72.261V766.991z" p-id="21256" fill="#4a6288"></path><path d="M865.593 287.384H297.02c-7.525 0-13.625 6.102-13.625 13.626v492.274l91.11 89.924h41.609V709.484h274.051V883.13h-0.427v0.077h175.854c7.524 0 13.626-6.101 13.626-13.625V301.01c0.001-7.526-6.098-13.626-13.625-13.626zM784.119 587.23H378.495V319.997h405.624v267.235-0.002z" p-id="21257" fill="#4a6288"></path><path d="M466.735 883.132h72.261v3.964h-72.261v-3.964z" p-id="21258" fill="#4a6288"></path></svg>