<?xml version="1.0" standalone="no"?><!DOCTYPE svg PUBLIC "-//W3C//DTD SVG 1.1//EN" "http://www.w3.org/Graphics/SVG/1.1/DTD/svg11.dtd"><svg t="1710778661302" class="icon" viewBox="0 0 1024 1024" version="1.1" xmlns="http://www.w3.org/2000/svg" p-id="12408" xmlns:xlink="http://www.w3.org/1999/xlink" width="256" height="256"><path d="M682.30144 578.59072l7.92576-13.39904c28.96384-48.9728 44.45696-104.832 44.45696-163.00032 0-177.33632-144-321.09568-321.6384-321.09568s-321.6384 143.75936-321.6384 321.09568c0 177.33632 144 321.09568 321.6384 321.09568 54.51776 0 107.02336-13.53728 153.8048-39.0144l13.2096-7.1936 37.0432 36.98176a20.12672 20.12672 0 0 0 28.43136 0l72.01792-71.90016a20.0448 20.0448 0 0 0 0-28.38016l-35.2512-35.18976z m63.68256 6.8096c23.552 23.51104 23.552 61.62944 0 85.1456l-72.02304 71.89504c-23.552 23.51104-61.73184 23.51104-85.28384 0l-16.00512-15.9744c-49.18784 24.17664-103.5008 36.96128-159.62624 36.96128C213.20192 763.42784 51.2 601.69728 51.2 402.19136 51.2 202.69056 213.20192 40.96 413.04576 40.96c199.84384 0 361.84576 161.73056 361.84576 361.23136 0 60.06272-14.72 118.016-42.37312 169.76896l13.4656 13.44zM188.50816 442.23488a20.05504 20.05504 0 0 1 10.38336-26.4192 20.11648 20.11648 0 0 1 26.46528 10.368 160.82432 160.82432 0 0 0 32.46592 48.08192 20.0448 20.0448 0 0 1-0.32256 28.38016 20.12672 20.12672 0 0 1-28.43136-0.32256 200.96 200.96 0 0 1-40.56064-60.08832zM372.8384 161.37216a20.08576 20.08576 0 0 1 20.10624 20.0704 20.08576 20.08576 0 0 1-20.10624 20.06528 160.26112 160.26112 0 0 0-106.26048 40.0384c-34.4576 30.3104-54.55872 73.76384-54.55872 120.50944a20.08576 20.08576 0 0 1-20.10112 20.0704 20.08576 20.08576 0 0 1-20.10112-20.0704c0-58.3936 25.14944-112.77312 68.18304-150.62528a200.4992 200.4992 0 0 1 132.8384-50.05824z m359.26016 633.01632l137.74848 137.51808a20.12672 20.12672 0 0 0 28.43136 0l28.42624-28.38016a20.0448 20.0448 0 0 0 0-28.38528l-137.74848-137.51296-56.8576 56.76032z m71.07584-99.328l151.9616 151.7056c23.552 23.50592 23.552 61.62944 0 85.14048l-28.43136 28.38016c-23.552 23.51104-61.73184 23.51104-85.28384 0l-151.9616-151.7056a20.0448 20.0448 0 0 1 0-28.38016l85.28384-85.1456a20.12672 20.12672 0 0 1 28.43136 0z" fill="#80abd5" p-id="12409" data-spm-anchor-id="a313x.search_index.0.i17.407a3a81n6yQ1z" class="selected"></path></svg>