<?xml version="1.0" standalone="no"?><!DOCTYPE svg PUBLIC "-//W3C//DTD SVG 1.1//EN" "http://www.w3.org/Graphics/SVG/1.1/DTD/svg11.dtd"><svg t="1710780364387" class="icon" viewBox="0 0 1024 1024" version="1.1" xmlns="http://www.w3.org/2000/svg" p-id="17112" xmlns:xlink="http://www.w3.org/1999/xlink" width="256" height="256"><path d="M0 0m125.582536 0l772.834928 0q125.582536 0 125.582536 125.582536l0 772.834928q0 125.582536-125.582536 125.582536l-772.834928 0q-125.582536 0-125.582536-125.582536l0-772.834928q0-125.582536 125.582536-125.582536Z" fill="#cdcdcd" p-id="17113" data-spm-anchor-id="a313x.search_index.0.i37.407a3a81n6yQ1z" class="selected"></path><path d="M883.221977 491.153299a29.888644 29.888644 0 0 0-30.014226-29.888644H828.844739a318.979642 318.979642 0 0 0-17.83272-66.433161l20.595536-12.558254a29.888644 29.888644 0 0 0 10.800098-40.939907l-19.590876-33.781702a29.888644 29.888644 0 0 0-40.939907-10.800098l-20.469953 11.930341a323.249448 323.249448 0 0 0-48.851607-48.600442l11.679176-20.469953a29.888644 29.888644 0 0 0-11.051263-40.814324l-33.907285-19.465293a29.888644 29.888644 0 0 0-40.814324 11.051263l-11.679176 20.469953a318.979642 318.979642 0 0 0-66.684327-17.455972v-22.981604a29.888644 29.888644 0 0 0-30.014226-29.888644h-38.930586a29.888644 29.888644 0 0 0-29.888644 30.014226v23.735099a318.979642 318.979642 0 0 0-66.558744 17.958303l-11.930341-20.469953a29.888644 29.888644 0 0 0-40.939907-10.800098L308.305126 200.932058a29.888644 29.888644 0 0 0-10.800098 40.939907l11.804759 20.344371a323.249448 323.249448 0 0 0-48.474859 48.977189l-20.469954-11.679176a29.888644 29.888644 0 0 0-40.814324 11.051263l-19.465293 33.907285a29.888644 29.888644 0 0 0 11.051263 40.814324l20.721119 11.804758a318.979642 318.979642 0 0 0-17.455973 66.558745h-23.986264a29.888644 29.888644 0 0 0-29.888644 30.014226v39.056168a29.888644 29.888644 0 0 0 30.265391 29.888644h24.111847a318.979642 318.979642 0 0 0 17.958303 66.307579l-20.721119 12.558254a29.888644 29.888644 0 0 0-10.800098 40.939907L200.932058 715.820456a29.888644 29.888644 0 0 0 40.939907 10.800098l20.721118-12.558253a323.249448 323.249448 0 0 0 48.851607 48.349276l-12.558254 20.846701a29.888644 29.888644 0 0 0 11.051263 40.814324l33.907285 19.465294a29.888644 29.888644 0 0 0 40.814324-11.051264l12.558254-21.097866A318.979642 318.979642 0 0 0 463.650724 828.844739v25.116507a29.888644 29.888644 0 0 0 30.014226 29.888644h39.056168a29.888644 29.888644 0 0 0 29.888644-30.014227V828.844739a318.979642 318.979642 0 0 0 66.181997-17.83272l12.558253 20.972283a29.888644 29.888644 0 0 0 40.939907 10.800098L715.820456 823.067942a29.888644 29.888644 0 0 0 10.800098-40.939907l-12.558253-20.846701a323.249448 323.249448 0 0 0 48.474859-48.726024l20.846701 12.558254a29.888644 29.888644 0 0 0 40.814324-11.051263l19.465293-33.907285a29.888644 29.888644 0 0 0-11.051263-40.814324l-20.846701-12.558254A318.979642 318.979642 0 0 0 828.844739 560.349276h25.116507a29.888644 29.888644 0 0 0 29.888644-30.014226z" fill="#FFFFFF" p-id="17114"></path><path d="M889.501104 490.776551a30.390974 30.390974 0 0 0-30.516557-30.390973h-24.363012A324.379691 324.379691 0 0 0 816.286485 392.947756l20.972284-12.558254a30.390974 30.390974 0 0 0 11.051263-41.316654L828.844739 304.788815a30.390974 30.390974 0 0 0-41.693402-11.051263l-20.721119 12.558254a328.649497 328.649497 0 0 0-50.233014-49.47952l12.181506-21.097866a30.390974 30.390974 0 0 0-11.302428-41.567819l-34.409615-19.716458a30.390974 30.390974 0 0 0-41.56782 11.302428l-12.558253 20.846701A324.379691 324.379691 0 0 0 561.102772 188.373804v-23.735099a30.390974 30.390974 0 0 0-30.516557-30.390974h-39.809664a30.390974 30.390974 0 0 0-30.390973 30.516556v24.111847a324.379691 324.379691 0 0 0-67.688987 18.335051l-12.558254-20.721119A30.390974 30.390974 0 0 0 339.072848 175.815551l-34.284033 19.967623a30.390974 30.390974 0 0 0-11.051263 41.693402l12.558254 20.721118a328.649497 328.649497 0 0 0-49.353937 50.233015l-20.846701-12.558254a30.390974 30.390974 0 0 0-41.567819 11.302428l-20.093206 34.409615a30.390974 30.390974 0 0 0 11.302428 41.56782l20.972284 12.558253a324.379691 324.379691 0 0 0-17.707138 67.688987h-24.363012a30.390974 30.390974 0 0 0-30.390974 30.516557v39.684081a30.390974 30.390974 0 0 0 30.516556 30.390974h25.116508a324.379691 324.379691 0 0 0 18.209467 67.437822l-21.097866 12.558254a30.390974 30.390974 0 0 0-11.176845 40.814324l19.967623 34.284032a30.390974 30.390974 0 0 0 41.693402 11.051263l21.097866-12.558253a328.649497 328.649497 0 0 0 50.233014 49.228354l-12.558253 21.223449a30.390974 30.390974 0 0 0 11.302428 41.567819l34.409615 19.716458a30.390974 30.390974 0 0 0 41.567819-11.302428l12.558254-21.349031a324.379691 324.379691 0 0 0 67.437822 17.707137v25.116508a30.390974 30.390974 0 0 0 30.516556 30.390973h39.684082a30.390974 30.390974 0 0 0 30.390974-30.516556v-25.116507A324.379691 324.379691 0 0 0 630.801079 816.286485l12.558254 21.349031a30.390974 30.390974 0 0 0 41.693402 11.051263L719.085602 828.844739a30.390974 30.390974 0 0 0 11.051263-41.693402l-12.558253-21.223449A328.649497 328.649497 0 0 0 767.058131 715.820456l21.223449 12.558254a30.390974 30.390974 0 0 0 41.567819-11.302428l19.716458-34.409615a30.390974 30.390974 0 0 0-11.302428-41.56782l-21.223449-12.558253a324.379691 324.379691 0 0 0 17.832721-67.563405h25.116507a30.390974 30.390974 0 0 0 30.390974-30.516556z" fill="#FFFFFF" p-id="17115"></path><path d="M493.288202 895.905813a36.670101 36.670101 0 0 1-36.6701-36.544518v-19.465293a331.663478 331.663478 0 0 1-58.39588-15.321069L388.552367 841.402992a36.795683 36.795683 0 0 1-50.233015 13.562914l-34.409614-19.716458a36.795683 36.795683 0 0 1-13.562914-50.233014l9.544272-16.576895a336.058867 336.058867 0 0 1-42.949227-42.57248l-16.451312 9.669855a36.795683 36.795683 0 0 1-50.233015-13.311748l-19.967623-34.284033a36.670101 36.670101 0 0 1 13.311749-50.233014l16.32573-9.795438a331.914643 331.914643 0 0 1-15.8234-58.395879h-19.214128a36.795683 36.795683 0 0 1-36.795683-36.544518v-39.558499a36.795683 36.795683 0 0 1 36.544518-36.921266h19.088545a332.040226 332.040226 0 0 1 15.32107-58.647044l-16.451312-9.418691a36.795683 36.795683 0 0 1-13.562914-50.233014L188.373804 303.909738a36.795683 36.795683 0 0 1 50.233015-13.562914l16.200147 9.293107a335.556537 335.556537 0 0 1 42.698062-43.200392L288.839833 240.364974a36.795683 36.795683 0 0 1 13.311749-50.233014l34.284032-19.967623a36.795683 36.795683 0 0 1 50.233015 13.311748l9.41869 16.200148a332.165808 332.165808 0 0 1 58.647045-15.8234v-18.83738a36.795683 36.795683 0 0 1 36.544518-36.921266h39.809663a36.670101 36.670101 0 0 1 36.670101 36.544518v18.83738a331.914643 331.914643 0 0 1 58.772627 15.446652l9.293108-16.200147a36.670101 36.670101 0 0 1 50.233014-13.562914l33.907285 19.214128a36.670101 36.670101 0 0 1 13.562914 50.233015l-9.293108 16.200147a336.310032 336.310032 0 0 1 43.07481 42.823645l16.200147-8.790778a36.670101 36.670101 0 0 1 50.233015 13.311749l20.218788 33.907285a36.795683 36.795683 0 0 1-13.311749 50.233014l-16.32573 9.544273a332.542556 332.542556 0 0 1 15.697817 58.521462h18.962963a34.911945 34.911945 0 0 1 25.995585 10.674515 36.418935 36.418935 0 0 1 10.800099 25.870003v39.684081a36.670101 36.670101 0 0 1-36.544518 36.921266H840.147167a331.663478 331.663478 0 0 1-15.446652 58.521462l16.702477 9.41869a36.795683 36.795683 0 0 1 13.562914 50.233015l-19.716458 34.409614a36.670101 36.670101 0 0 1-50.233014 13.562914l-16.576895-9.544272a335.682119 335.682119 0 0 1-42.698062 42.949227l9.669855 16.576895a36.670101 36.670101 0 0 1-13.311749 50.233014L687.941133 853.961246a36.670101 36.670101 0 0 1-50.233014-13.311749L627.912681 823.821437a332.165808 332.165808 0 0 1-58.270297 15.697817v19.465293a36.670101 36.670101 0 0 1-36.544518 36.921266h-39.809664z m-100.466029-86.903115l5.023302 1.883738A319.35639 319.35639 0 0 0 463.776306 828.844739l5.274467 0.753495v30.139809a24.111847 24.111847 0 0 0 24.111847 24.111847h39.809664a24.111847 24.111847 0 0 0 24.111846-24.23743V828.844739l5.274467-0.879078A319.481972 319.481972 0 0 0 627.912681 810.132941l5.023301-2.009321 15.069905 25.995585a24.111847 24.111847 0 0 0 33.028207 8.790778L715.820456 822.94236a24.111847 24.111847 0 0 0 8.790778-33.028207l-15.069905-25.870003 4.144224-3.390728a323.249448 323.249448 0 0 0 48.349277-48.600442l3.390728-4.144224L791.169978 722.727496a24.111847 24.111847 0 0 0 33.028207-8.91636l19.716458-34.409615a24.111847 24.111847 0 0 0-8.91636-33.028207l-25.870002-14.81874 1.883738-5.023301A319.230807 319.230807 0 0 0 828.844739 560.223694l0.753495-5.274467h29.888644a24.237429 24.237429 0 0 0 24.111847-24.237429v-39.935247a24.111847 24.111847 0 0 0-24.111847-24.111847H828.844739v-5.148884a318.728477 318.728477 0 0 0-17.83272-66.181996l-2.009321-5.023302 25.116507-14.944321a24.237429 24.237429 0 0 0 8.790778-33.028207l-19.967623-34.284033a24.111847 24.111847 0 0 0-33.028207-8.665195l-25.116508 14.81874-3.390728-4.144224a322.998283 322.998283 0 0 0-48.726024-48.474859l-4.144224-3.390729 14.567574-25.116507a24.111847 24.111847 0 0 0-8.91636-33.028207l-34.409615-19.716458a24.111847 24.111847 0 0 0-33.028207 8.91636l-14.567574 25.116507-5.023301-1.883738a319.35639 319.35639 0 0 0-66.433162-17.455972l-5.274466-0.753496v-29.637478a24.111847 24.111847 0 0 0-24.111847-24.111847h-40.56316a24.237429 24.237429 0 0 0-24.111847 24.237429v29.511896l-5.274466 0.879078A319.733137 319.733137 0 0 0 395.208241 213.490312l-5.023301 2.00932-14.818739-25.116507a24.111847 24.111847 0 0 0-33.028207-8.790778L308.053961 200.932058a24.237429 24.237429 0 0 0-8.790777 33.028207l14.818739 25.116507-4.144224 3.390729a323.249448 323.249448 0 0 0-48.349276 48.851606l-3.390729 4.144224-25.116507-14.567574a24.237429 24.237429 0 0 0-33.028207 8.91636l-19.716458 34.409615a24.111847 24.111847 0 0 0 8.037282 33.404954l25.116508 14.693157-1.883739 5.023301a318.602894 318.602894 0 0 0-17.33039 66.30758l-0.753495 5.274466h-28.883983a24.237429 24.237429 0 0 0-24.111847 24.23743v39.684081a24.237429 24.237429 0 0 0 24.111847 24.111847h30.014226l0.879078 5.274466A319.105224 319.105224 0 0 0 213.490312 628.540594l2.00932 5.023301-25.74442 15.069904a24.111847 24.111847 0 0 0-8.790777 33.028207L200.932058 715.820456a24.237429 24.237429 0 0 0 33.028207 8.790778l25.74442-14.944322 3.390728 4.144224a322.998283 322.998283 0 0 0 48.726024 48.223694l4.144224 3.390728L301.398087 791.169978a24.237429 24.237429 0 0 0 8.91636 33.028207l34.409615 19.716458a24.111847 24.111847 0 0 0 33.028207-8.91636z" fill="#6A6D76" p-id="17116"></path><path d="M510.241844 513.758156m-251.290654 0a251.290655 251.290655 0 1 0 502.581309 0 251.290655 251.290655 0 1 0-502.581309 0Z" fill="#6A6D76" p-id="17117"></path><path d="M512 673.875889a162.001472 162.001472 0 0 1 0-323.877361 161.875889 161.875889 0 0 1 161.875889 161.373559 162.001472 162.001472 0 0 1-161.373559 162.503802z m0-298.760853a136.884964 136.884964 0 0 0 0 273.644346 136.884964 136.884964 0 0 0 136.759382-137.261712 136.884964 136.884964 0 0 0-136.759382-136.382634z" fill="#FFFFFF" p-id="17118"></path><path d="M512.025939 511.967822m-72.837427 0.254252a72.837871 72.837871 0 1 0 145.674854-0.508503 72.837871 72.837871 0 1 0-145.674854 0.508503Z" fill="#FFFFFF" p-id="17119"></path></svg>