<?xml version="1.0" standalone="no"?><!DOCTYPE svg PUBLIC "-//W3C//DTD SVG 1.1//EN" "http://www.w3.org/Graphics/SVG/1.1/DTD/svg11.dtd"><svg t="1712818204977" class="icon" viewBox="0 0 1033 1024" version="1.1" xmlns="http://www.w3.org/2000/svg" p-id="12522" xmlns:xlink="http://www.w3.org/1999/xlink" width="258.25" height="256"><path d="M219.588446 1023.431481a36.953758 36.953758 0 0 1-35.816719-42.070432c23.309293-154.068744 113.70387-675.969509 289.944869-924.412466 45.481548-62.537129 89.826058-62.537129 119.389064-51.166741 170.555805 67.085283 279.711521 782.851147 272.889288 836.860485v21.603735l-45.481548 8.527791-10.801867-25.014852c-8.52779-13.644464-18.761139-33.542642-30.131526-56.851935-41.501913-77.887151-104.039041-195.570657-157.47986-189.316944s-198.981773 170.555805-371.243137 405.354297a36.385238 36.385238 0 0 1-31.268564 16.487062z m20.466697-33.542642z m-37.522278-15.350023zM563.542653 56.948583c-8.52779 0-23.309293 5.685194-43.20747 33.542642C373.65719 295.158192 285.536691 712.451395 253.699607 906.316494c129.053893-170.555805 280.84856-350.20792 359.30423-359.872749s134.739086 74.476035 183.063231 161.459496C761.387388 493.002926 666.444656 93.902341 569.796366 56.948583a24.446332 24.446332 0 0 0-6.253713 0z m294.493024 765.227047z" p-id="12523" fill="#2aa515"></path><path d="M390.144251 843.210846h-17.6241v-42.638951a1067.110822 1067.110822 0 0 0 170.555806-11.370387 1041.527452 1041.527452 0 0 0 210.920679-56.851935 708.943631 708.943631 0 0 0 66.516764-28.425968c113.70387-56.851935 175.10396-123.937219 166.57617-183.63175s-99.490886-113.70387-235.367011-131.32797l5.685193-42.070432c157.47986 20.466697 259.244824 83.003825 271.75225 167.144689s-56.851935 163.165054-189.885463 227.40774c-22.172255 10.801868-46.050067 20.466697-70.4964 30.131526a1106.338658 1106.338658 0 0 1-219.448469 56.851935 1141.586857 1141.586857 0 0 1-159.185419 14.781503zM236.075507 830.134901C99.062343 805.12005 13.784441 746.562557 1.277015 669.243925c-15.918542-106.881638 118.252025-220.585508 333.720859-284.259676l11.370387 41.501913c-187.611386 56.851935-314.959721 152.931706-303.020814 235.367011 8.52779 56.851935 83.003825 104.039041 199.550292 125.642777z" p-id="12524" fill="#2aa515"></path></svg>