<?xml version="1.0" standalone="no"?><!DOCTYPE svg PUBLIC "-//W3C//DTD SVG 1.1//EN" "http://www.w3.org/Graphics/SVG/1.1/DTD/svg11.dtd"><svg t="1714371163885" class="icon" viewBox="0 0 1024 1024" version="1.1" xmlns="http://www.w3.org/2000/svg" p-id="7550" xmlns:xlink="http://www.w3.org/1999/xlink" width="256" height="256"><path d="M156.84 932.524c0-46.766 37.914-84.68 84.678-84.68 46.764 0 84.678 37.91 84.678 84.68" fill="#80CFF4" p-id="7551"></path><path d="M456 958H124.426C80.08 958 44 922.156 44 878.098V146.14C44 101.952 80.08 66 124.426 66h559.732C727.808 66 762 101.202 762 146.14V544c0 8.286-6.714 15-15 15s-15-6.714-15-15V146.14C732 118.024 710.986 96 684.158 96H124.426C97.092 96 74 118.962 74 146.14v731.958C74 905.148 97.092 928 124.426 928H456c8.284 0 15 6.714 15 15s-6.716 15-15 15z" p-id="7552"></path><path d="M269.592 203.956h-30.136c-24.892 0-45.142-19.606-45.142-43.708V45.436c0-24.1 20.25-43.706 45.142-43.706h30.136c24.89 0 45.14 19.606 45.14 43.706v114.814c0 24.1-20.25 43.706-45.14 43.706z m-30.136-172.226c-8.348 0-15.142 6.148-15.142 13.706v114.814c0 7.558 6.792 13.708 15.142 13.708h30.136c8.348 0 15.14-6.15 15.14-13.708V45.436c0-7.558-6.792-13.706-15.14-13.706h-30.136zM558.506 203.956h-30.14c-24.89 0-45.138-19.604-45.138-43.702v-114.82c0-24.1 20.25-43.706 45.138-43.706h30.14c24.888 0 45.138 19.606 45.138 43.706v114.82c0 24.098-20.25 43.702-45.138 43.702z m-30.14-172.226c-8.348 0-15.138 6.148-15.138 13.706v114.82c0 7.554 6.792 13.702 15.138 13.702h30.14c8.348 0 15.138-6.146 15.138-13.702v-114.82c0-7.558-6.792-13.706-15.138-13.706h-30.14zM651.604 377.5H176.24a15 15 0 0 1 0-30h475.364a15 15 0 0 1 0 30z" p-id="7553"></path><path d="M984 907.418C984 943.086 955.084 972 919.416 972H626.584C590.916 972 562 943.086 562 907.418v-178.836C562 692.914 590.916 664 626.584 664h292.832C955.084 664 984 692.914 984 728.582v178.836z" fill="#80CFF4" p-id="7554"></path><path d="M651.604 529.398H176.24a15 15 0 0 1 0-30h475.364a15 15 0 0 1 15 15 15 15 0 0 1-15 15zM442.778 681.3H176.24c-8.284 0-15-6.714-15-15s6.716-15 15-15h266.54a15 15 0 1 1-0.002 30zM894.414 958H601.586C557.702 958 522 922.298 522 878.418v-178.836c0-43.88 35.702-79.582 79.586-79.582h292.828C938.298 620 974 655.702 974 699.582v178.836c0 43.88-35.702 79.582-79.586 79.582zM601.586 650C574.244 650 552 672.242 552 699.582v178.836c0 27.34 22.244 49.582 49.586 49.582h292.828C921.756 928 944 905.758 944 878.418v-178.836c0-27.34-22.244-49.582-49.586-49.582H601.586zM960 1022H538c-8.286 0-15-6.714-15-15s6.714-15 15-15h422c8.286 0 15 6.714 15 15s-6.714 15-15 15z" p-id="7555"></path><path d="M697.18 232.426h-53.82a6 6 0 1 1 0-12h53.82a6 6 0 1 1 0 12z" fill="#E81F1F" p-id="7556"></path><path d="M670.268 259.336a6 6 0 0 1-6-6v-53.82a6 6 0 1 1 12 0v53.82a6 6 0 0 1-6 6z" fill="#E81F1F" p-id="7557"></path><path d="M145.13 800.098m-17.492 0a17.492 17.492 0 1 0 34.984 0 17.492 17.492 0 1 0-34.984 0Z" fill="#58B530" p-id="7558"></path><path d="M215.104 785.808c-0.96 0-1.922-0.344-2.688-1.04l-17.412-15.816a4 4 0 0 1 5.378-5.922l17.412 15.816a4 4 0 0 1-2.69 6.962z" fill="#36B8F2" p-id="7559"></path><path d="M198.492 786.606a4 4 0 0 1-2.96-6.69l15.814-17.41a4.002 4.002 0 0 1 5.922 5.378l-15.814 17.41a3.99 3.99 0 0 1-2.962 1.312z" fill="#36B8F2" p-id="7560"></path><path d="M876.894 394.946a11.77 11.77 0 0 1-9.7-5.098 11.668 11.668 0 0 1-1.878-8.802 11.68 11.68 0 0 1 4.896-7.556 11.674 11.674 0 0 1 6.66-2.078c3.876 0 7.502 1.906 9.702 5.096 3.676 5.338 2.322 12.678-3.018 16.362a11.704 11.704 0 0 1-6.662 2.076z m-0.02-21.532c-1.98 0-3.89 0.596-5.526 1.724a9.698 9.698 0 0 0-4.064 6.272 9.694 9.694 0 0 0 1.56 7.306 9.766 9.766 0 0 0 13.578 2.51 9.78 9.78 0 0 0 2.504-13.58 9.776 9.776 0 0 0-8.052-4.232z" fill="#F18D00" p-id="7561"></path><path d="M914.016 243.132m-32.292 0a32.292 32.292 0 1 0 64.584 0 32.292 32.292 0 1 0-64.584 0Z" fill="#36B8F2" p-id="7562"></path><path d="M901.734 274.934a38.302 38.302 0 0 1-31.566-16.576 38.046 38.046 0 0 1-6.12-28.664 38.044 38.044 0 0 1 15.942-24.59 38.08 38.08 0 0 1 21.686-6.758c12.62 0 24.42 6.2 31.566 16.582 5.8 8.422 7.972 18.6 6.12 28.658a38.05 38.05 0 0 1-15.94 24.596 38.106 38.106 0 0 1-21.688 6.752z m-0.058-64.59a26.12 26.12 0 0 0-14.878 4.642 26.124 26.124 0 0 0-10.948 16.886 26.114 26.114 0 0 0 4.202 19.68 26.314 26.314 0 0 0 21.684 11.382c5.328 0 10.474-1.604 14.882-4.638a26.12 26.12 0 0 0 10.944-16.886 26.116 26.116 0 0 0-4.202-19.678 26.31 26.31 0 0 0-21.684-11.388zM890.618 340.56a4.002 4.002 0 0 1-3.972-4.536l2.702-19.984a4.012 4.012 0 0 1 4.5-3.428 4.002 4.002 0 0 1 3.43 4.5l-2.702 19.984a4 4 0 0 1-3.958 3.464z" p-id="7563"></path><path d="M901.966 331.918c-0.18 0-0.36-0.012-0.542-0.036l-19.984-2.704a4.002 4.002 0 0 1 1.074-7.928l19.984 2.704a4.002 4.002 0 0 1-0.532 7.964z" p-id="7564"></path><path d="M840.458 579.488c-5.206 2.356-12.074-13.332-17.67-14.484s-18.098 10.566-21.948 6.344c-3.852-4.218 8.95-15.602 8.314-21.278s-15.636-13.95-12.814-18.914c2.818-4.968 17.604 3.688 22.804 1.332 5.202-2.36 8.436-19.182 14.026-18.032 5.6 1.148 1.932 17.878 5.784 22.102 3.85 4.218 20.85 2.09 21.482 7.766 0.634 5.676-16.41 7.364-19.23 12.332-2.824 4.966 4.452 20.472-0.748 22.832z" fill="#F9F493" p-id="7565"></path></svg>