<svg t="1710435502423" class="icon" viewBox="0 0 1024 1024" version="1.1" xmlns="http://www.w3.org/2000/svg" p-id="7290" width="128" height="128"><path d="M548.571429 0a36.571429 36.571429 0 0 1 0 73.142857H73.142857v877.714286h877.714286V475.428571a36.571429 36.571429 0 0 1 73.142857 0V1024H0V0h548.571429z m351.305142 206.116571a36.571429 36.571429 0 0 1 0 51.712L434.468571 723.382857a36.571429 36.571429 0 0 1-46.665142 4.242286l-5.046858-4.242286-155.136-155.136a36.571429 36.571429 0 0 1 51.712-51.712l129.316572 129.243429 439.588571-439.588572a36.571429 36.571429 0 0 1 51.712 0z" fill="#80abd5" p-id="7291" data-spm-anchor-id="a313x.search_index.0.i12.21e43a81ABi8LE" class="selected"></path></svg>
