<svg t="1710609901466" class="icon" viewBox="0 0 1024 1024" version="1.1" xmlns="http://www.w3.org/2000/svg"
     p-id="19170" width="256" height="256">
    <path d="M98.649225 16.619164h734.636904v990.162784h-734.636904z" fill="#FF8A90" p-id="19171"></path>
    <path d="M881.197231 128.411736h-31.940735V32.589531c0-17.642265-14.29847-31.940735-31.940735-31.940735H114.619592c-17.642265 0-31.940735 14.29847-31.940735 31.940735v958.222049c0 17.642265 14.29847 31.940735 31.940735 31.940735h702.696169c17.642265 0 31.940735-14.29847 31.940735-31.940735V415.878351h31.940735c17.642265 0 31.940735-14.29847 31.940735-31.940735V160.352471c0-17.642265-14.29847-31.940735-31.940735-31.940735z m-63.88147 0h-383.288819c-17.642265 0-31.940735 14.29847-31.940735 31.940735V383.937616c0 17.642265 14.29847 31.940735 31.940735 31.940735h383.288819v574.933229H114.619592v-958.222049h702.696169v95.822205z"
          fill="#2B3139" p-id="19172"></path>
    <path d="M434.026942 160.352471h447.170289V383.937616h-447.170289z" fill="#FFFFFF" p-id="19173"></path>
    <path d="M544.808889 215.175748h49.969783l16.294765 67.025636h0.311922l16.294765-67.025636h49.957306v113.963544h-33.18842v-73.101861h-0.336875l-19.80076 73.101861h-26.176431l-19.788283-73.101861h-0.336875v73.101861h-33.200897zM698.947889 215.175748h57.618092c37.992007 0 51.392143 28.097865 51.392143 56.819573 0 34.947656-18.490691 57.143971-58.241934 57.143971h-50.768301v-113.963544z"
          fill="#2B3139" p-id="19174"></path>
    <path d="M726.584111 299.918511h13.712058c21.85944 0 25.065991-17.717126 25.065991-28.409787 0-7.174189-2.233356-27.112194-27.611269-27.112194h-11.154303v55.521981z"
          fill="#FFFFFF" p-id="19175"></path>
    <path d="M630.512369 785.841895l-94.998733-129.709328h57.318647V544.888976h76.445658v111.243591h57.30617L630.487415 785.841895z"
          fill="#1EB9B0" p-id="19176"></path>
    <path d="M508.139428 785.754557l-76.445657 0.087338v-120.439029l-57.331124 77.194268-57.343601-77.194268v120.439029H240.573389V544.976313h76.445657l57.343601 80.288528 57.331124-80.288528 76.445657-0.087337z"
          fill="#1EB9B0" p-id="19177"></path>
</svg>
