<?xml version="1.0" standalone="no"?><!DOCTYPE svg PUBLIC "-//W3C//DTD SVG 1.1//EN" "http://www.w3.org/Graphics/SVG/1.1/DTD/svg11.dtd"><svg height="1024" node-id="1" sillyvg="true" template-height="1024" template-width="1024" version="1.1" viewBox="0 0 1024 1024" width="1024" xmlns="http://www.w3.org/2000/svg" xmlns:xlink="http://www.w3.org/1999/xlink"><defs node-id="37"><linearGradient gradientUnits="userSpaceOnUse" id="SVGID_1_" node-id="4" spreadMethod="pad" x1="512" x2="512" y1="47" y2="977"><stop offset="0" stop-color="#dfebf8"></stop><stop offset="1" stop-color="#bad7f5"></stop></linearGradient><clipPath id="SVGID_3_" node-id="26"><path d="M 977.00 512.00 C 977.00 635.33 928.01 753.60 840.80 840.80 C 753.60 928.01 635.33 977.00 512.00 977.00 C 388.67 977.00 270.40 928.01 183.20 840.80 C 95.99 753.60 47.00 635.33 47.00 512.00 C 47.00 388.67 95.99 270.40 183.20 183.20 C 270.40 95.99 388.67 47.00 512.00 47.00 C 635.33 47.00 753.60 95.99 840.80 183.20 C 928.01 270.40 977.00 388.67 977.00 512.00 Z" fill="#000000" fill-rule="nonzero" node-id="46" stroke="none" target-height="930" target-width="930" target-x="47" target-y="47"></path></clipPath></defs><path d="M 977.00 512.00 C 977.00 635.33 928.01 753.60 840.80 840.80 C 753.60 928.01 635.33 977.00 512.00 977.00 C 388.67 977.00 270.40 928.01 183.20 840.80 C 95.99 753.60 47.00 635.33 47.00 512.00 C 47.00 388.67 95.99 270.40 183.20 183.20 C 270.40 95.99 388.67 47.00 512.00 47.00 C 635.33 47.00 753.60 95.99 840.80 183.20 C 928.01 270.40 977.00 388.67 977.00 512.00 Z" fill="url(#SVGID_1_)" fill-rule="nonzero" node-id="50" stroke="none" target-height="930" target-width="930" target-x="47" target-y="47"></path><g node-id="104"><g node-id="106"><path d="M 245.87 294.09 L 126.52 294.09 C 119.47 294.09 113.75 288.37 113.75 281.32 L 113.75 161.97 C 113.75 154.92 119.47 149.20 126.52 149.20 L 245.87 149.20 C 252.92 149.20 258.64 154.92 258.64 161.97 L 258.64 281.32 C 258.64 288.37 252.92 294.09 245.87 294.09 Z" fill="#82abd7" fill-rule="nonzero" group-id="1,3" node-id="56" stroke="none" target-height="144.89" target-width="144.89001" target-x="113.75" target-y="149.2"></path><path d="M 130.90 166.35 L 241.48 166.35 L 241.48 276.93 L 130.90 276.93 Z" fill="#ffffff" fill-rule="nonzero" group-id="1,3" node-id="58" stroke="none" target-height="110.57999" target-width="110.58" target-x="130.9" target-y="166.35"></path><path d="M 791.94 260.42 L 306.52 260.42 C 299.47 260.42 293.75 254.70 293.75 247.65 L 293.75 195.65 C 293.75 188.60 299.47 182.88 306.52 182.88 L 791.94 182.88 C 798.99 182.88 804.71 188.60 804.71 195.65 L 804.71 247.65 C 804.71 254.70 798.99 260.42 791.94 260.42 Z" fill="#abc6e3" fill-rule="nonzero" group-id="1,3" node-id="60" stroke="none" target-height="77.54001" target-width="510.96002" target-x="293.75" target-y="182.88"></path></g><g node-id="107"><path d="M 245.87 524.03 L 126.52 524.03 C 119.47 524.03 113.75 518.31 113.75 511.26 L 113.75 391.90 C 113.75 384.85 119.47 379.13 126.52 379.13 L 245.87 379.13 C 252.92 379.13 258.64 384.85 258.64 391.90 L 258.64 511.25 C 258.64 518.31 252.92 524.03 245.87 524.03 Z" fill="#82abd7" fill-rule="nonzero" group-id="1,4" node-id="65" stroke="none" target-height="144.90002" target-width="144.89001" target-x="113.75" target-y="379.13"></path><path d="M 130.90 396.29 L 241.48 396.29 L 241.48 506.87 L 130.90 506.87 Z" fill="#ffffff" fill-rule="nonzero" group-id="1,4" node-id="67" stroke="none" target-height="110.57999" target-width="110.58" target-x="130.9" target-y="396.29"></path><path d="M 791.94 490.35 L 306.52 490.35 C 299.47 490.35 293.75 484.63 293.75 477.58 L 293.75 425.58 C 293.75 418.53 299.47 412.81 306.52 412.81 L 791.94 412.81 C 798.99 412.81 804.71 418.53 804.71 425.58 L 804.71 477.58 C 804.71 484.63 798.99 490.35 791.94 490.35 Z" fill="#abc6e3" fill-rule="nonzero" group-id="1,4" node-id="69" stroke="none" target-height="77.54001" target-width="510.96002" target-x="293.75" target-y="412.81"></path></g><g node-id="108"><path d="M 245.87 753.96 L 126.52 753.96 C 119.47 753.96 113.75 748.24 113.75 741.19 L 113.75 621.84 C 113.75 614.79 119.47 609.07 126.52 609.07 L 245.87 609.07 C 252.92 609.07 258.64 614.79 258.64 621.84 L 258.64 741.19 C 258.64 748.25 252.92 753.96 245.87 753.96 Z" fill="#82abd7" fill-rule="nonzero" group-id="1,5" node-id="74" stroke="none" target-height="144.89001" target-width="144.89001" target-x="113.75" target-y="609.07"></path><path d="M 130.90 626.22 L 241.48 626.22 L 241.48 736.80 L 130.90 736.80 Z" fill="#ffffff" fill-rule="nonzero" group-id="1,5" node-id="76" stroke="none" target-height="110.58002" target-width="110.58" target-x="130.9" target-y="626.22"></path><path d="M 791.94 720.29 L 306.52 720.29 C 299.47 720.29 293.75 714.57 293.75 707.52 L 293.75 655.52 C 293.75 648.47 299.47 642.75 306.52 642.75 L 791.94 642.75 C 798.99 642.75 804.71 648.47 804.71 655.52 L 804.71 707.52 C 804.71 714.57 798.99 720.29 791.94 720.29 Z" fill="#abc6e3" fill-rule="nonzero" group-id="1,5" node-id="78" stroke="none" target-height="77.53998" target-width="510.96002" target-x="293.75" target-y="642.75"></path></g><path d="M 347.41 160.16 L 328.91 141.55 C 325.58 138.20 320.18 138.19 316.83 141.51 L 226.35 231.47 L 174.02 178.83 C 170.69 175.48 165.29 175.47 161.94 178.79 L 143.33 197.29 C 139.98 200.62 139.97 206.02 143.29 209.37 L 201.65 268.07 L 220.15 286.68 C 223.48 290.03 228.88 290.04 232.23 286.72 L 250.84 268.22 L 347.38 172.24 C 350.72 168.91 350.74 163.50 347.41 160.16 Z" fill="#3a8be8" fill-rule="nonzero" group-id="1" node-id="81" stroke="none" target-height="151.85" target-width="210.76999" target-x="139.97" target-y="138.19"></path><path d="M 347.41 391.17 L 328.91 372.56 C 325.58 369.21 320.18 369.20 316.83 372.52 L 226.35 462.48 L 174.02 409.84 C 170.69 406.49 165.29 406.48 161.94 409.80 L 143.33 428.30 C 139.98 431.63 139.97 437.03 143.29 440.38 L 201.65 499.08 L 220.15 517.69 C 223.48 521.04 228.88 521.05 232.23 517.73 L 250.84 499.23 L 347.38 403.25 C 350.72 399.93 350.74 394.52 347.41 391.17 Z" fill="#3a8be8" fill-rule="nonzero" group-id="1" node-id="83" stroke="none" target-height="151.84998" target-width="210.76999" target-x="139.97" target-y="369.2"></path></g><g clip-path="url(#SVGID_3_)" group-id="2" node-id="90"><path d="M 1078.32 1015.19 L 621.55 1015.19 C 607.87 1015.19 596.78 1004.10 596.78 990.42 L 596.78 326.16 C 596.78 312.48 607.87 301.39 621.55 301.39 L 1078.32 301.39 C 1092.00 301.39 1103.09 312.48 1103.09 326.16 L 1103.09 990.42 C 1103.10 1004.10 1092.01 1015.19 1078.32 1015.19 Z" fill="#e1edfb" fill-rule="nonzero" group-id="2,6,7" node-id="92" stroke="none" target-height="713.8" target-width="506.31995" target-x="596.78" target-y="301.39"></path><path d="M 561.16 349.39 C 547.48 349.39 536.39 360.48 536.39 374.16 L 536.39 973.87 L 996.76 349.38 L 561.16 349.38 Z" fill="#ffffff" fill-rule="nonzero" group-id="2,6,7" node-id="94" stroke="none" target-height="624.49" target-width="460.37" target-x="536.39" target-y="349.38"></path><path d="M 561.16 1063.19 L 1017.93 1063.19 C 1031.61 1063.19 1042.70 1052.10 1042.70 1038.42 L 1042.70 374.16 C 1042.70 360.48 1031.61 349.39 1017.93 349.39 L 996.75 349.39 L 536.39 973.88 L 536.39 1038.42 C 536.39 1052.10 547.48 1063.19 561.16 1063.19 Z" fill="#ebf3fb" fill-rule="nonzero" group-id="2,6,7" node-id="96" stroke="none" target-height="713.7999" target-width="506.30994" target-x="536.39" target-y="349.39"></path><path d="M 888.65 491.84 L 642.45 491.84 C 629.25 491.84 618.45 481.04 618.45 467.84 L 618.45 467.84 C 618.45 454.64 629.25 443.84 642.45 443.84 L 888.64 443.84 C 901.84 443.84 912.64 454.64 912.64 467.84 L 912.64 467.84 C 912.65 481.04 901.85 491.84 888.65 491.84 Z" fill="#abc6e3" fill-rule="nonzero" group-id="2,6,7" node-id="98" stroke="none" target-height="48" target-width="294.2" target-x="618.45" target-y="443.84"></path><path d="M 771.35 607.97 L 645.94 607.97 C 632.74 607.97 621.94 597.17 621.94 583.97 L 621.94 583.97 C 621.94 570.77 632.74 559.97 645.94 559.97 L 771.36 559.97 C 784.56 559.97 795.36 570.77 795.36 583.97 L 795.36 583.97 C 795.35 597.17 784.55 607.97 771.35 607.97 Z" fill="#abc6e3" fill-rule="nonzero" group-id="2,6,7" node-id="100" stroke="none" target-height="48" target-width="173.41998" target-x="621.94" target-y="559.97"></path><path d="M 827.10 724.10 L 649.42 724.10 C 636.22 724.10 625.42 713.30 625.42 700.10 L 625.42 700.10 C 625.42 686.90 636.22 676.10 649.42 676.10 L 827.10 676.10 C 840.30 676.10 851.10 686.90 851.10 700.10 L 851.10 700.10 C 851.10 713.30 840.30 724.10 827.10 724.10 Z" fill="#abc6e3" fill-rule="nonzero" group-id="2,6,7" node-id="102" stroke="none" target-height="48" target-width="225.68" target-x="625.42" target-y="676.1"></path></g></svg>