<?xml version="1.0" standalone="no"?><!DOCTYPE svg PUBLIC "-//W3C//DTD SVG 1.1//EN" "http://www.w3.org/Graphics/SVG/1.1/DTD/svg11.dtd"><svg t="1711991905968" class="icon" viewBox="0 0 1102 1024" version="1.1" xmlns="http://www.w3.org/2000/svg" p-id="14843" xmlns:xlink="http://www.w3.org/1999/xlink" width="275.5" height="256"><path d="M181.956923 141.705846V419.052308h78.769231V141.784615h107.126154V78.769231H74.830769v62.936615H181.956923z m298.850462-7.089231V78.769231H409.6v55.768615h71.207385z m-71.207385 38.045539v246.547692h71.207385v-246.547692H409.6z m212.913231 0v-73.885539H551.384615v73.885539h-43.086769v45.292308H551.384615v145.408c0 12.445538 2.205538 22.449231 6.537847 30.011076 4.332308 7.640615 10.24 13.548308 17.801846 17.644308a76.406154 76.406154 0 0 0 25.993846 8.349539c9.924923 1.496615 20.322462 2.205538 31.350154 2.205538 7.089231 0 14.178462-0.157538 21.582769-0.472615 7.325538-0.393846 14.020923-1.024 20.007385-1.969231v-52.381539a104.526769 104.526769 0 0 1-22.055385 1.890462c-12.051692 0-20.007385-1.890462-24.024615-5.750154-4.017231-3.780923-6.065231-11.421538-6.065231-22.843077v-122.092307h52.145231v-45.292308h-52.145231zM704.196923 78.769231v340.361846h71.128615V78.769231H704.196923z m166.596923 190.621538a74.358154 74.358154 0 0 1 3.308308-16.147692 48.994462 48.994462 0 0 1 9.452308-17.171692 53.563077 53.563077 0 0 1 18.116923-13.548308 64.590769 64.590769 0 0 1 28.356923-5.513846c17.329231 0 30.247385 4.489846 38.754461 13.390769 8.507077 8.900923 14.493538 21.897846 17.801846 39.069538h-115.790769z m0 43.008h186.998154a165.809231 165.809231 0 0 0-5.041231-54.823384 131.308308 131.308308 0 0 0-22.843077-46.788923 113.664 113.664 0 0 0-40.329846-32.610462 128.393846 128.393846 0 0 0-57.580308-12.130462c-19.692308 0-37.730462 3.308308-53.878153 10.003693-16.226462 6.616615-30.168615 15.753846-41.905231 27.411692a120.123077 120.123077 0 0 0-27.017846 41.196308c-6.301538 15.911385-9.531077 33.083077-9.531077 51.515077 0 19.062154 3.150769 36.548923 9.294769 52.460307 6.144 15.832615 14.966154 29.538462 26.308923 40.96 11.342769 11.421538 25.206154 20.243692 41.590154 26.466462 16.384 6.222769 34.658462 9.294769 55.138461 9.294769 29.380923 0 54.429538-6.301538 75.145847-19.062154 20.716308-12.681846 36.076308-33.870769 46.08-63.40923h-62.621539c-2.363077 7.640615-8.664615 14.887385-19.062154 21.661538a65.772308 65.772308 0 0 1-37.021538 10.24c-20.086154 0-35.446154-4.883692-46.158769-14.729846-10.712615-9.846154-16.541538-25.757538-17.565539-47.655385zM78.769231 540.829538h945.230769V598.646154H78.769231v-57.737846z m0 173.292308h945.230769V771.938462H78.769231v-57.737847z m0 173.292308h708.923077V945.230769H78.769231v-57.737846z" fill="#4A90E2" p-id="14844"></path></svg>