<?xml version="1.0" standalone="no"?><!DOCTYPE svg PUBLIC "-//W3C//DTD SVG 1.1//EN" "http://www.w3.org/Graphics/SVG/1.1/DTD/svg11.dtd"><svg t="1712248625206" class="icon" viewBox="0 0 1024 1024" version="1.1" xmlns="http://www.w3.org/2000/svg" p-id="18160" xmlns:xlink="http://www.w3.org/1999/xlink" width="256" height="256"><path d="M719.02242 10.433819h-42.654243l0.422319-0.422319c24.494516 0 42.231924-22.805239 42.231924 0.422319z m94.599511 661.351933c-0.422319 0.422319-1.266958 0.422319-2.111597 0.422319-2.533915 0.844638-4.645512 1.266958-7.601746 2.111597v-0.844639c-11.40262-0.422319-20.271324-9.713343-20.271324-21.115962s9.291023-20.693643 20.271324-21.115962v-0.422319c107.691407-28.295389 164.704504-67.571079 164.704504-92.910234 0-31.251624-87.420083-114.448515-249.590672-140.632307v448.503035l-2.956234 12.669577-7.601747 10.557981c-7.179427 7.179427-18.159727 12.669577-32.096262 18.159728l-339.544671 126.695772c-24.072197 7.179427-36.319455 13.936535-38.85337-14.781173v-238.610372h1.266958V673.475029C126.930843 646.868917 2.346667 584.787988 2.346667 516.79459c0-67.993398 124.584176-122.894899 296.890427-149.501011l0.844638-21.115962h-0.422319V31.549781c0-23.227558 10.557981-26.606112 37.586413-21.9606l339.54467 126.695772c26.606112 10.557981 42.231924 21.115962 42.231924 42.231925v176.107123c172.306251 27.028431 292.244915 115.715472 292.244916 183.708871 0 54.479182-78.12906 102.623576-197.645405 133.45288zM297.970136 410.370141c-161.74827 26.606112-253.391545 75.172825-253.391545 106.424449s91.220956 87.842402 253.391545 114.026196V410.370141z m380.087318-199.757001c0-31.673943-10.557981-31.673943-33.785539-42.231924L371.876003 68.291555c-31.673943-10.557981-32.940901-11.824939-32.9409 51.522948v149.078692H340.20206v369.529337c50.25599 6.334789 101.778937 4.645512 164.282185 4.645512 11.40262 0 22.38292-0.422319 32.940901-0.42232l-85.730806-85.730806c-8.446385-8.446385-8.446385-21.538281 0-29.984666s21.538281-8.446385 29.984666 0l117.827069 117.827069c5.067831 5.067831 7.179427 10.9803 7.179427 19.426685 0 7.179427-1.689277 13.936535-7.179427 19.426685l-117.827069 117.827068c-8.446385 8.446385-21.538281 8.446385-29.984666 0s-8.446385-21.538281 0-29.984666l87.420083-87.420083c-11.824939 0.422319-22.805239 1.266958-34.630178 1.266958-59.124694 0-111.49228 1.689277-164.282185-4.645512v221.717602c0 63.347886 0 63.347886 31.673943 52.789906l272.395912-100.51198c21.960601-10.135662 32.518582-10.9803 33.785539-38.431051V210.61314z" fill="#4a6288" p-id="18161" data-spm-anchor-id="a313x.search_index.0.i45.4aa83a81FI7cop" class="selected"></path></svg>