<?xml version="1.0" standalone="no"?><!DOCTYPE svg PUBLIC "-//W3C//DTD SVG 1.1//EN" "http://www.w3.org/Graphics/SVG/1.1/DTD/svg11.dtd"><svg t="1711995901133" class="icon" viewBox="0 0 1024 1024" version="1.1" xmlns="http://www.w3.org/2000/svg" p-id="6470" xmlns:xlink="http://www.w3.org/1999/xlink" width="256" height="256"><path d="M490.07274667 147.81098667h32.03072V249.21884445h-32.03072zM772.46008889 499.55726222h101.42606222v32.06712889H772.46008889z" fill="#15711c" p-id="6471"></path><path d="M626.36032 886.13774222a389.37486222 389.37486222 0 0 1-122.61603555 17.30332445l0.0455111-0.10012445a401.42620445 401.42620445 0 0 1-43.29016888-3.2768l-0.48241778-0.09102222-1.34712889-0.15473778a399.82421333 399.82421333 0 0 1-92.46037333-24.50318222l-0.04551112 0.05461333a392.64256 392.64256 0 0 1-131.0355911-86.63495111c-70.83349333-70.76977778-114.65159111-168.66417778-114.65159112-276.76216889 0-37.84704 5.34300445-74.52899555 15.41006222-109.16295111l0.09102223 0.04551111a390.54904889 390.54904889 0 0 1 28.55367111-71.45244444l0.10012444-0.29127111 1.53827556-2.79438223 1.34712889-2.55772444 0.38229333-0.67356444a390.98595555 390.98595555 0 0 1 67.22901334-89.89354667 391.13159111 391.13159111 0 0 1 38.03818666-33.41425778l0.77368889-0.61895111 0.33678222-0.24576 0.23665778-0.19114666a399.95164445 399.95164445 0 0 1 41.70638222-27.73447112 391.89617778 391.89617778 0 0 1 108.83527111-42.76224l1.34712889-0.29127111 2.40298667-0.52792889a393.43445333 393.43445333 0 0 1 132.22798222-5.77991111l2.80348444 0.33678223 0.57344 0.10012444c16.27477333 2.21184 32.54954667 5.48864 48.82432 9.82129778a396.03768889 396.03768889 0 0 1 78.01514667 30.04643555l2.11171556 1.10136889 1.30161777 0.72817778A392.83370667 392.83370667 0 0 1 822.42218667 273.6128a388.84693333 388.84693333 0 0 1 28.50816 42.66211555 392.02360889 392.02360889 0 0 1 42.77134222 108.8261689l0.28216889 1.34712888 0.57344 2.50311112c5.77991111 26.76963555 8.81095111 54.50410667 8.81095111 83.01226666 0 15.79235555-0.91022222 31.39356445-2.79438222 46.74901334h0.05461333c-1.71121778 13.9264-4.42368 27.88920889-7.68227555 41.87022222a219.61841778 219.61841778 0 0 1 87.5360711 48.14165333c1.00124445-3.46794667 2.12081778-6.87217778 3.05834667-10.37653333 20.37077333-75.87612445 21.67239111-152.38940445 6.84487111-224.42439112l-0.39139555-1.6839111-0.61895111-3.07655112a487.29656889 487.29656889 0 0 0-90.05738667-194.47808 486.45916445 486.45916445 0 0 0-164.44984889-137.18869333l-2.70336-1.40174222-1.86595556-0.95573333a486.18609778 486.18609778 0 0 0-152.3712-46.99477334L575.71555555 27.8528l-2.35747555-0.28216889a483.96515555 483.96515555 0 0 0-159.49824 6.01656889l-1.72942222 0.33678222-3.08565333 0.67356445a486.24071111 486.24071111 0 0 0-194.25962667 89.90264888 485.24856889 485.24856889 0 0 0-137.34343111 164.43164445l-1.49276445 2.88540445-0.91022222 1.78403555c-32.94094222 65.72714667-51.43665778 139.88295111-51.43665778 218.36231111 0 134.82211555 54.65884445 256.88291555 143.02321778 345.24728889 73.68248889 73.71889778 170.85781333 123.93585778 279.26528 138.59043555l2.21184 0.2821689 2.41208889 0.33678222c79.51701333 10.19448889 158.1056 0.27306667 229.96764444-26.23260445a220.27377778 220.27377778 0 0 1-54.12181333-84.04992z" fill="#15711c" p-id="6472"></path><path d="M715.06147555 351.68256c-11.89660445-11.31406222-23.78410667-22.68273778-35.73532444-33.95128889-48.68778667 36.26325333-91.88693333 78.29731555-130.50766222 125.10094222a75.73048889 75.73048889 0 0 0-54.89550222-4.34176c-40.11349333-81.66513778-88.93781333-159.71669333-144.80725334-234.82823111l-37.90165333 20.85319111A1304.44856889 1304.44856889 0 0 0 453.65475555 467.78140445a75.19345778 75.19345778 0 0 0-13.38936888 43.04440888 75.52113778 75.52113778 0 0 0 75.55754666 75.50293334 75.52113778 75.52113778 0 0 0 75.51203556-75.50293334c0-5.19736889-0.53703111-10.25820445-1.49276444-15.11879111a722.67093333 722.67093333 0 0 0 125.2192711-144.02446222zM490.07274667 781.95370667h32.03072v101.45336888h-32.03072zM138.24455111 499.55726222h101.46247111v32.06712889H138.24455111zM242.31025778 763.18492445l10.10346667 10.15808 32.12174222-32.11264-10.11256889-10.17628445zM260.79687111 242.32846222l-10.15808 10.11256889 32.12174222 32.12174222 10.11256889-10.16718222zM739.41902222 282.77873778l10.16718223 10.11256889 32.06712888-32.07623112-10.10346666-10.11256888zM981.49262222 856.19143111c0 5.45223111-4.41457778 9.85770667-9.87591111 9.85770667h-79.01639111a9.86680889 9.86680889 0 1 1 0-19.71541333h79.01639111c5.46133333 0 9.87591111 4.42368 9.87591111 9.85770666z m1.23790223 57.91744c0 5.46133333-4.41457778 9.87591111-9.8668089 9.87591111H814.93105778a9.86680889 9.86680889 0 1 1 0-19.74272h157.93265777c5.44312889 0 9.86680889 4.42368 9.8668089 9.86680889z m-276.36167112 3.86844444a5.09724445 5.09724445 0 0 0 7.16344889 5.27018667l65.27203556-28.49905777-64.57116445-47.56821334c-2.42119111 21.47214222-7.49112889 67.28362667-7.86432 70.79708444z m14.14485334-89.04704l74.12849778 54.61333334 119.33013333-161.89212444-74.12849778-54.60423112-119.33013333 161.88302222z m200.54016-140.75676444l-51.32743112-37.81063111a14.17216 14.17216 0 0 0-19.80643555 3.00373333l-4.20522667 5.69799112 74.12849778 54.61333333 4.20522667-5.70709333a14.15395555 14.15395555 0 0 0-2.99463111-19.79733334z m-41.88842667 34.97073778a8.55608889 8.55608889 0 0 1 1.92967111 11.96032l-80.31800889 111.38389333a8.57429333 8.57429333 0 1 1-13.89909333-10.01244444l80.32711111-111.38389333a8.55608889 8.55608889 0 0 1 11.96032-1.94787556z" fill="#15711c" p-id="6473"></path></svg>