<?xml version="1.0" standalone="no"?><!DOCTYPE svg PUBLIC "-//W3C//DTD SVG 1.1//EN" "http://www.w3.org/Graphics/SVG/1.1/DTD/svg11.dtd"><svg t="1714624558527" class="icon" viewBox="0 0 1024 1024" version="1.1" xmlns="http://www.w3.org/2000/svg" p-id="9671" xmlns:xlink="http://www.w3.org/1999/xlink" width="512" height="512"><path d="M577.037875 544.706167V224.733664c0-17.66793-14.328321-31.99625-31.99625-31.99625s-31.99625 14.328321-31.996251 31.99625v287.976253h-287.966254c-17.66793 0-31.99625 14.328321-31.99625 31.99625s14.328321 31.99625 31.99625 31.996251h319.962505c17.66793 0.009999 31.99625-14.318322 31.99625-31.996251 0 0.009999 0 0.009999 0 0zM881.562189 561.624185c-25.477014 0-49.424208 9.918838-67.442097 27.936726L613.383616 790.307386a32.026247 32.026247 0 0 0-8.538999 15.3582l-27.276804 116.9063a31.988251 31.988251 0 0 0 8.538999 29.896497 31.99825 31.99825 0 0 0 29.896497 8.529l116.9063-27.276803a31.990251 31.990251 0 0 0 15.3582-8.539L949.004285 724.445104c18.017889-18.017889 27.936726-41.965082 27.936727-67.442097 0-25.477014-9.918838-49.424208-27.936727-67.442096-18.00789-18.017889-41.965082-27.936726-67.442096-27.936726z m22.197398 117.566222L709.472356 873.477639l-57.893216 13.508417 13.508417-57.893215 194.287232-194.287232c12.238566-12.238566 32.146233-12.238566 44.384798 0s12.238566 32.156232 0 44.384798z" fill="#7cba59" p-id="9672"></path><path d="M1023.795521 479.363825c-8.459009-129.53482-65.342343-249.990704-160.191228-339.180253C768.335458 50.584072 643.800051 1.239855 512.955385 1.239855c-69.101902 0-136.144046 13.538413-199.276647 40.245283-60.962856 25.786978-115.706441 62.692653-162.720932 109.697145-47.004492 47.004492-83.910167 101.748076-109.697144 162.720931C14.553791 377.035816 1.015378 444.07796 1.015378 513.179862c0 130.584697 49.164239 254.920127 138.443776 350.128969 88.859587 94.758895 208.945514 151.792212 338.150373 160.611178 0.739913 0.049994 1.479827 0.079991 2.209741 0.079991 16.678046 0 30.736398-12.928485 31.886263-29.816506 1.199859-17.627934-12.108581-32.896145-29.746514-34.096004C248.156416 944.119361 65.007879 747.812366 65.007879 513.179862c0-247.001055 200.946452-447.947506 447.947506-447.947506 235.332422 0 431.669414 183.738468 446.987618 418.30098 1.149865 17.627934 16.348084 30.996368 34.016014 29.846502 17.627934-1.159864 30.986369-16.38808 29.836504-34.016013z" fill="#7cba59" p-id="9673"></path></svg>