<?xml version="1.0" standalone="no"?><!DOCTYPE svg PUBLIC "-//W3C//DTD SVG 1.1//EN" "http://www.w3.org/Graphics/SVG/1.1/DTD/svg11.dtd"><svg class="icon" width="128px" height="128.00px" viewBox="0 0 1024 1024" version="1.1" xmlns="http://www.w3.org/2000/svg"><path d="M669.9008 469.6576a223.8976 223.8976 0 0 0 80.1792-171.4176c0-124.3648-102.4-225.28-228.1472-225.28S293.7856 174.08 293.7856 298.24A224 224 0 0 0 373.76 469.6576a343.04 343.04 0 0 0-271.36 334.8992V819.2a121.9072 121.9072 0 0 0 121.7536 121.7536h595.712A121.9072 121.9072 0 0 0 941.6192 819.2v-14.5408a343.04 343.04 0 0 0-271.7184-335.0016zM355.2256 298.24c0-90.4704 74.752-163.84 166.7072-163.84s166.7072 73.3696 166.7072 163.84-74.8032 163.84-166.7072 163.84-166.7072-73.3696-166.7072-163.84zM880.1792 819.2a60.3648 60.3648 0 0 1-60.3136 60.3136H224A60.3648 60.3648 0 0 1 163.84 819.2v-14.5408a281.1392 281.1392 0 0 1 280.832-280.832h154.8288a281.1904 281.1904 0 0 1 280.832 280.832z" fill="#00A0E9" /><path d="M668.5696 800.9728H375.296a30.72 30.72 0 0 1 0-61.44h293.2736a30.72 30.72 0 0 1 0 61.44z" fill="#F39800" /></svg>