<?xml version="1.0" standalone="no"?><!DOCTYPE svg PUBLIC "-//W3C//DTD SVG 1.1//EN" "http://www.w3.org/Graphics/SVG/1.1/DTD/svg11.dtd"><svg t="1712239965966" class="icon" viewBox="0 0 1536 1024" version="1.1" xmlns="http://www.w3.org/2000/svg" p-id="10596" xmlns:xlink="http://www.w3.org/1999/xlink" width="384" height="256"><path d="M1194.0096 485.41696s-10.6496-289.6896 163.77856-267.78624c20.02432 9.19808-14.8224 41.15968-33.43872 48.05376-24.08448 8.91904-8.04352 41.73312-34.0864 55.0144-31.94624 16.29184-23.87712 38.8608-27.63008 75.5968-2.7008 26.432-56.512 43.55328-68.62336 89.12128z" fill="#F3F9FF" p-id="10597"></path><path d="M1179.95776 571.42784s96.2816-251.94752 236.35968-133.68832c13.65248 19.24864-27.5456 26.46272-45.8496 21.67808-23.68256-6.1952-21.99808 30.8224-48.92928 27.2128-33.03424-4.4288-34.39104 19.33824-50.93376 48.37376-11.904 20.8896-63.80032 4.672-90.64704 36.42368z" fill="#E7F4FE" p-id="10598"></path><path d="M1200.28416 554.37568s26.20672-322.32192 187.93728-246.65344c13.91616 7.97696-11.1616 35.1232-34.3296 36.98432-23.168 1.85856-15.8976 46.69696-32.896 71.41376-18.86464 27.43552-53.8496 23.27808-60.3392 64.98816-4.66432 30.01088-43.78624 22.23872-60.37248 73.2672z" fill="#DCEEFD" p-id="10599"></path><path d="M1055.87712 608.83456a13.8368 13.8368 0 0 0-15.47008-8.28416l-20.4416 4.0448a13.85984 13.85984 0 0 1-13.05856-4.4032 130.53952 130.53952 0 0 0-10.94656-10.99008 13.86496 13.86496 0 0 1-4.37504-13.04064l4.03968-20.416a13.84704 13.84704 0 0 0-8.2816-15.4752l-30.17984-12.5056a13.83424 13.83424 0 0 0-16.7936 5.08672l-11.57376 17.29024a13.87008 13.87008 0 0 1-12.3136 6.12864 130.21696 130.21696 0 0 0-15.50336 0.0256 13.85728 13.85728 0 0 1-12.34688-6.12352l-11.5968-17.32096a13.8368 13.8368 0 0 0-16.7936-5.08672l-30.17472 12.5056a13.84448 13.84448 0 0 0-8.2816 15.4752l4.0448 20.44928a13.88032 13.88032 0 0 1-4.4032 13.06624 130.53952 130.53952 0 0 0-10.9824 10.95168 13.85472 13.85472 0 0 1-13.03552 4.3776l-20.4032-4.03968a13.8368 13.8368 0 0 0-15.47264 8.28416l-12.50048 30.19264a13.84704 13.84704 0 0 0 5.08672 16.80128l17.28 11.57632a13.8752 13.8752 0 0 1 6.12608 12.31616 130.91072 130.91072 0 0 0 0.0256 15.5136 13.85984 13.85984 0 0 1-6.12096 12.35456l-17.31328 11.5968a13.8496 13.8496 0 0 0-5.08672 16.80128l12.50048 30.19008a13.8368 13.8368 0 0 0 15.47008 8.28416l20.4416-4.0448a13.86496 13.86496 0 0 1 13.05856 4.4032 130.53952 130.53952 0 0 0 10.94656 10.98752 13.8624 13.8624 0 0 1 4.37504 13.04064l-4.03712 20.41344a13.8496 13.8496 0 0 0 8.2816 15.47776l30.17728 12.5056a13.83424 13.83424 0 0 0 16.7936-5.08672l11.5712-17.29024a13.87008 13.87008 0 0 1 12.3136-6.12864c5.13792 0.29952 10.31168 0.28928 15.50592-0.0256a13.8496 13.8496 0 0 1 12.34688 6.12352l11.5968 17.32096a13.83936 13.83936 0 0 0 16.7936 5.08672l30.17472-12.5056a13.84448 13.84448 0 0 0 8.2816-15.4752l-4.0448-20.44928a13.88032 13.88032 0 0 1 4.4032-13.06624 130.53952 130.53952 0 0 0 10.9824-10.94912 13.85728 13.85728 0 0 1 13.03808-4.3776l20.4032 4.03712a13.83424 13.83424 0 0 0 15.47264-8.2816l12.50048-30.19264a13.8496 13.8496 0 0 0-5.08672-16.80128l-17.28-11.57632a13.88032 13.88032 0 0 1-6.12864-12.31616 130.3808 130.3808 0 0 0-0.0256-15.5136 13.86496 13.86496 0 0 1 6.12096-12.352l17.31328-11.5968a13.85216 13.85216 0 0 0 5.08672-16.80128l-12.50048-30.19264z m-120.69632 142.62528c-35.30496 14.6304-75.78112-2.14272-90.4064-37.46304-14.62272-35.32032 2.14272-75.81184 37.44768-90.4448 35.30752-14.62784 75.78112 2.14528 90.4064 37.4656 14.62272 35.31776-2.14016 75.81184-37.44768 90.4448z" fill="#F3F9FF" p-id="10600"></path><path d="M326.86336 128.09728h877.91872v519.1296H326.86336z" fill="#F3F9FF" p-id="10601"></path><path d="M1208.59648 99.25632H323.0464c-13.81632 0-25.0112 11.20256-25.0112 25.02144v526.76608c0 13.82144 11.19488 25.024 25.0112 25.024h885.55264c13.81376 0 25.0112-11.20256 25.0112-25.024V124.27776c0-13.81888-11.2-25.02144-25.01376-25.02144z m-3.8144 547.968H326.8608V128.09984h877.91872v519.1296z" fill="#224380" p-id="10602"></path><path d="M1149.59872 618.7008h-481.792a11.53536 11.53536 0 0 1-11.5328-11.53536V181.16352a11.53536 11.53536 0 0 1 11.53024-11.53536h481.79456a11.53536 11.53536 0 0 1 11.5328 11.53536v426.00192a11.53536 11.53536 0 0 1-11.5328 11.53536z" fill="#DAE7FF" p-id="10603"></path><path d="M1149.59872 607.16544h-481.792a11.53536 11.53536 0 0 1-11.5328-11.53536V169.6256a11.53536 11.53536 0 0 1 11.53024-11.53792h481.79456a11.53536 11.53536 0 0 1 11.5328 11.53792v426.00192a11.53536 11.53536 0 0 1-11.5328 11.53536z" fill="#FFFFFF" p-id="10604"></path><path d="M621.5424 272.69376h-245.9776a11.53536 11.53536 0 0 1-11.53024-11.53536V181.16352a11.53536 11.53536 0 0 1 11.53024-11.53536h245.9776a11.53536 11.53536 0 0 1 11.5328 11.53536v79.99488a11.5328 11.5328 0 0 1-11.5328 11.53536z" fill="#DAE7FF" p-id="10605"></path><path d="M621.5424 261.1584h-245.9776a11.53536 11.53536 0 0 1-11.53024-11.53536V169.6256a11.53536 11.53536 0 0 1 11.53024-11.53792h245.9776a11.53536 11.53536 0 0 1 11.5328 11.53792v79.99488a11.5328 11.5328 0 0 1-11.5328 11.53536z" fill="#FFFFFF" p-id="10606"></path><path d="M621.5424 430.16448h-245.9776a11.53536 11.53536 0 0 1-11.53024-11.53536V338.6368a11.53536 11.53536 0 0 1 11.53024-11.53536h245.9776a11.53536 11.53536 0 0 1 11.5328 11.53536v79.99488a11.5328 11.5328 0 0 1-11.5328 11.53536z" fill="#DAE7FF" p-id="10607"></path><path d="M621.5424 418.62912h-245.9776a11.53536 11.53536 0 0 1-11.53024-11.53536v-79.99488a11.53536 11.53536 0 0 1 11.53024-11.53536h245.9776a11.53536 11.53536 0 0 1 11.5328 11.53536v79.99488a11.5328 11.5328 0 0 1-11.5328 11.53536z" fill="#FFFFFF" p-id="10608"></path><path d="M941.35296 216.27392H703.0016a4.61312 4.61312 0 0 1-4.61056-4.61568v-19.48928c0-2.54976 2.06336-4.61312 4.61056-4.61312h238.35136c2.5472 0 4.61312 2.06336 4.61312 4.61312v19.48928c0 2.54976-2.06592 4.61568-4.61312 4.61568z" fill="#1B90FB" p-id="10609"></path><path d="M799.5904 364.28288h-96.58624a4.61312 4.61312 0 0 1-4.61312-4.61568v-19.48928c0-2.54976 2.06592-4.61312 4.61312-4.61312h96.5888c2.5472 0 4.61056 2.06336 4.61056 4.61312v19.48928c0 2.5472-2.06592 4.61568-4.61312 4.61568z" fill="#7266D5" p-id="10610"></path><path d="M1114.81344 243.35872H702.58688a4.1984 4.1984 0 0 1-4.1984-4.1984v-0.01792c0-2.31936 1.8816-4.1984 4.1984-4.1984h412.22656c2.31936 0 4.1984 1.87904 4.1984 4.1984v0.01536c0 2.32192-1.87904 4.1984-4.1984 4.1984zM1114.81344 267.87072H702.58688a4.1984 4.1984 0 0 1-4.1984-4.1984v-0.01792c0-2.31936 1.8816-4.1984 4.1984-4.1984h412.22656c2.31936 0 4.1984 1.87904 4.1984 4.1984v0.01536a4.1984 4.1984 0 0 1-4.1984 4.1984zM1114.81344 292.38272H702.58688a4.1984 4.1984 0 0 1-4.1984-4.1984v-0.01792c0-2.31936 1.8816-4.1984 4.1984-4.1984h412.22656c2.31936 0 4.1984 1.87904 4.1984 4.1984v0.01536a4.1984 4.1984 0 0 1-4.1984 4.1984zM858.52928 316.89216h-155.9424a4.1984 4.1984 0 0 1-4.1984-4.1984v-0.01792c0-2.31936 1.8816-4.1984 4.1984-4.1984h155.9424c2.31936 0 4.1984 1.87904 4.1984 4.1984v0.01792c0 2.31936-1.87648 4.1984-4.1984 4.1984z" fill="#DCEEFD" p-id="10611"></path><path d="M207.67232 432.07424l48.70912 48.7296v34.5984l-48.70912-48.7296-48.70656 48.7296v-34.5984z" fill="#F3F9FF" p-id="10612"></path><path d="M207.67232 371.16416l48.70912 48.72704v34.60096L207.67232 405.76l-48.70656 48.7296V419.8912z" fill="#E7F4FE" p-id="10613"></path><path d="M207.67232 310.25408l48.70912 48.7296v34.59584l-48.70912-48.7296-48.70656 48.7296v-34.59584z" fill="#DCEEFD" p-id="10614"></path><path d="M207.67232 249.344l48.70912 48.72704v34.5984l-48.70912-48.72704-48.70656 48.72704v-34.5984z" fill="#D0E7FE" p-id="10615"></path><path d="M376.21248 99.25888h6.5792v401.3568h-6.5792z" fill="#0D1F42" p-id="10616"></path><path d="M574.11328 352.1408h-27.47904a2.2144 2.2144 0 0 1-2.2144-2.2144v-0.01024c0-1.22368 0.99072-2.21696 2.2144-2.21696h27.47904l5.76512 2.21952-5.76512 2.22208z" fill="#224380" p-id="10617"></path><path d="M439.53664 568.6528l1.7024 8.43008-11.03872 1.55392-3.3408-7.95136z" fill="#F1B282" p-id="10618"></path><path d="M441.47968 576.07168s-10.4704 2.7392-13.90592 3.07456c-3.43552 0.3328-9.2672 7.70816-12.78976 8.832-4.2752 1.3568-3.77344 6.27968-0.53504 7.15008 4.57216 1.2288 31.17312 0.79872 31.24224-8.2176 0.07168-9.5488-4.01152-10.83904-4.01152-10.83904z" fill="#102B5E" p-id="10619"></path><path d="M457.89696 565.888l-4.672 7.31392 10.15552 5.28384 6.09536-6.30016z" fill="#F1B282" p-id="10620"></path><path d="M411.1872 493.1328c-3.42528 4.19072 5.81632 78.12352 11.38688 81.728 5.57312 3.60192 19.62752-4.15488 19.62752-4.15488s8.96256-68.35968 4.84352-77.57312c-4.11648-9.20832-32.4352-4.1856-35.85792 0z" fill="#0B224E" p-id="10621"></path><path d="M529.92 497.2544c-4.1216-23.0272-52.87168-41.93792-66.53952-42.66496-13.66528-0.72704-62.81984 15.69792-66.21696 18.84928-3.39712 3.1488-4.8768 27.2128 25.16992 26.4832 30.04928-0.72704 44.10112-5.08928 44.10112-5.08928s17.86368 7.2448 28.98432 11.83232c-10.4576 11.61472-39.36 45.11488-39.16032 60.40832 0.96768 4.36224 12.35712 8.97024 15.50592 7.5136 3.1488-1.45408 62.27712-54.30016 58.15552-77.32992z" fill="#102B5E" p-id="10622"></path><path d="M453.1072 344.17152s-4.60288 16.96768-7.51104 20.84608c-2.90816 3.8784 19.87072 9.69728 22.29248 7.27296 2.42176-2.42432 2.90816-18.90816 2.90816-18.90816s12.11392 2.8928 15.26528 0.29696c3.1488-2.59584 4.11904-7.32672 4.35968-8.7808 0.2432-1.45152 4.60288-3.02848 4.60288-5.21216 0-2.18112-2.18112-17.23136-6.42048-20.72576-2.3552-1.94048-29.6832-10.42432-32.3456 5.08928-2.66752 15.5136-3.15136 20.1216-3.15136 20.1216z" fill="#F1B282" p-id="10623"></path><path d="M455.77216 348.53632c7.5136 0 19.87072-2.18368 19.87072-9.69728 0-7.51616-9.69216-18.42432 0-17.21344 9.69472 1.21088 17.2032 1.22368 17.20576-8.96768 0.00512-14.05952-36.864-29.4144-50.15808 2.64448-9.21088 22.20288 3.44832 33.23392 13.0816 33.23392z" fill="#102B5E" p-id="10624"></path><path d="M537.4976 368.65024s9.59744-9.4336 10.72128-10.79296c5.07904-6.13632 2.95424-13.6448 10.04032-13.6448 3.8912 0 10.84928 2.92608 11.04896 7.8336 0.08704 2.11712 0.7936 9.8816-5.52448 10.87744-5.28128 0.82944-19.4432 15.48288-19.4432 15.48288l-6.84288-9.75616z" fill="#F1B282" p-id="10625"></path><path d="M551.23456 370.40384c-1.21088-7.7568-10.20928-9.00864-15.50848-4.1216-1.69472 1.56416-21.93152 11.86816-30.76352 18.2912-7.69792-9.79968-27.328-25.73568-52.18048-25.73568-35.29472 0-74.06592 34.66496-74.06592 58.6624 0 16.72448 9.47968 17.8432 18.19392 15.34976-2.86976 11.33568-6.66112 30.67648-3.4176 44.288 2.48832 10.4448 31.50592-1.94048 43.136-3.6352 11.63008-1.69728 35.61984-0.9728 34.65216-12.8512-0.96768-11.87584-3.328-49.4336 16.93952-48.52224 9.20832 0 10.91072 6.34368 18.92352 6.34368 15.26528-0.00256 45.79584-37.16096 44.09088-48.06912z" fill="#1B90FB" p-id="10626"></path><path d="M446.44352 300.05248s0.4608-17.21344-24.11008-17.21344c-49.91488 0-30.04416 46.54336-30.7712 70.784-0.73216 24.2432-12.35968 22.54592-12.84608 31.03232-0.4864 8.48384 47.24992 1.69472 50.64448-31.27296 3.392-32.96768 5.8112-48.1536 12.84352-45.33248 7.0272 2.82368 4.23936-7.99744 4.23936-7.99744z" fill="#102B5E" p-id="10627"></path><path d="M452.99968 295.72608c4.80768 2.28864-6.31552 22.30016-13.05856 19.6864s6.78912-22.67136 13.056-19.6864z" fill="#1B90FB" p-id="10628"></path><path d="M396.8512 433.0752s8.27904-31.32928 20.2752-39.32928c0 0-14.90432 39.32928-24.64768 76.84608 0 0-0.62976-22.44608 4.37504-37.5168z" fill="#1277D7" p-id="10629"></path><path d="M495.0272 507.0976l6.90688 2.2784s-16.92928 16.2816-27.42528 22.5024c0 0 15.424-22.64576 20.5184-24.7808z" fill="#0B224E" p-id="10630"></path><path d="M453.18912 571.20256s11.37664 7.15008 15.36512 8.8832c3.98848 1.7408 7.7184 12.0448 11.46368 14.6688 4.53888 3.18208 1.7408 8.30464-2.54208 7.95392-6.0544-0.49664-37.87776-11.60192-33.94304-21.38368 4.16512-10.36032 9.65632-10.12224 9.65632-10.12224z" fill="#102B5E" p-id="10631"></path><path d="M365.74208 514.7136h169.9328a8.25856 8.25856 0 0 0 8.26112-8.26112v-0.7808a8.25856 8.25856 0 0 0-8.26112-8.26112h-169.9328a8.25856 8.25856 0 0 0-8.25856 8.26112v0.7808a8.25856 8.25856 0 0 0 8.25856 8.26112z" fill="#0D1F42" p-id="10632"></path><path d="M522.49088 99.25888h6.5792v401.3568h-6.5792z" fill="#0D1F42" p-id="10633"></path><path d="M1084.8 347.83744h106.79296v9.2288H1084.8zM1084.08064 416.66816h104.97536v9.2288h-104.97536zM1084.8 505.5232h107.6992v9.2288h-107.6992zM1099.61216 586.38848h91.35104v9.2288h-91.35104zM1085.15072 840.00256h105.8816v9.2288h-105.8816zM1085.15072 922.82624h105.8816v9.2288h-105.8816zM1085.70624 666.02496h105.8816v9.2288h-105.8816z" fill="#183168" p-id="10634"></path><path d="M1187.21024 312.65536h9.22624V970.24h-9.22624zM1082.91072 312.65536h9.22624V970.24h-9.22624z" fill="#183168" p-id="10635"></path><path d="M996.33664 398.2208l2.17856-4.27008c0.74496-1.4592 0.87808-3.1232 0.3712-4.67968a6.10048 6.10048 0 0 0-3.04384-3.57376l-24.63744-12.58496a3.99872 3.99872 0 0 1-1.7408-5.37088l5.16352-10.11712a3.968 3.968 0 0 1 2.32448-1.98144 3.9168 3.9168 0 0 1 3.0464 0.24064l9.21088 4.70784 0.9728-1.90976-9.21344-4.70528a6.10816 6.10816 0 0 0-4.67712-0.36864 6.0928 6.0928 0 0 0-3.56864 3.0464l-5.16352 10.11712a6.144 6.144 0 0 0 2.67264 8.25344l24.63744 12.58752c0.94976 0.48128 1.65376 1.3056 1.98144 2.32192s0.24064 2.0992-0.2432 3.0464l-2.17856 4.26752 1.9072 0.9728z" fill="#4D78CC" p-id="10636"></path><path d="M983.99488 368.38144l41.8304 21.36576a5.64992 5.64992 0 0 0 7.6032-2.46272l4.3008-8.43008a5.65504 5.65504 0 0 0-2.46272-7.6032l-41.8304-21.36832a5.64992 5.64992 0 0 0-7.6032 2.46528l-4.3008 8.42752a5.65248 5.65248 0 0 0 2.46272 7.6032z" fill="#7266D5" p-id="10637"></path><path d="M991.69024 418.0608l9.3568-18.33984a5.65504 5.65504 0 0 0-2.46272-7.6032l-0.53248-0.27392a5.64992 5.64992 0 0 0-7.6032 2.46528l-9.3568 18.33728a5.65504 5.65504 0 0 0 2.46272 7.6032l0.53248 0.27392a5.64992 5.64992 0 0 0 7.6032-2.46272z" fill="#224380" p-id="10638"></path><path d="M1089.42848 757.17888h105.8816v9.2288h-105.8816z" fill="#183168" p-id="10639"></path><path d="M1126.56128 735.14752l4.2496 12.3648s8.63488 7.81568 13.1072-3.32544l-1.89696-10.25792c-0.50688-2.74432-15.45984 1.21856-15.45984 1.21856z" fill="#F1B282" p-id="10640"></path><path d="M1145.27232 735.9232h-21.66784s-20.28032-79.6672-25.92256-100.77184c-4.44416-16.61952-9.61024-71.55712-7.55968-97.14688 1.95584-24.3968 43.4432-11.18464 45.60384 5.94944 6.34624 50.2272-5.46304 87.48032-4.85632 96.26368 10.2912 26.048 14.40256 95.7056 14.40256 95.7056z" fill="#102B5E" p-id="10641"></path><path d="M1085.83424 381.17888c-2.62144 5.632-1.33632 8.69888-1.97888 11.06944-0.64512 2.37312-3.10528 7.16544-3.20768 9.43616-0.10496 2.27328 2.30656 2.58304 2.8288 5.55264 0.52224 2.9696-0.8448 6.83776 0.96512 9.95072 1.80992 3.11296 8.832 2.39104 8.41984 5.39648-0.41472 3.00288-4.84096 14.15168-4.84096 14.15168l28.88448 0.46336s-1.152-16.22528 0.31744-22.93248c1.46944-6.7072 4.72576-31.34976-1.27488-34.33728-5.99808-2.98752-27.33312-4.72832-30.11328 1.24928z" fill="#F1B282" p-id="10642"></path><path d="M1101.69088 368.40448c24.03072 0.74752 32.46336 6.8096 32.18944 25.59232-0.16384 11.19744-6.34112 26.69568-14.44864 26.64448-5.84704-0.03584-17.37472-0.68864-19.39456-3.88352-4.79488-7.58528-0.6912-18.05824-3.90144-21.67296-4.56704-5.13792-14.94272-2.49344-13.5168-20.19328 1.42592-17.7024 11.07456-6.74048 19.072-6.48704z" fill="#0B224E" p-id="10643"></path><path d="M1156.26496 363.0464s4.096-11.41504 3.36384-17.51808c-1.1776-9.8304-24.57088-9.87648-25.57952-1.35936-1.06752 9.04192 3.1488 11.4048 5.89824 13.76512 2.752 2.36032 5.89824 6.49216 6.6816 8.064 0.78848 1.5744 8.45568 1.57184 9.63584-2.95168zM991.9744 428.82304s-11.51488-3.7888-15.872-8.12032c-7.02464-6.98112 7.32928-25.45664 14.65856-21.01248 7.78496 4.71808 7.05536 9.4976 7.22176 13.11744 0.1664 3.6224 1.48736 8.64256 2.24512 10.23232 0.7552 1.5872-3.96032 7.63392-8.25344 5.78304zM1069.4656 716.29824l6.2208 11.49696s9.8048 6.28992 12.38528-5.43232l-3.5584-9.80992c-0.95232-2.624-15.04768 3.74528-15.04768 3.74528z" fill="#F1B282" p-id="10644"></path><path d="M1070.0928 539.06176s-41.728 59.10016-42.74176 70.9632c-1.83296 21.41184 38.99904 106.42688 38.99904 106.42688l21.12-4.5312s-14.14656-64.08704-25.32096-85.9392c21.49376-29.07392 55.54176-45.312 55.54176-83.28704 0.00256-10.29632-47.59808-3.63264-47.59808-3.63264z" fill="#0B224E" p-id="10645"></path><path d="M1114.0608 432.384c-6.18496-0.41984-17.69728 0.21248-24.40192 0.08704-17.16736-0.32256-40.36352 14.94528-58.9568 20.4032-12.14976-13.1584-29.96224-34.03008-29.96224-34.03008l-14.98112 9.25696s26.74176 46.144 43.18208 48.79104c9.94816 1.6 25.94304 0.98816 38.35392-4.16 0 15.45472-19.7888 76.01664-5.248 79.10144 14.5408 3.0848 37.45536-2.2016 51.5584 0 14.09792 2.2016 29.51936 12.78464 25.9968-13.66528-3.52768-26.44992-18.95168-23.60576 14.09792-74.06848 8.65536-13.21472 18.73152-32.46592 17.2032-48.60928-2.98496-31.55456-10.6496-55.27296-10.6496-55.27296l-16.3968 2.64448s1.41568 33.21856 4.9408 52.61568c-3.52768 9.33632-8.8448 15.75936-14.91712 22.4-3.328 3.6352-10.13504-5.84192-19.81952-5.49376z" fill="#FFCB01" p-id="10646"></path><path d="M1144.28672 741.24288c1.71008-0.22528 3.51488 1.6128 3.44576 8.43008-0.07168 6.81728 0.24064 10.42944-5.0432 11.1616-3.32288 0.45824-15.83872-2.85696-28.032-2.6368-4.4032 0.0768-12.50048-1.98912-15.33952-5.77536a2.96448 2.96448 0 0 1-0.32768-2.83136c0.38144-0.94208 1.20064-1.54112 2.08128-1.51552 9.82272 0.27392 9.99168 1.2288 17.94304-4.41856 2.88512-2.05056 5.29408-3.968 6.81728-4.0704 2.95936-0.2048 4.33152 3.74016 9.15456 3.2256 4.83072-0.51712 6.3488-1.18272 9.30048-1.56928zM1088.22528 719.04512c1.78688-0.35072 4.11648 2.03008 5.01248 8.32768 0.896 6.30016 2.7136 11.33568-2.816 12.45952-3.4688 0.70656-21.53728-1.13408-34.49088 0.10496-4.67968 0.448-10.1632-1.82272-13.72672-5.07392a2.54464 2.54464 0 0 1-0.75264-2.5856 2.2016 2.2016 0 0 1 1.99936-1.57952c10.50112-0.58112 10.82112 0.28672 18.4832-5.60128 2.78016-2.14016 5.07392-4.11392 6.6816-4.3392 3.1232-0.43776 5.0048 2.25024 10.07104 1.36448 5.0688-0.88576 6.44608-2.46784 9.53856-3.07712z" fill="#0B224E" p-id="10647"></path><path d="M586.40128 557.21984c7.86432-1.0368 14.86848 3.96544 14.86848 10.07872 0 1.3312-0.52224 3.73248 0.49408 6.77632 0.68096 2.0352 3.5328 4.66432 3.5072 7.4368-0.0256 2.77248-4.16768 2.14784-3.84 4.62848 0.3328 2.47808 1.984 7.6032 0.82688 9.58464-1.15456 1.984-14.0416-0.3328-14.36928 4.29568-0.3328 4.62592 2.9696 13.52448 2.9696 13.52448l-27.7504-2.1248s-2.3168-42.84928 0-46.1056c3.88608-5.4528 17.01632-7.2704 23.296-8.09472z" fill="#F1B282" p-id="10648"></path><path d="M535.97696 937.40288s-5.1456 22.05184-0.0384 26.47296l11.27936 1.03168a1.8688 1.8688 0 0 0 2.03264-1.69216l0.16128-1.76384s4.72576 4.62592 8.45056 4.9664c3.7248 0.33792 23.5904 0.49152 23.5904 0.49152s4.5824 1.2288 4.98688-3.22304c0.58112-6.3744-15.66208-7.2064-21.8624-13.00992-6.20288-5.80352-9.088-11.49184-9.088-11.49184l-19.51232-1.78176zM595.4816 943.32416s-3.12064 22.42816 2.368 26.368h11.33056a1.8688 1.8688 0 0 0 1.8688-1.87136v-1.77152s5.12768 4.17792 8.86528 4.17792 27.66592-0.04608 27.66592-0.04608 4.672 0.81152 4.672-3.6608c0-6.4-20.3776-7.36768-27.0848-12.57984-6.70208-5.21472-10.09408-10.61888-10.09408-10.61888h-19.59168z" fill="#0B224E" p-id="10649"></path><path d="M692.8896 684.38016c0 1.63328-0.67072 3.19488-1.856 4.31872-40.24064 38.14912-108.70528 37.85472-108.70528 37.85472v-86.86848s61.82656 5.71648 107.23072-36.45184a1.97632 1.97632 0 0 1 3.33056 1.45408v79.6928z" fill="#1B90FB" p-id="10650"></path><path d="M671.58016 652.928s6.1952-7.18848 7.43168-8.67328c1.23904-1.48736 2.2528-10.1632 4.46976-12.39552 2.21952-2.22976 9.2288-6.09024 11.07968-5.88288 2.61888 0.2944 5.40928 11.52 4.4544 19.57376-0.87552 7.40864-4.98432 9.91488-11.1488 10.9056-3.20768 0.51968-9.2928 7.68768-9.78688 9.66912l-6.5024-13.19424z" fill="#F1B282" p-id="10651"></path><path d="M594.08384 627.45088s0.85248-12.79232-3.5712-14.19264c-4.42368-1.40032-25.41056-7.68-28.2368-3.46624-2.82624 4.21376-3.24608 15.27552-3.24608 15.27552l35.05408 2.38336z" fill="#1EAF69" p-id="10652"></path><path d="M608.37632 556.6464c-0.36352-12.97408-54.36416-15.88224-55.53152 12.54656-0.67328 16.4096 3.63008 29.99808 7.41376 29.952 9.92512-0.13056 3.85536-17.4592 9.6-18.2272 6.38464-0.85248-0.05632 28.25728 16.15616 26.5472 27.19232-2.87744 20.096-23.1808 3.2512-19.93472-16.8448 3.24608-12.62336-15.52384 1.41568-19.03616 14.03392-3.51744 17.96096-2.39616 17.69472-11.85024zM542.4768 749.35808s-1.18784 43.57888 4.71552 87.75424l-13.93664 102.39232a2.97472 2.97472 0 0 0 2.79552 3.37408l23.65184 1.2032a2.9696 2.9696 0 0 0 3.008-2.15552c3.7376-13.09696 22.29248-79.05792 23.6288-101.34528 1.48736-24.78848 6.9376-90.7264-4.95616-97.66656-11.89376-6.94016-37.38112-13.91616-38.90688 6.44352z" fill="#0B224E" p-id="10653"></path><path d="M557.10464 746.88c3.31776 26.0864 26.2656 99.65312 31.71584 109.568l3.33568 88.23296c0.0768 1.99168 1.61792 3.61984 3.60192 3.79904l19.712 1.792a3.96288 3.96288 0 0 0 4.31616-3.71456l5.70624-96.60416s-6.44352-97.62304-18.33728-107.53792c-11.89632-9.91232-51.75552-8.92928-50.05056 4.46464z" fill="#102B5E" p-id="10654"></path><path d="M556.8384 680.13568c7.0912-5.29664 15.2832-12.26752 18.01984-17.91232 5.15328-10.64448 2.17088-56.23552-16.81152-42.3552-18.9824 13.88032-33.4592 55.6928-32.6784 69.82656 0.77568 14.13632 64.29184 42.624 64.29184 42.624l5.43488-23.00416c0-0.00256-25.728-19.84512-38.25664-29.17888z" fill="#1EAF69" p-id="10655"></path><path d="M685.0048 661.34784l-10.28096-13.57824a1.98144 1.98144 0 0 0-2.73408-0.41728c-4.98176 3.56608-20.69248 15.03744-31.424 25.27232-8.97536-15.91808-31.936-54.27968-45.30176-55.1424-7.32672-2.23232-30.72768-5.4528-40.1408 3.4688-9.41824 8.92416-5.94944 30.74048-7.43424 64.45056-1.4848 33.7152-15.85664 64.9472-4.45952 69.90592 11.39712 4.95872 22.79424-7.4368 38.15936-6.94016 15.36 0.49408 34.23232 9.4208 35.70176-2.97472 1.32096-11.1616-10.56-38.78912-9.32608-60.83328 11.12832 12.01664 24.704 24.51712 31.60576 22.65856 11.56352-3.11296 39.8848-36.5696 45.57824-43.4048a1.99168 1.99168 0 0 0 0.05632-2.46528z" fill="#2CCD7F" p-id="10656"></path><path d="M610.44736 710.272c-8.86016-7.0016-25.6896-24.57088-21.13024-54.61504 0 0 1.72544 2.65728 4.6592 7.27808 3.26912 5.0944 8.04864 12.61312 13.73696 21.57568 0 0 0 0.02048 0.02048 0.02048v0.02048c-0.47872 8.1664 0.88832 17.13152 2.7136 25.72032z" fill="#1EAF69" p-id="10657"></path><path d="M1144.81408 122.688a63.4496 63.42144 90 1 0 126.84288 0 63.4496 63.42144 90 1 0-126.84288 0Z" fill="#DBFEED" p-id="10658"></path><path d="M1158.90688 122.688a49.34912 49.32864 90 1 0 98.65728 0 49.34912 49.32864 90 1 0-98.65728 0Z" fill="#9AEEC5" p-id="10659"></path><path d="M1172.99968 122.688a35.2512 35.23584 90 1 0 70.47168 0 35.2512 35.23584 90 1 0-70.47168 0Z" fill="#60DFA0" p-id="10660"></path><path d="M1204.56192 136.78592h-0.14592a3.51232 3.51232 0 0 1-2.52672-1.23136l-10.57024-12.3392a3.52 3.52 0 0 1 0.384-4.9664 3.53792 3.53792 0 0 1 4.9664 0.384l8.11008 9.46432 18.74432-18.49856a3.5328 3.5328 0 0 1 4.98176 0.03328 3.5328 3.5328 0 0 1-0.03328 4.992l-21.43744 21.14816a3.52 3.52 0 0 1-2.47296 1.01376z" fill="#FFFFFF" p-id="10661"></path><path d="M295.76448 736.896a1.84064 1.84064 0 0 1-1.81504-1.6c-7.8464-63.28064-1.71008-101.2608 18.23744-112.86528 19.16416-11.14368 43.38176 6.55104 44.3776 7.31648 0.8192 0.59392 0.97792 1.74336 0.37376 2.54464-0.60416 0.80896-1.78176 0.97792-2.54464 0.37376-0.2304-0.1792-23.23712-17.05216-40.38912-7.07584-12.75904 7.43168-25.9584 32.4224-16.4224 109.2608a1.82272 1.82272 0 0 1-1.58464 2.03008c-0.0896 0.00768-0.16128 0.01536-0.23296 0.01536z" fill="#2CCD7F" p-id="10662"></path><path d="M256.44544 893.07136l18.27072 64.14336c1.31584 4.62336 12.99456 8.2432 27.20512 8.2432 14.21312 0 25.89184-3.61984 27.20768-8.2432l18.27072-64.14336h-90.9568z" fill="#C3D3F3" p-id="10663"></path><path d="M347.47392 892.544a1.9456 1.9456 0 0 1-0.0768 0.52736c-1.36192 4.7872-21.1968 8.5888-45.47328 8.5888-24.27392 0-44.11136-3.79904-45.47328-8.5888a1.9712 1.9712 0 0 1-0.0768-0.5248c0-5.03552 20.39552-9.1136 45.55264-9.1136 25.15712 0 45.54752 4.08064 45.54752 9.1136z" fill="#DAE7FF" p-id="10664"></path><path d="M298.11968 892.47744c0.7936-44.1472 0.42752-88.48384-2.69312-132.5184-1.8432-21.90848-3.68128-44.18816-9.9584-64.96512-1.75104-4.95872-3.67616-10.368-7.12448-13.51168-3.1744-3.59424-7.85152-1.536-11.28192 2.624-7.05792 7.73888-11.65312 18.0992-16.31488 27.93984l-0.0512 0.1024a1.82016 1.82016 0 0 1-3.29728-1.54368c4.66176-10.12736 8.91904-20.54144 16.68608-29.37088 1.82784-2.28352 4.43136-4.1088 7.4496-5.48352 3.49696-0.91392 7.37536 0.07424 9.69984 2.432 4.82048 4.45952 6.5792 10.04288 8.62464 15.3344 6.86848 21.632 8.95744 43.8784 11.17184 65.98144 3.8016 44.3136 4.82304 88.6784 4.68992 133.12a3.80416 3.80416 0 1 1-7.60576-0.0256c0.00512-0.0128 0.00512-0.1024 0.00512-0.1152z" fill="#2CCD7F" p-id="10665"></path><path d="M301.63712 832.27392a1.81248 1.81248 0 0 1-1.8176-1.82528c0-49.00608 6.656-76.00896 19.77088-80.26368 12.11648-3.968 24.25344 12.66432 24.77056 13.36832a1.82272 1.82272 0 0 1-2.95424 2.13504c-0.12288-0.1536-11.03104-15.12192-20.69248-12.03968-7.86432 2.56256-17.25952 17.96096-17.25952 76.8a1.8176 1.8176 0 0 1-1.8176 1.82528zM292.71296 705.12128s6.09792-37.90848-25.23136-75.09248c0 0 16.71936 39.808 25.23136 75.09248z" fill="#2CCD7F" p-id="10666"></path><path d="M342.8864 764.6208c-11.6608-20.96384 10.91328-45.45536 28.1728-45.45536 17.25952 0 40.86528 25.8816 40.86528 25.8816s-40.86528-4.29568-40.86528 1.54624 34.77504-4.31872 48.73472 2.53952c13.95968 6.85568 16.24576 26.91584 16.24576 26.91584s-57.1136-13.20448-57.36448-8.63232c-0.256 4.5696 57.10848 5.07648 60.91776 16.50432 3.80672 11.42784 2.53952 22.0928 2.53952 22.0928s-53.5552-23.86944-55.08096-15.744c-1.5232 8.12544 55.2832 9.64864 55.2832 25.1392 0 15.488-9.59488 45.4528-7.31136 50.5344 0 0-32.9984 11.17184-41.11872 0-8.12288-11.17696-9.64352-43.16928-16.24576-43.16928-6.59968 0-3.80672 39.89248 11.42528 48.13312 0 0-29.952 6.20544-32.9984-12.58496-3.0464-18.7904 4.3136-51.29472-1.01632-53.57824-5.32992-2.28352-17.7664 34.29888-1.77408 60.43648 0 0-22.84544 4.31616-25.38496-16-2.53696-20.3136 10.65984-53.65248 6.85568-53.65248-3.80672 0-24.62208 31.0528-23.09632 48.82944 0 0-24.87552-18.03008-19.8016-30.21824 5.07648-12.18816 24.3712-26.40896 21.0688-29.20192-3.3024-2.79552-25.63584 13.71136-26.9056 23.36 0 0-11.9296-27.42272 11.42272-49.26208 17.55136-16.41728 45.43232 5.58336 45.43232 5.58336z" fill="#45D48F" p-id="10667"></path><path d="M420.3904 694.81216s13.85472-22.97344 4.5568-35.12576c-20.50048-26.96448-40.80896-19.74784-40.61696-24.49408 0.18944-4.74624 32.45312-1.89952 39.09632 8.1664 0 0-0.37632-26.20416-12.14464-26.20416-11.77088 0-26.76224 5.696-27.89888 2.0864-1.14176-3.6096 26.1888-6.26688 26.1888-6.26688s-20.096-12.91008-37.28384-11.392c-21.14304 1.8688-16.80384 29.6192-16.80384 29.6192s-16.32256-28.48-31.31904-14.23872c-14.99136 14.23872-9.6768 30.00064-3.60704 39.49568 3.79648-10.82368 15.1808-25.63328 17.8432-21.74208 2.65472 3.8912-27.33056 30.47424-6.26432 45.66528 3.41504-15.9488 16.13312-40.064 19.7376-35.12832 4.11648 1.11104-19.92704 32.3968-13.0944 43.6736 6.8352 7.59296 16.704 11.58144 16.704 11.58144s3.79392-46.14144 11.38688-41.39264c7.59296 4.7488-16.13312 31.70816-3.98592 44.99968 12.1472 13.29152 34.73408 12.15232 36.82048 18.79808 0 0 20.49792-15.56992 17.08288-27.15136-4.62336-15.6672-28.09088-23.9232-26.3808-27.81696 1.7024-3.8912 28.0832 2.37568 29.98272 26.8672z m-36.06016-46.70976c-0.57088-3.03872 2.2784-5.696 15.3728-1.71008 13.0944 3.98848 21.44512 23.92576 21.44512 23.92576-9.6768-17.65888-36.2496-19.1744-36.81792-22.21568z" fill="#7BE6B1" p-id="10668"></path><path d="M182.62272 765.23264c2.01472 6.88896-39.0656 15.6032-50.21184 40.82688-8.23808 18.64448 22.69184 49.16992 22.69184 49.16992 4.9408-10.67264 42.50368-3.85024 65.72544-23.45728 23.22432-19.60704-10.62912-69.90336 3.11296-76.20096 13.73952-6.29248 10.06336 71.77216 10.06336 71.77216s17.39008-4.52608 30.4768-15.75424c13.89056-17.39008-19.55328-74.9952-12.42624-75.95776 7.10912-7.48032 23.15264 35.65568 25.40544 63.09888 38.56896-20.84352-5.85216-71.86944-0.55552-77.80864 5.29408-5.9392 21.13792 21.33248 25.1392 40.27904 12.23168-14.57408 24.5504-39.79776 2.54976-66.90304-22.00576-27.10272-55.52128 17.024-55.52128 17.024s13.29408-45.51168-21.696-53.24288c-28.4416-6.28224-64.89344 10.9568-64.89344 10.9568s45.17376 10.39872 42.4832 16.192c-2.69056 5.79072-26.55232-7.00928-46.25152-9.56928S132.6848 716.88192 132.6848 716.88192c13.30688-15.40096 67.93984-13.14816 67.2256-5.16096-0.7168 7.9872-33.14176-8.50944-73.3184 32.16384-18.21184 18.31936-0.0128 59.79904-0.0128 59.79904 8.4992-40.59136 54.0288-45.34016 56.04096-38.4512z m-51.98592-2.71872s18.31424-31.55712 41.10336-35.38432c22.79168-3.82464 26.97984 1.24416 25.36448 6.208-1.6128 4.96128-46.4256 1.72032-66.46784 29.17632z" fill="#9AEEC5" p-id="10669"></path></svg>