<?xml version="1.0" standalone="no"?><!DOCTYPE svg PUBLIC "-//W3C//DTD SVG 1.1//EN" "http://www.w3.org/Graphics/SVG/1.1/DTD/svg11.dtd"><svg height="109" node-id="1" sillyvg="true" template-height="109" template-width="136" version="1.1" viewBox="0 0 136 109" width="136" xmlns="http://www.w3.org/2000/svg" xmlns:xlink="http://www.w3.org/1999/xlink"><defs node-id="19"></defs><path d="M 49.00 32.00 L 70.00 32.00 C 71.10 32.00 72.00 32.90 72.00 34.00 L 72.00 42.00 C 72.00 43.10 71.10 44.00 70.00 44.00 L 49.00 44.00 C 47.90 44.00 47.00 43.10 47.00 42.00 L 47.00 34.00 C 47.00 32.90 47.90 32.00 49.00 32.00 Z" fill="#deedff" fill-rule="nonzero" node-id="21" stroke="none" target-height="12" target-width="25" target-x="47" target-y="32"></path><path d="M 70.50 26.00 L 101.00 26.00 L 103.00 38.50 L 69.00 38.50 L 70.50 26.00 Z" fill="#abcdff" fill-rule="nonzero" node-id="23" stroke="none" target-height="12.5" target-width="34" target-x="69" target-y="26"></path><path d="M 18.00 62.00 C 16.00 62.00 13.00 62.50 13.00 66.00 C 13.00 70.50 16.00 71.00 18.00 71.00 C 19.60 71.00 30.33 71.00 35.50 71.00" fill="none" node-id="25" stroke="#a1ceff" stroke-linecap="round" stroke-width="2" target-height="9" target-width="22.5" target-x="13" target-y="62"></path><path d="M 32.25 45.09 C 31.59 40.28 35.32 36.00 40.17 36.00 L 102.09 36.00 C 106.85 36.00 110.56 40.13 110.05 44.86 L 106.27 79.86 C 105.83 83.92 102.40 87.00 98.32 87.00 L 44.98 87.00 C 40.98 87.00 37.59 84.05 37.05 80.09 L 32.25 45.09 Z" fill="#c0ddff" fill-rule="nonzero" node-id="27" stroke="none" target-height="51" target-width="78.9672" target-x="31.5878" target-y="36"></path><g node-id="56"><path d="M 88.38 73.07 L 99.88 84.93 L 100.53 85.94 L 100.72 87.06 L 100.49 88.18 L 99.81 89.17 L 99.81 89.17 L 98.80 89.82 L 97.68 90.02 L 96.56 89.78 L 95.57 89.11 L 84.07 77.25 L 83.42 76.24 L 83.22 75.11 L 83.46 74.00 L 84.13 73.01 L 84.13 73.01 L 85.14 72.36 L 86.27 72.16 L 87.38 72.39 L 88.38 73.07 Z" fill="#9bc6ff" fill-rule="nonzero" group-id="1" node-id="31" stroke="none" target-height="17.855927" target-width="17.50142" target-x="83.22266" target-y="72.160385"></path></g><path d="M 95.00 65.50 C 95.00 75.72 86.72 84.00 76.50 84.00 C 66.28 84.00 58.00 75.72 58.00 65.50 C 58.00 55.28 66.28 47.00 76.50 47.00 C 86.72 47.00 95.00 55.28 95.00 65.50 Z" fill="#ffffff" fill-opacity="0.4" fill-rule="nonzero" node-id="34" stroke="none" target-height="37" target-width="37" target-x="58" target-y="47"></path><path d="M 73.50 8.00 C 75.43 8.00 77.00 6.43 77.00 4.50 C 77.00 2.57 75.43 1.00 73.50 1.00 C 71.57 1.00 70.00 2.57 70.00 4.50 C 70.00 6.43 71.57 8.00 73.50 8.00 Z" fill="none" node-id="36" stroke="#ffcd56" stroke-linecap="butt" stroke-width="2" target-height="7" target-width="7" target-x="70" target-y="1"></path><path d="M 45.00 99.00 C 46.10 99.00 47.00 98.10 47.00 97.00 C 47.00 95.90 46.10 95.00 45.00 95.00 C 43.90 95.00 43.00 95.90 43.00 97.00 C 43.00 98.10 43.90 99.00 45.00 99.00 Z" fill="none" node-id="38" stroke="#af97f5" stroke-linecap="butt" stroke-width="1" target-height="4" target-width="4" target-x="43" target-y="95"></path><path d="M 120.00 108.00 C 121.11 108.00 122.00 107.11 122.00 106.00 C 122.00 104.89 121.11 104.00 120.00 104.00 C 118.89 104.00 118.00 104.89 118.00 106.00 C 118.00 107.11 118.89 108.00 120.00 108.00 Z" fill="none" node-id="40" stroke="#e37eff" stroke-linecap="butt" stroke-width="1" target-height="4" target-width="4" target-x="118" target-y="104"></path><path d="M 48.00 25.00 C 49.10 25.00 50.00 24.10 50.00 23.00 C 50.00 21.90 49.10 21.00 48.00 21.00 C 46.90 21.00 46.00 21.90 46.00 23.00 C 46.00 24.10 46.90 25.00 48.00 25.00 Z" fill="none" node-id="42" stroke="#dd7aff" stroke-linecap="butt" stroke-width="1" target-height="4" target-width="4" target-x="46" target-y="21"></path><path d="M 90.00 65.50 C 90.00 72.96 83.96 79.00 76.50 79.00 C 69.04 79.00 63.00 72.96 63.00 65.50 C 63.00 58.04 69.04 52.00 76.50 52.00 C 83.96 52.00 90.00 58.04 90.00 65.50 Z" fill="#ffffff" fill-rule="nonzero" node-id="44" stroke="none" target-height="27" target-width="27" target-x="63" target-y="52"></path><path d="M 102.50 69.00 C 121.50 54.00 124.79 31.25 113.19 35.00 C 101.59 38.75 99.99 47.05 118.19 45.00 C 133.39 43.35 130.19 20.00 130.19 20.00" fill="none" node-id="46" stroke="#a1c7ff" stroke-dasharray="4 4" stroke-linecap="butt" stroke-width="2" target-height="49" target-width="33.399597" target-x="99.9944" target-y="20"></path><path d="M 112.19 5.00 L 117.19 21.00 L 123.19 19.00 C 123.72 19.33 124.17 19.77 124.51 20.29 C 124.85 20.81 125.09 21.39 125.19 22.00 C 125.28 23.78 126.96 20.79 125.19 18.00 L 118.19 11.00 L 127.19 17.00 C 127.67 17.22 128.18 17.33 128.69 17.33 C 129.21 17.33 129.72 17.22 130.19 17.00 C 131.42 16.21 135.19 14.00 135.19 14.00 L 112.19 5.00 Z" fill="#a1c7ff" fill-rule="evenodd" node-id="48" stroke="none" target-height="18.778" target-width="23" target-x="112.194" target-y="5"></path><path d="M 24.00 31.00 L 21.83 38.30 L 19.22 37.39 C 18.99 37.54 18.79 37.75 18.64 37.98 C 18.49 38.22 18.39 38.48 18.35 38.76 C 18.31 39.57 17.58 38.21 18.35 36.93 L 21.39 33.74 L 17.48 36.48 C 17.28 36.57 17.05 36.62 16.82 36.62 C 16.60 36.62 16.37 36.57 16.17 36.48 C 15.64 36.11 14.00 35.11 14.00 35.11 L 24.00 31.00 Z" fill="#c3e0ff" fill-rule="evenodd" node-id="50" stroke="none" target-height="8.568001" target-width="10" target-x="14" target-y="31"></path><path d="M 15.00 89.00 C 13.00 89.00 10.00 88.50 10.00 85.00 C 10.00 80.50 13.00 80.00 15.00 80.00 C 16.60 80.00 27.33 80.00 32.50 80.00" fill="none" node-id="52" stroke="#a1ceff" stroke-linecap="round" stroke-width="2" target-height="9" target-width="22.5" target-x="10" target-y="80"></path><path d="M 6.00 67.00 C 4.00 67.00 1.00 67.50 1.00 71.00 C 1.00 75.50 4.00 76.00 6.00 76.00 C 7.60 76.00 18.33 76.00 23.50 76.00" fill="none" node-id="54" stroke="#a1ceff" stroke-linecap="round" stroke-width="2" target-height="9" target-width="22.5" target-x="1" target-y="67"></path></svg>