<?xml version="1.0" standalone="no"?><!DOCTYPE svg PUBLIC "-//W3C//DTD SVG 1.1//EN" "http://www.w3.org/Graphics/SVG/1.1/DTD/svg11.dtd"><svg height="480" node-id="1" sillyvg="true" template-height="480" template-width="480" version="1.1" viewBox="0 0 480 480" width="480" xmlns="http://www.w3.org/2000/svg" xmlns:xlink="http://www.w3.org/1999/xlink"><defs node-id="30"><linearGradient gradientUnits="objectBoundingBox" id="linearGradient-2" node-id="9" spreadMethod="pad" x1="0" x2="1" y1="0.37320268" y2="0.37320268"><stop offset="0" stop-color="#1fabfb"></stop><stop offset="1" stop-color="#406cfc"></stop></linearGradient><linearGradient gradientUnits="objectBoundingBox" id="linearGradient-3" node-id="12" spreadMethod="pad" x1="0" x2="1" y1="0.5" y2="0.5"><stop offset="0" stop-color="#fff1e4"></stop><stop offset="1" stop-color="#ffdbc5"></stop></linearGradient><filter height="7" id="filter-1" node-id="7" width="1.217" x="-0.109" y="-3"><feGaussianBlur color-interpolation-filters="linearRGB" in="SourceGraphic" result="result1" stdDeviation="8 8"></feGaussianBlur></filter></defs><g node-id="47"><g node-id="48"><path d="M 132.00 95.00 L 358.00 95.00 L 359.83 95.17 L 361.50 95.63 L 363.05 96.37 L 364.45 97.36 L 365.64 98.55 L 366.63 99.95 L 367.37 101.50 L 367.83 103.17 L 368.00 105.00 L 368.00 109.00 L 367.83 110.83 L 367.37 112.50 L 366.63 114.05 L 365.64 115.45 L 364.45 116.64 L 363.05 117.63 L 361.50 118.37 L 359.83 118.83 L 358.00 119.00 L 132.00 119.00 L 130.17 118.83 L 128.50 118.37 L 126.95 117.63 L 125.55 116.64 L 124.36 115.45 L 123.37 114.05 L 122.63 112.50 L 122.17 110.83 L 122.00 109.00 L 122.00 105.00 L 122.17 103.17 L 122.63 101.50 L 123.37 99.95 L 124.36 98.55 L 125.55 97.36 L 126.95 96.37 L 128.50 95.63 L 130.17 95.17 L 132.00 95.00 Z" fill="#eeeeee" fill-rule="evenodd" group-id="1,2" id="矩形" node-id="18" stroke="none" target-height="24" target-width="246" target-x="122" target-y="95"></path><path d="M 104.00 144.00 L 376.00 144.00 L 377.83 144.17 L 379.50 144.63 L 381.05 145.37 L 382.45 146.36 L 383.64 147.55 L 384.63 148.95 L 385.37 150.50 L 385.83 152.17 L 386.00 154.00 L 386.00 157.00 L 385.83 158.83 L 385.37 160.50 L 384.63 162.05 L 383.64 163.45 L 382.45 164.64 L 381.05 165.63 L 379.50 166.37 L 377.83 166.83 L 376.00 167.00 L 104.00 167.00 L 102.17 166.83 L 100.50 166.37 L 98.95 165.63 L 97.55 164.64 L 96.36 163.45 L 95.37 162.05 L 94.63 160.50 L 94.17 158.83 L 94.00 157.00 L 94.00 154.00 L 94.17 152.17 L 94.63 150.50 L 95.37 148.95 L 96.36 147.55 L 97.55 146.36 L 98.95 145.37 L 100.50 144.63 L 102.17 144.17 L 104.00 144.00 Z" fill="#eeeeee" fill-rule="evenodd" group-id="1,2" id="矩形备份" node-id="19" stroke="none" target-height="23" target-width="292" target-x="94" target-y="144"></path><path d="M 106.00 247.00 L 377.00 247.00 L 378.83 247.17 L 380.50 247.63 L 382.05 248.37 L 383.45 249.36 L 384.64 250.55 L 385.63 251.95 L 386.37 253.50 L 386.83 255.17 L 387.00 257.00 L 387.00 260.00 L 386.83 261.83 L 386.37 263.50 L 385.63 265.05 L 384.64 266.45 L 383.45 267.64 L 382.05 268.63 L 380.50 269.37 L 378.83 269.83 L 377.00 270.00 L 106.00 270.00 L 104.17 269.83 L 102.50 269.37 L 100.95 268.63 L 99.55 267.64 L 98.36 266.45 L 97.37 265.05 L 96.63 263.50 L 96.17 261.83 L 96.00 260.00 L 96.00 257.00 L 96.17 255.17 L 96.63 253.50 L 97.37 251.95 L 98.36 250.55 L 99.55 249.36 L 100.95 248.37 L 102.50 247.63 L 104.17 247.17 L 106.00 247.00 Z" fill="#eeeeee" fill-rule="evenodd" group-id="1,2" id="矩形备份-2" node-id="20" stroke="none" target-height="23" target-width="291" target-x="96" target-y="247"></path><path d="M 85.00 194.00 L 394.00 194.00 L 395.83 194.17 L 397.50 194.63 L 399.05 195.37 L 400.45 196.36 L 401.64 197.55 L 402.63 198.95 L 403.37 200.50 L 403.83 202.17 L 404.00 204.00 L 404.00 207.00 L 403.83 208.83 L 403.37 210.50 L 402.63 212.05 L 401.64 213.45 L 400.45 214.64 L 399.05 215.63 L 397.50 216.37 L 395.83 216.83 L 394.00 217.00 L 85.00 217.00 L 83.17 216.83 L 81.50 216.37 L 79.95 215.63 L 78.55 214.64 L 77.36 213.45 L 76.37 212.05 L 75.63 210.50 L 75.17 208.83 L 75.00 207.00 L 75.00 204.00 L 75.17 202.17 L 75.63 200.50 L 76.37 198.95 L 77.36 197.55 L 78.55 196.36 L 79.95 195.37 L 81.50 194.63 L 83.17 194.17 L 85.00 194.00 Z" fill="#eeeeee" fill-rule="evenodd" group-id="1,2" id="矩形备份-3" node-id="21" stroke="none" target-height="23" target-width="329" target-x="75" target-y="194"></path><path d="M 132.00 296.00 L 347.00 296.00 L 348.83 296.17 L 350.50 296.63 L 352.05 297.37 L 353.45 298.36 L 354.64 299.55 L 355.63 300.95 L 356.37 302.50 L 356.83 304.17 L 357.00 306.00 L 357.00 310.00 L 356.83 311.83 L 356.37 313.50 L 355.63 315.05 L 354.64 316.45 L 353.45 317.64 L 352.05 318.63 L 350.50 319.37 L 348.83 319.83 L 347.00 320.00 L 132.00 320.00 L 130.17 319.83 L 128.50 319.37 L 126.95 318.63 L 125.55 317.64 L 124.36 316.45 L 123.37 315.05 L 122.63 313.50 L 122.17 311.83 L 122.00 310.00 L 122.00 306.00 L 122.17 304.17 L 122.63 302.50 L 123.37 300.95 L 124.36 299.55 L 125.55 298.36 L 126.95 297.37 L 128.50 296.63 L 130.17 296.17 L 132.00 296.00 Z" fill="#eeeeee" fill-rule="evenodd" group-id="1,2" id="矩形备份-5" node-id="22" stroke="none" target-height="24" target-width="235" target-x="122" target-y="296"></path><g node-id="50"><path d="M 350.00 381.00 L 349.72 381.28 L 348.32 381.70 L 344.37 382.26 L 338.23 382.80 L 328.68 383.36 L 304.76 384.23 L 274.43 384.80 L 239.50 385.00 L 204.57 384.80 L 174.24 384.23 L 150.32 383.36 L 140.77 382.80 L 134.63 382.26 L 130.68 381.70 L 129.28 381.28 L 129.00 381.00 L 129.28 380.72 L 130.68 380.30 L 134.63 379.74 L 140.77 379.20 L 150.32 378.64 L 174.24 377.77 L 204.57 377.20 L 239.50 377.00 L 274.43 377.20 L 304.76 377.77 L 328.68 378.64 L 338.23 379.20 L 344.37 379.74 L 348.32 380.30 L 349.72 380.72 L 350.00 381.00 Z" fill="#3d3d3d" fill-opacity="0.4" fill-rule="evenodd" filter="url(#filter-1)" group-id="1,2,4" id="椭圆形" node-id="23" stroke="none" target-height="8" target-width="221" target-x="129" target-y="377"></path></g></g><g node-id="49"><path d="M 287.51 240.00 L 290.68 240.25 L 292.40 240.00 L 300.00 240.00 L 301.63 240.23 L 303.03 240.81 L 304.24 241.76 L 305.19 242.97 L 305.77 244.37 L 306.00 246.00 L 305.69 247.91 L 304.84 249.55 L 303.54 250.84 L 301.89 251.70 L 300.45 253.80 L 299.37 256.15 L 298.70 258.67 L 298.46 261.38 L 298.65 263.78 L 299.18 266.03 L 300.04 268.17 L 301.19 270.12 L 302.52 270.56 L 303.65 271.24 L 304.62 272.18 L 305.36 273.30 L 305.82 274.57 L 306.00 276.00 L 305.77 277.63 L 305.19 279.03 L 304.24 280.24 L 303.03 281.19 L 301.63 281.77 L 300.00 282.00 L 292.40 282.00 L 290.68 281.75 L 287.51 282.00 L 182.00 282.00 L 178.35 281.66 L 175.00 280.75 L 171.91 279.27 L 169.10 277.28 L 166.72 274.90 L 164.73 272.09 L 163.25 269.00 L 162.34 265.65 L 162.00 262.00 L 162.00 260.00 L 162.34 256.35 L 163.25 253.00 L 164.73 249.91 L 166.72 247.10 L 169.10 244.72 L 171.91 242.73 L 175.00 241.25 L 178.35 240.34 L 182.00 240.00 L 184.62 240.00 L 184.62 269.25 L 203.47 247.80 L 222.31 269.25 L 222.31 240.00 L 287.51 240.00 Z M 287.51 190.50 L 290.68 190.75 L 292.40 190.50 L 300.00 190.50 L 301.63 190.73 L 303.03 191.31 L 304.24 192.26 L 305.19 193.47 L 305.77 194.87 L 306.00 196.50 L 305.69 198.41 L 304.84 200.05 L 303.54 201.34 L 301.89 202.20 L 300.45 204.30 L 299.37 206.65 L 298.70 209.17 L 298.46 211.88 L 298.65 214.28 L 299.18 216.53 L 300.04 218.67 L 301.19 220.62 L 302.52 221.06 L 303.65 221.74 L 304.62 222.68 L 305.36 223.80 L 305.82 225.07 L 306.00 226.50 L 305.77 228.13 L 305.19 229.53 L 304.24 230.74 L 303.03 231.69 L 301.63 232.27 L 300.00 232.50 L 292.40 232.50 L 290.68 232.25 L 287.51 232.50 L 222.31 232.50 L 222.31 190.50 L 287.51 190.50 Z M 184.62 190.50 L 184.62 232.50 L 182.00 232.50 L 178.35 232.16 L 175.00 231.25 L 171.91 229.77 L 169.10 227.78 L 166.72 225.40 L 164.73 222.59 L 163.25 219.50 L 162.34 216.15 L 162.00 212.50 L 162.00 210.50 L 162.34 206.85 L 163.25 203.50 L 164.73 200.41 L 166.72 197.60 L 169.10 195.22 L 171.91 193.23 L 175.00 191.75 L 178.35 190.84 L 182.00 190.50 L 184.62 190.50 Z M 287.51 141.00 L 290.68 141.25 L 292.40 141.00 L 300.00 141.00 L 301.63 141.23 L 303.03 141.81 L 304.24 142.76 L 305.19 143.97 L 305.77 145.37 L 306.00 147.00 L 305.69 148.91 L 304.84 150.55 L 303.54 151.84 L 301.89 152.70 L 300.45 154.80 L 299.37 157.15 L 298.70 159.67 L 298.46 162.38 L 298.65 164.78 L 299.18 167.03 L 300.04 169.17 L 301.19 171.12 L 302.52 171.56 L 303.65 172.24 L 304.62 173.18 L 305.36 174.30 L 305.82 175.57 L 306.00 177.00 L 305.77 178.63 L 305.19 180.03 L 304.24 181.24 L 303.03 182.19 L 301.63 182.77 L 300.00 183.00 L 292.40 183.00 L 290.68 182.75 L 287.51 183.00 L 222.31 183.00 L 222.31 161.50 L 222.06 159.64 L 221.40 158.03 L 220.34 156.63 L 218.97 155.53 L 217.40 154.82 L 215.55 154.50 L 215.31 154.50 L 191.62 154.50 L 189.74 154.75 L 188.08 155.46 L 186.67 156.55 L 185.57 157.97 L 184.87 159.62 L 184.62 161.50 L 184.62 161.50 L 184.62 183.00 L 182.00 183.00 L 178.35 182.66 L 175.00 181.75 L 171.91 180.27 L 169.10 178.28 L 166.72 175.90 L 164.73 173.09 L 163.25 170.00 L 162.34 166.65 L 162.00 163.00 L 162.00 161.00 L 162.34 157.35 L 163.25 154.00 L 164.73 150.91 L 166.72 148.10 L 169.10 145.72 L 171.91 143.73 L 175.00 142.25 L 178.35 141.34 L 182.00 141.00 L 287.51 141.00 Z" fill="url(#linearGradient-2)" fill-rule="evenodd" group-id="1,3" id="形状结合" node-id="25" stroke="none" target-height="141" target-width="144" target-x="162" target-y="141"></path><path d="M 199.00 163.00 L 208.00 163.00 L 209.88 163.25 L 211.53 163.96 L 212.95 165.05 L 214.04 166.47 L 214.75 168.12 L 215.00 170.00 L 215.00 249.00 L 215.00 249.00 L 203.50 234.32 L 192.00 249.00 L 192.00 170.00 L 192.25 168.12 L 192.96 166.47 L 194.05 165.05 L 195.47 163.96 L 197.12 163.25 L 199.00 163.00 Z" fill="#b2dfff" fill-rule="evenodd" group-id="1,3" id="矩形备份-10" node-id="26" stroke="none" target-height="86" target-width="23" target-x="192" target-y="163"></path><path d="M 317.00 266.50 L 316.71 270.69 L 315.91 274.63 L 314.60 278.37 L 312.82 281.91 L 310.65 285.13 L 308.07 288.07 L 305.13 290.65 L 301.91 292.82 L 298.37 294.60 L 294.63 295.91 L 290.69 296.71 L 286.50 297.00 L 282.31 296.71 L 278.37 295.91 L 274.63 294.60 L 271.09 292.82 L 267.87 290.65 L 264.93 288.07 L 262.35 285.13 L 260.18 281.91 L 258.40 278.37 L 257.09 274.63 L 256.29 270.69 L 256.00 266.50 L 256.29 262.31 L 257.09 258.37 L 258.40 254.63 L 260.18 251.09 L 262.35 247.87 L 264.93 244.93 L 267.87 242.35 L 271.09 240.18 L 274.63 238.40 L 278.37 237.09 L 282.31 236.29 L 286.50 236.00 L 290.69 236.29 L 294.63 237.09 L 298.37 238.40 L 301.91 240.18 L 305.13 242.35 L 308.07 244.93 L 310.65 247.87 L 312.82 251.09 L 314.60 254.63 L 315.91 258.37 L 316.71 262.31 L 317.00 266.50 Z" fill="url(#linearGradient-3)" fill-rule="evenodd" group-id="1,3" id="椭圆形" node-id="27" stroke="none" target-height="61" target-width="61" target-x="256" target-y="236"></path><path d="M 274.68 267.75 L 296.29 267.75 L 296.29 270.79 L 287.10 270.79 L 287.10 276.90 L 298.91 276.90 L 298.91 280.00 L 272.06 280.00 L 272.06 276.90 L 283.80 276.90 L 283.80 270.79 L 274.68 270.79 L 274.68 267.75 Z M 288.63 259.32 L 293.29 261.71 L 297.44 264.53 L 295.61 267.29 L 292.72 265.11 L 289.83 263.31 L 286.95 261.86 L 288.63 259.32 Z M 281.62 259.50 L 283.65 261.80 L 281.05 263.80 L 278.04 265.60 L 274.58 267.19 L 273.18 264.25 L 276.53 262.84 L 279.32 261.25 L 281.62 259.50 Z M 286.08 252.00 L 287.17 255.01 L 299.00 255.01 L 299.00 261.74 L 295.73 261.74 L 295.73 257.98 L 275.27 257.98 L 275.27 261.71 L 272.00 261.71 L 272.00 255.01 L 283.74 255.01 L 282.53 252.56 L 286.08 252.00 Z" fill="#ebb799" fill-rule="nonzero" group-id="1,3" id="空" node-id="28" stroke="none" target-height="28" target-width="27" target-x="272" target-y="252"></path></g></g></svg>