<?xml version="1.0" standalone="no"?><!DOCTYPE svg PUBLIC "-//W3C//DTD SVG 1.1//EN" "http://www.w3.org/Graphics/SVG/1.1/DTD/svg11.dtd"><svg height="1024" node-id="1" sillyvg="true" template-height="1024" template-width="1024" version="1.1" viewBox="0 0 1024 1024" width="1024" xmlns="http://www.w3.org/2000/svg" xmlns:xlink="http://www.w3.org/1999/xlink"><defs node-id="123"><linearGradient gradientUnits="userSpaceOnUse" id="SVGID_1_" node-id="4" spreadMethod="pad" x1="512.68" x2="512.68" y1="-92.74" y2="-328.9"><stop offset="0.2885" stop-color="#ffffff" stop-opacity="0"></stop><stop offset="0.3617" stop-color="#fffcf6" stop-opacity="0.1029"></stop><stop offset="0.4789" stop-color="#fef2df" stop-opacity="0.2676"></stop><stop offset="0.6255" stop-color="#fee3b9" stop-opacity="0.4736"></stop><stop offset="0.7956" stop-color="#fccd84" stop-opacity="0.7128"></stop><stop offset="0.9836" stop-color="#fbb241" stop-opacity="0.977"></stop><stop offset="1" stop-color="#fbb03b"></stop></linearGradient><linearGradient gradientUnits="userSpaceOnUse" id="SVGID_2_" node-id="16" spreadMethod="pad" x1="120.39" x2="120.39" y1="-191.7267" y2="-227.2567"><stop offset="0.2885" stop-color="#ffffff"></stop><stop offset="0.3617" stop-color="#fffcf6"></stop><stop offset="0.4789" stop-color="#fef2df"></stop><stop offset="0.6255" stop-color="#fee3b9"></stop><stop offset="0.7956" stop-color="#fccd84"></stop><stop offset="0.9836" stop-color="#fbb241"></stop><stop offset="1" stop-color="#fbb03b"></stop></linearGradient><linearGradient gradientUnits="userSpaceOnUse" id="SVGID_3_" node-id="28" spreadMethod="pad" x1="838.705" x2="838.705" y1="-166.7201" y2="-190.3992"><stop offset="0.2885" stop-color="#ffffff" stop-opacity="0"></stop><stop offset="0.3617" stop-color="#fffcf6" stop-opacity="0.1029"></stop><stop offset="0.4789" stop-color="#fef2df" stop-opacity="0.2676"></stop><stop offset="0.6255" stop-color="#fee3b9" stop-opacity="0.4736"></stop><stop offset="0.7956" stop-color="#fccd84" stop-opacity="0.7128"></stop><stop offset="0.9836" stop-color="#fbb241" stop-opacity="0.977"></stop><stop offset="1" stop-color="#fbb03b"></stop></linearGradient><linearGradient gradientUnits="userSpaceOnUse" id="SVGID_4_" node-id="39" spreadMethod="pad" x1="906.12" x2="906.12" y1="-151.695" y2="-169.9318"><stop offset="0.2885" stop-color="#ffffff" stop-opacity="0"></stop><stop offset="0.3617" stop-color="#fffcf6" stop-opacity="0.1029"></stop><stop offset="0.4789" stop-color="#fef2df" stop-opacity="0.2676"></stop><stop offset="0.6255" stop-color="#fee3b9" stop-opacity="0.4736"></stop><stop offset="0.7956" stop-color="#fccd84" stop-opacity="0.7128"></stop><stop offset="0.9836" stop-color="#fbb241" stop-opacity="0.977"></stop><stop offset="1" stop-color="#fbb03b"></stop></linearGradient><linearGradient gradientUnits="userSpaceOnUse" id="SVGID_5_" node-id="48" spreadMethod="pad" x1="817.01" x2="817.01" y1="-793.09" y2="-931.15"><stop offset="0.2273" stop-color="#ffffff"></stop><stop offset="1" stop-color="#f7931e"></stop></linearGradient><linearGradient gradientUnits="userSpaceOnUse" id="SVGID_6_" node-id="52" spreadMethod="pad" x1="785.01" x2="785.01" y1="-770.93" y2="-908.99"><stop offset="0.2273" stop-color="#ffffff"></stop><stop offset="1" stop-color="#f7931e"></stop></linearGradient><linearGradient gradientUnits="userSpaceOnUse" id="SVGID_7_" node-id="57" spreadMethod="pad" x1="261.16" x2="261.16" y1="-592.92" y2="-838.48"><stop offset="0.2273" stop-color="#ffffff"></stop><stop offset="1" stop-color="#f7931e"></stop></linearGradient><linearGradient gradientUnits="userSpaceOnUse" id="SVGID_8_" node-id="61" spreadMethod="pad" x1="296.45" x2="296.45" y1="-511.12" y2="-740.26"><stop offset="0.2273" stop-color="#ffffff"></stop><stop offset="1" stop-color="#f7931e"></stop></linearGradient><linearGradient gradientUnits="userSpaceOnUse" id="SVGID_9_" node-id="65" spreadMethod="pad" x1="225.63" x2="225.63" y1="-569.05" y2="-752.77"><stop offset="0.2273" stop-color="#ffffff"></stop><stop offset="1" stop-color="#f7931e"></stop></linearGradient><linearGradient gradientUnits="userSpaceOnUse" id="SVGID_10_" node-id="98" spreadMethod="pad" x1="876.1" x2="876.1" y1="-808.43" y2="-835.51"><stop offset="0.2273" stop-color="#ffffff" stop-opacity="0"></stop><stop offset="1" stop-color="#f7931e"></stop></linearGradient><linearGradient gradientUnits="userSpaceOnUse" id="SVGID_11_" node-id="102" spreadMethod="pad" x1="864.415" x2="864.415" y1="-812.42" y2="-852.12"><stop offset="0.148" stop-color="#ffffff"></stop><stop offset="1" stop-color="#f7931e"></stop></linearGradient><linearGradient gradientTransform="matrix(1 0.0031079 0.0031079 -1 -2.4798 1021.323)" gradientUnits="userSpaceOnUse" id="SVGID_12_" node-id="106" spreadMethod="pad" x1="887.6706" x2="887.6706" y1="813.5054" y2="853.2155"><stop offset="0.148" stop-color="#ffffff"></stop><stop offset="1" stop-color="#f7931e"></stop></linearGradient><linearGradient gradientUnits="userSpaceOnUse" id="SVGID_13_" node-id="110" spreadMethod="pad" x1="393.595" x2="393.595" y1="-720.29" y2="-764.9301"><stop offset="0.2273" stop-color="#ffffff" stop-opacity="0"></stop><stop offset="1" stop-color="#f7931e"></stop></linearGradient><linearGradient gradientUnits="userSpaceOnUse" id="SVGID_14_" node-id="114" spreadMethod="pad" x1="374.34" x2="374.34" y1="-726.87" y2="-792.31"><stop offset="0.148" stop-color="#ffffff"></stop><stop offset="1" stop-color="#f7931e"></stop></linearGradient><linearGradient gradientTransform="matrix(1 0.0031079 0.0031079 -1 -2.4798 1021.323)" gradientUnits="userSpaceOnUse" id="SVGID_15_" node-id="118" spreadMethod="pad" x1="412.9794" x2="412.9794" y1="726.4766" y2="791.9166"><stop offset="0.148" stop-color="#ffffff"></stop><stop offset="1" stop-color="#f7931e"></stop></linearGradient></defs><path d="M 980.50 812.20 C 980.50 843.52 931.21 873.56 843.48 895.71 C 755.76 917.86 636.77 930.30 512.70 930.30 C 388.63 930.30 269.64 917.86 181.92 895.71 C 94.19 873.56 44.90 843.52 44.90 812.20 C 44.90 780.88 94.19 750.84 181.92 728.69 C 269.64 706.54 388.63 694.10 512.70 694.10 C 636.77 694.10 755.76 706.54 843.48 728.69 C 931.21 750.84 980.50 780.88 980.50 812.20 Z" fill="url(#SVGID_1_)" fill-rule="nonzero" node-id="256" stroke="none" target-height="236.20001" target-width="935.6" target-x="44.9" target-y="694.1"></path><g node-id="398"><g node-id="412"><path d="M 103.20 714.90 L 90.60 758.60 C 87.30 770.20 96.00 781.80 108.10 781.80 L 133.20 781.80 C 145.30 781.80 154.00 770.20 150.70 758.60 L 138.10 714.90 C 133.20 697.30 108.30 697.30 103.20 714.90 Z" fill="#fbb03b" fill-opacity="0.87" fill-rule="nonzero" group-id="1,15" node-id="262" stroke="none" target-height="84.5" target-width="66.7" target-x="87.3" target-y="697.3"></path><path d="M 121.40 830.10 L 119.50 830.10 C 116.30 830.10 113.70 827.50 113.70 824.30 L 113.70 781.80 L 127.20 781.80 L 127.20 824.30 C 127.20 827.50 124.60 830.10 121.40 830.10 Z" fill="url(#SVGID_2_)" fill-opacity="0.87" fill-rule="nonzero" group-id="1,15" node-id="264" stroke="none" target-height="48.299988" target-width="13.5" target-x="113.7" target-y="781.8"></path></g><g node-id="413"><g node-id="418"><path d="M 823.20 767.60 L 807.60 796.40 C 801.00 808.50 809.80 823.30 823.60 823.30 L 854.90 823.30 C 868.70 823.30 877.50 808.50 870.90 796.40 L 855.30 767.60 C 848.30 754.90 830.00 754.90 823.20 767.60 Z" fill="#fbb03b" fill-opacity="0.68" fill-rule="nonzero" group-id="1,16,21" node-id="271" stroke="none" target-height="68.39996" target-width="76.5" target-x="801" target-y="754.9"></path><path d="M 839.90 855.50 L 837.40 855.50 C 833.40 855.50 830.10 852.20 830.10 848.20 L 830.10 823.30 L 847.10 823.30 L 847.10 848.20 C 847.20 852.30 844.00 855.50 839.90 855.50 Z" fill="url(#SVGID_3_)" fill-opacity="0.68" fill-rule="nonzero" group-id="1,16,21" node-id="273" stroke="none" target-height="32.200012" target-width="17.100037" target-x="830.1" target-y="823.3"></path></g><g node-id="419"><path d="M 890.50 809.70 L 885.40 819.10 C 878.80 831.20 887.60 845.90 901.30 845.90 L 911.50 845.90 C 925.30 845.90 934.00 831.20 927.40 819.10 L 922.30 809.70 C 915.50 797.10 897.40 797.10 890.50 809.70 Z" fill="#fbb03b" fill-opacity="0.68" fill-rule="nonzero" group-id="1,16,22" node-id="278" stroke="none" target-height="48.80005" target-width="55.200012" target-x="878.8" target-y="797.1"></path><path d="M 907.10 870.70 L 905.20 870.70 C 902.10 870.70 899.60 868.20 899.60 865.10 L 899.60 845.90 L 912.70 845.90 L 912.70 865.10 C 912.70 868.20 910.20 870.70 907.10 870.70 Z" fill="url(#SVGID_4_)" fill-opacity="0.68" fill-rule="nonzero" group-id="1,16,22" node-id="280" stroke="none" target-height="24.799988" target-width="13.100037" target-x="899.6" target-y="845.9"></path></g></g></g><g node-id="399"><path d="M 834.10 160.90 C 834.10 199.01 826.44 229.90 817.00 229.90 C 807.56 229.90 799.90 199.01 799.90 160.90 C 799.90 122.79 807.56 91.90 817.00 91.90 C 826.44 91.90 834.10 122.79 834.10 160.90 Z" fill="url(#SVGID_5_)" fill-opacity="0.46" fill-rule="nonzero" group-id="2" node-id="287" stroke="none" target-height="138" target-width="34.19995" target-x="799.9" target-y="91.9"></path></g><g node-id="400"><path d="M 802.10 183.00 C 802.10 221.11 794.44 252.00 785.00 252.00 C 775.56 252.00 767.90 221.11 767.90 183.00 C 767.90 144.89 775.56 114.00 785.00 114.00 C 794.44 114.00 802.10 144.89 802.10 183.00 Z" fill="url(#SVGID_6_)" fill-opacity="0.46" fill-rule="nonzero" group-id="3" node-id="292" stroke="none" target-height="138" target-width="34.19995" target-x="767.9" target-y="114"></path></g><g node-id="401"><g node-id="414"><path d="M 302.70 307.30 C 302.70 375.12 284.12 430.10 261.20 430.10 C 238.28 430.10 219.70 375.12 219.70 307.30 C 219.70 239.48 238.28 184.50 261.20 184.50 C 284.12 184.50 302.70 239.48 302.70 307.30 Z" fill="url(#SVGID_7_)" fill-opacity="0.46" fill-rule="nonzero" group-id="4,17" node-id="299" stroke="none" target-height="245.6" target-width="83.000015" target-x="219.7" target-y="184.5"></path></g><g node-id="415"><path d="M 325.00 397.30 C 325.00 460.59 312.24 511.90 296.50 511.90 C 280.76 511.90 268.00 460.59 268.00 397.30 C 268.00 334.01 280.76 282.70 296.50 282.70 C 312.24 282.70 325.00 334.01 325.00 397.30 Z" fill="url(#SVGID_8_)" fill-opacity="0.75" fill-rule="nonzero" group-id="4,18" node-id="304" stroke="none" target-height="229.19998" target-width="57" target-x="268" target-y="282.7"></path></g><path d="M 268.00 362.10 C 268.00 412.85 249.02 454.00 225.60 454.00 C 202.18 454.00 183.20 412.85 183.20 362.10 C 183.20 311.35 202.18 270.20 225.60 270.20 C 249.02 270.20 268.00 311.35 268.00 362.10 Z" fill="url(#SVGID_9_)" fill-opacity="0.78" fill-rule="nonzero" group-id="4,19" node-id="309" stroke="none" target-height="183.79999" target-width="84.8" target-x="183.2" target-y="270.2"></path></g><g node-id="402"><path d="M 468.80 454.50 L 662.90 454.50 C 671.20 454.50 675.40 458.70 675.40 467.00 L 675.40 717.50 C 675.40 725.80 671.20 730.00 662.90 730.00 L 468.70 730.00 C 460.30 730.00 456.20 725.80 456.20 717.50 L 456.20 467.00 C 456.20 458.70 460.40 454.50 468.80 454.50 Z" fill="#fbb03b" fill-rule="nonzero" group-id="5" node-id="315" stroke="none" target-height="275.5" target-width="219.20001" target-x="456.2" target-y="454.5"></path><path d="M 500.10 429.50 L 694.20 429.50 C 701.10 429.50 706.70 435.10 706.70 442.00 L 706.70 674.60 L 506.70 711.20 L 500.00 711.20 C 493.10 711.20 487.50 705.60 487.50 698.70 L 487.50 442.00 C 487.50 435.10 493.10 429.50 500.10 429.50 Z" fill="#ffece2" fill-rule="nonzero" group-id="5" node-id="317" stroke="none" target-height="281.7" target-width="219.20001" target-x="487.5" target-y="429.5"></path><path d="M 518.80 479.60 L 675.30 479.60 C 683.60 479.60 687.80 483.80 687.80 492.10 L 687.80 542.20 C 687.80 550.50 683.60 554.70 675.30 554.70 L 518.80 554.70 C 510.40 554.70 506.30 550.50 506.30 542.20 L 506.30 492.10 C 506.30 483.80 510.50 479.60 518.80 479.60 Z" fill="#fddbb0" fill-rule="nonzero" group-id="5" node-id="319" stroke="none" target-height="75.100006" target-width="181.5" target-x="506.3" target-y="479.6"></path><path d="M 515.70 586.00 L 678.50 586.00 C 684.80 586.00 687.90 589.10 687.90 595.40 L 687.90 595.40 C 687.90 601.70 684.80 604.80 678.50 604.80 L 515.70 604.80 C 509.40 604.80 506.30 601.70 506.30 595.40 L 506.30 595.40 C 506.30 589.20 509.50 586.00 515.70 586.00 Z" fill="#fddbb0" fill-rule="nonzero" group-id="5" node-id="321" stroke="none" target-height="18.799988" target-width="181.60004" target-x="506.3" target-y="586"></path><path d="M 515.70 617.30 L 597.10 617.30 C 603.40 617.30 606.50 620.40 606.50 626.70 L 606.50 626.70 C 606.50 633.00 603.40 636.10 597.10 636.10 L 515.70 636.10 C 509.40 636.10 506.30 633.00 506.30 626.70 L 506.30 626.70 C 506.30 620.50 509.50 617.30 515.70 617.30 Z" fill="#fddbb0" fill-rule="nonzero" group-id="5" node-id="323" stroke="none" target-height="18.799988" target-width="100.20001" target-x="506.3" target-y="617.3"></path><g node-id="417"><path d="M 506.30 711.30 C 584.60 683.10 626.70 668.00 632.70 666.00 C 641.70 663.00 651.70 662.90 664.60 673.80 C 673.10 681.10 687.20 678.50 706.70 666.00 L 695.90 681.40 C 666.80 688.60 640.40 694.00 616.80 697.70 C 593.20 701.40 556.40 705.90 506.30 711.30 Z" fill="#f3b889" fill-opacity="0.84" fill-rule="nonzero" group-id="5,20" node-id="327" stroke="none" target-height="48.399963" target-width="200.40002" target-x="506.3" target-y="662.9"></path></g><path d="M 679.60 609.20 L 781.80 654.60 L 744.60 668.50 L 744.80 668.80 L 773.60 701.90 C 778.20 707.10 777.70 715.00 772.60 719.60 C 767.50 724.20 759.50 723.70 754.90 718.60 C 754.80 718.50 754.80 718.40 754.70 718.40 L 725.90 685.30 L 725.20 684.40 L 702.80 713.30 L 679.60 609.20 L 679.60 609.20 Z" fill="#faad14" fill-rule="nonzero" group-id="5" node-id="330" stroke="#ffffff" stroke-linecap="butt" stroke-width="2.6727" target-height="115" target-width="102.20001" target-x="679.6" target-y="609.2"></path></g><g node-id="403"><path d="M 313.30 573.80 L 426.80 573.80 C 430.70 573.80 433.90 577.00 433.90 580.90 L 433.90 637.70 C 433.90 641.60 430.70 644.80 426.80 644.80 L 313.30 644.80 C 309.40 644.80 306.20 641.60 306.20 637.70 L 306.20 581.00 C 306.20 577.00 309.40 573.80 313.30 573.80 Z" fill="#fbb03b" fill-rule="nonzero" group-id="6" node-id="335" stroke="none" target-height="71" target-width="127.69998" target-x="306.2" target-y="573.8"></path><path d="M 371.70 630.60 L 371.70 621.70 L 380.70 621.70 L 380.70 617.80 L 371.70 617.80 L 371.70 612.80 L 371.70 612.70 L 380.70 612.70 L 380.70 608.80 L 373.70 608.80 L 384.20 588.00 L 376.50 588.00 L 368.30 606.00 L 360.10 588.00 L 352.40 588.00 L 362.90 608.80 L 356.00 608.80 L 356.00 612.70 L 364.90 612.70 L 364.90 612.80 L 364.90 617.80 L 355.90 617.80 L 355.90 621.70 L 364.90 621.70 L 364.90 630.60 L 371.70 630.60 L 371.70 630.60 Z" fill="#ffffff" fill-rule="nonzero" group-id="6" node-id="337" stroke="none" target-height="42.599976" target-width="31.800018" target-x="352.4" target-y="588"></path><path d="M 318.70 647.00 C 321.00 647.00 323.10 648.60 324.10 651.00 C 325.50 654.60 324.00 658.90 320.70 660.20 L 307.30 665.60 C 305.90 666.10 305.80 668.30 307.10 669.10 L 323.10 678.30 C 325.40 679.60 328.00 679.80 330.40 679.00 L 364.20 666.70 C 368.80 665.00 373.70 667.90 375.40 673.10 C 377.10 678.50 374.70 684.40 370.10 686.40 L 324.50 706.50 C 321.90 707.70 318.80 707.60 316.20 706.30 L 276.60 687.20 L 285.30 647.00 L 318.70 647.00 L 318.70 647.00 Z" fill="#ffdda8" fill-rule="nonzero" group-id="6" node-id="339" stroke="none" target-height="60.700012" target-width="100.5" target-x="276.6" target-y="647"></path><path d="M 272.40 689.90 L 260.60 686.90 C 258.40 686.30 257.00 684.10 257.60 681.90 L 267.60 641.90 C 268.20 639.70 270.40 638.30 272.60 638.90 C 272.60 638.90 272.60 638.90 272.60 638.90 L 284.40 641.90 C 286.60 642.50 288.00 644.70 287.40 646.90 L 277.40 686.90 C 276.90 689.10 274.60 690.40 272.40 689.90 C 272.40 689.90 272.40 689.90 272.40 689.90 Z" fill="#fbb03b" fill-rule="nonzero" group-id="6" node-id="341" stroke="none" target-height="52.100037" target-width="31" target-x="257" target-y="638.3"></path><path d="M 263.60 680.30 C 263.60 682.30 265.20 683.80 267.10 683.80 C 269.00 683.80 270.60 682.20 270.60 680.30 C 270.60 678.40 269.00 676.80 267.10 676.80 C 265.20 676.80 263.60 678.30 263.60 680.30 Z" fill="#ffffff" fill-rule="nonzero" group-id="6" node-id="343" stroke="none" target-height="7" target-width="7" target-x="263.6" target-y="676.8"></path></g><g node-id="404"><path d="M 916.60 421.90 C 919.00 421.50 921.40 421.80 923.70 422.40 C 926.00 423.00 928.30 423.90 930.40 425.40 C 932.40 426.90 934.20 428.80 935.20 431.20 C 936.30 433.50 936.50 436.10 936.00 438.50 L 935.50 440.60 L 935.30 438.60 L 935.30 438.60 C 935.30 438.50 935.30 438.50 935.30 438.40 L 935.30 438.40 L 935.30 438.30 L 935.30 438.20 L 935.30 438.00 L 935.40 437.60 C 935.50 437.30 935.60 437.10 935.70 436.80 C 935.90 436.30 936.20 435.80 936.50 435.30 C 937.10 434.40 937.80 433.50 938.70 432.80 C 940.40 431.30 942.40 429.90 945.00 429.60 C 946.30 429.50 947.70 429.60 948.90 430.10 C 950.10 430.60 951.10 431.50 951.90 432.40 C 953.40 434.30 954.10 436.40 954.40 438.50 L 953.80 438.70 C 952.60 437.00 951.40 435.30 950.00 434.10 C 948.60 432.90 947.10 432.50 945.60 432.80 C 944.10 433.20 942.50 434.10 940.90 435.20 C 940.10 435.80 939.40 436.40 938.60 437.00 C 938.20 437.30 937.80 437.60 937.30 437.90 L 936.60 438.30 L 936.30 438.50 L 936.10 438.60 L 936.00 438.60 C 936.00 438.60 936.00 438.60 936.00 438.60 C 936.00 438.60 936.00 438.60 936.00 438.60 C 936.00 438.60 936.00 438.50 936.00 438.40 L 936.00 438.40 L 935.30 438.50 C 934.50 436.30 933.60 434.40 932.40 432.80 C 931.20 431.20 929.70 429.80 928.10 428.60 C 926.40 427.40 924.70 426.30 922.70 425.40 C 920.70 424.50 918.70 423.70 916.60 422.70 L 916.60 421.90 Z" fill="#ff7f0a" fill-rule="nonzero" group-id="7" node-id="348" stroke="none" target-height="19.100006" target-width="37.80005" target-x="916.6" target-y="421.5"></path></g><g node-id="405"><path d="M 889.90 456.20 C 891.90 456.00 893.90 456.50 895.60 457.40 C 897.40 458.30 899.00 459.60 900.30 461.20 C 901.50 462.80 902.30 464.70 902.70 466.70 C 903.10 468.70 903.10 470.60 902.60 472.50 L 902.10 474.60 L 902.10 472.50 L 902.10 472.50 L 902.10 472.00 L 902.10 471.60 C 902.10 471.40 902.10 471.10 902.20 470.90 C 902.30 470.40 902.40 470.00 902.60 469.60 C 902.90 468.80 903.30 468.00 903.90 467.20 C 904.40 466.40 905.00 465.70 905.80 465.10 C 906.50 464.50 907.50 463.80 908.70 463.60 C 909.30 463.50 910.00 463.50 910.60 463.70 C 911.20 463.90 911.70 464.20 912.10 464.60 C 912.90 465.40 913.40 466.20 913.80 467.10 C 914.50 468.80 914.80 470.50 914.80 472.30 L 914.30 472.40 C 913.50 470.90 912.80 469.40 911.90 468.10 C 911.50 467.50 911.00 466.90 910.50 466.60 C 910.00 466.30 909.60 466.20 909.20 466.40 C 908.30 466.70 907.10 467.80 906.10 468.90 C 905.60 469.50 905.10 470.10 904.60 470.70 C 904.30 471.00 904.00 471.30 903.70 471.60 C 903.50 471.70 903.40 471.90 903.20 472.00 L 902.90 472.20 L 902.80 472.30 L 902.70 472.30 C 902.70 472.30 902.70 472.40 902.70 472.20 L 902.70 472.20 L 902.10 472.20 C 901.50 470.40 900.90 468.70 900.30 467.10 C 899.60 465.50 898.80 464.10 897.80 462.80 C 896.80 461.50 895.70 460.20 894.40 459.20 C 893.10 458.20 891.50 457.30 889.90 456.40 L 889.90 456.20 Z" fill="#ff7f0a" fill-rule="nonzero" group-id="8" node-id="353" stroke="none" target-height="18.600006" target-width="24.899963" target-x="889.9" target-y="456"></path></g><g node-id="406"><path d="M 829.00 479.30 C 830.30 479.20 831.60 479.50 832.80 479.90 C 834.00 480.30 835.20 480.90 836.20 481.70 C 838.30 483.20 840.20 485.20 841.40 487.50 C 842.70 489.80 843.40 492.30 843.70 494.80 C 844.00 497.30 843.90 499.80 843.30 502.30 L 842.50 505.40 L 842.50 502.40 L 842.50 502.40 L 842.50 502.10 L 842.50 502.00 L 842.50 501.80 L 842.50 501.30 C 842.50 501.00 842.50 500.70 842.60 500.40 C 842.70 499.80 842.80 499.20 842.90 498.70 C 843.20 497.60 843.70 496.50 844.20 495.50 C 844.80 494.50 845.40 493.50 846.20 492.50 C 846.60 492.00 847.10 491.60 847.70 491.10 C 848.30 490.70 849.00 490.30 849.90 490.10 C 850.80 489.90 851.90 490.10 852.60 490.50 C 853.40 490.90 853.90 491.50 854.30 492.00 C 855.10 493.10 855.60 494.30 855.90 495.40 C 856.60 497.60 856.90 499.90 856.80 502.20 L 856.10 502.30 C 855.10 500.30 854.40 498.20 853.40 496.40 C 852.90 495.50 852.40 494.60 851.80 494.00 C 851.50 493.70 851.20 493.50 851.00 493.50 C 850.80 493.40 850.70 493.50 850.50 493.50 C 850.10 493.60 849.40 494.10 848.80 494.80 C 848.20 495.50 847.60 496.30 847.00 497.10 C 846.40 498.00 845.90 498.80 845.20 499.70 C 844.90 500.10 844.50 500.60 844.20 501.00 C 844.00 501.20 843.80 501.40 843.70 501.60 L 843.40 501.90 L 843.20 502.00 L 843.10 502.10 C 843.10 502.10 843.10 502.20 843.00 502.10 L 843.00 502.10 L 842.30 502.10 C 841.50 499.80 840.90 497.50 840.20 495.30 C 839.40 493.20 838.70 491.10 837.60 489.20 C 836.60 487.30 835.40 485.50 833.90 483.90 C 832.40 482.40 830.60 481.00 828.60 479.80 L 829.00 479.30 Z" fill="#ff7f0a" fill-rule="nonzero" group-id="9" node-id="358" stroke="none" target-height="26.199982" target-width="28.300049" target-x="828.6" target-y="479.2"></path></g><g node-id="407"><path d="M 823.10 421.90 C 825.30 421.60 827.40 422.00 829.40 422.70 C 831.40 423.50 833.40 424.60 835.00 426.20 C 835.80 427.00 836.50 427.90 837.10 428.80 C 837.70 429.80 838.10 430.80 838.40 431.90 C 839.00 434.00 839.10 436.30 838.60 438.30 L 838.10 440.40 L 838.00 438.40 L 838.00 438.40 L 838.00 437.80 L 838.00 437.40 C 838.00 437.10 838.10 436.90 838.20 436.70 C 838.30 436.20 838.50 435.80 838.70 435.30 C 839.10 434.40 839.70 433.60 840.40 432.80 C 841.10 432.00 841.80 431.30 842.70 430.70 C 843.60 430.10 844.60 429.60 845.90 429.40 C 847.10 429.20 848.50 429.50 849.50 430.20 C 850.50 430.90 851.20 431.70 851.70 432.70 C 852.70 434.50 853.20 436.40 853.30 438.30 L 852.70 438.50 C 851.70 436.90 850.80 435.30 849.80 434.00 C 849.30 433.40 848.70 432.90 848.10 432.60 C 847.50 432.30 847.00 432.30 846.40 432.50 C 845.20 432.80 843.90 433.80 842.60 435.00 C 842.00 435.60 841.40 436.20 840.70 436.80 C 840.40 437.10 840.00 437.40 839.70 437.70 C 839.50 437.80 839.30 438.00 839.10 438.10 L 838.80 438.30 L 838.60 438.40 L 838.50 438.40 C 838.50 438.40 838.50 438.40 838.50 438.40 C 838.50 438.40 838.50 438.40 838.50 438.40 C 838.50 438.40 838.50 438.30 838.50 438.30 L 838.50 438.30 L 837.90 438.40 C 837.20 436.40 836.50 434.60 835.60 433.00 C 834.70 431.40 833.60 430.00 832.40 428.70 C 831.10 427.40 829.70 426.20 828.10 425.30 C 826.50 424.40 824.70 423.50 822.90 422.60 L 823.10 421.90 Z" fill="#ff7f0a" fill-rule="nonzero" group-id="10" node-id="363" stroke="none" target-height="18.799988" target-width="30.399963" target-x="822.9" target-y="421.6"></path></g><g node-id="408"><path d="M 172.70 505.80 C 174.70 505.60 176.60 506.10 178.40 507.00 C 180.20 507.90 181.80 509.20 183.10 510.80 C 184.30 512.40 185.20 514.30 185.50 516.30 C 185.90 518.30 185.90 520.20 185.40 522.10 L 184.90 524.20 L 184.90 522.10 L 184.90 522.10 L 184.90 521.60 L 184.90 521.20 C 184.90 521.00 185.00 520.70 185.00 520.50 C 185.10 520.00 185.20 519.60 185.40 519.20 C 185.70 518.40 186.10 517.60 186.70 516.80 C 187.20 516.00 187.80 515.30 188.60 514.70 C 189.30 514.10 190.20 513.40 191.50 513.20 C 192.10 513.10 192.80 513.10 193.40 513.30 C 194.00 513.50 194.50 513.80 194.90 514.20 C 195.70 515.00 196.20 515.80 196.60 516.70 C 197.30 518.40 197.60 520.10 197.60 521.90 L 197.10 522.00 C 196.30 520.50 195.60 519.00 194.70 517.70 C 194.30 517.10 193.80 516.50 193.30 516.20 C 192.80 515.90 192.40 515.80 192.00 516.00 C 191.10 516.30 189.90 517.40 188.90 518.50 C 188.40 519.10 187.90 519.70 187.30 520.30 C 187.00 520.60 186.70 520.90 186.40 521.20 C 186.30 521.40 186.10 521.50 185.90 521.60 L 185.60 521.80 L 185.50 521.90 L 185.40 521.90 C 185.40 521.90 185.40 522.00 185.40 521.80 L 185.40 521.80 L 184.80 521.80 C 184.20 520.00 183.60 518.30 183.00 516.70 C 182.30 515.10 181.50 513.70 180.50 512.40 C 179.50 511.10 178.40 509.80 177.10 508.80 C 175.80 507.80 174.20 506.90 172.60 506.00 L 172.70 505.80 Z" fill="#ff7f0a" fill-rule="nonzero" group-id="11" node-id="368" stroke="none" target-height="18.600006" target-width="25" target-x="172.6" target-y="505.6"></path></g><g node-id="409"><path d="M 111.80 528.90 C 113.10 528.80 114.40 529.10 115.60 529.50 C 116.80 529.90 118.00 530.50 119.00 531.30 C 121.10 532.80 123.00 534.80 124.20 537.10 C 125.50 539.40 126.20 541.90 126.50 544.40 C 126.80 546.90 126.70 549.40 126.10 551.90 L 125.30 555.00 L 125.40 552.00 L 125.40 552.00 L 125.40 551.70 L 125.40 551.60 L 125.40 551.40 L 125.40 550.90 C 125.40 550.60 125.40 550.30 125.50 550.00 C 125.60 549.40 125.70 548.80 125.80 548.30 C 126.10 547.20 126.60 546.10 127.10 545.10 C 127.70 544.10 128.30 543.10 129.10 542.10 C 129.50 541.60 130.00 541.20 130.60 540.80 C 131.20 540.40 131.90 540.00 132.80 539.80 C 133.70 539.60 134.70 539.80 135.50 540.20 C 136.30 540.60 136.80 541.20 137.20 541.70 C 138.00 542.80 138.50 544.00 138.80 545.10 C 139.50 547.30 139.80 549.60 139.70 551.90 L 139.00 552.00 C 138.00 550.00 137.30 547.90 136.30 546.10 C 135.80 545.20 135.30 544.30 134.70 543.70 C 134.40 543.40 134.10 543.20 133.90 543.20 C 133.70 543.10 133.60 543.20 133.40 543.20 C 133.00 543.30 132.30 543.90 131.70 544.50 C 131.10 545.20 130.50 546.00 129.90 546.80 C 129.30 547.70 128.80 548.50 128.10 549.40 C 127.80 549.80 127.40 550.30 127.10 550.70 C 126.90 550.90 126.70 551.10 126.50 551.30 L 126.20 551.60 L 126.00 551.80 L 125.90 551.90 C 125.90 551.90 125.90 552.00 125.80 551.90 L 125.80 551.90 L 125.10 551.90 C 124.30 549.60 123.70 547.30 123.00 545.10 C 122.20 543.00 121.50 540.90 120.40 539.00 C 119.40 537.10 118.20 535.30 116.70 533.70 C 115.20 532.20 113.40 530.80 111.40 529.60 L 111.80 528.90 Z" fill="#ff7f0a" fill-rule="nonzero" group-id="12" node-id="373" stroke="none" target-height="26.200012" target-width="28.400002" target-x="111.4" target-y="528.8"></path></g><g node-id="410"><path d="M 105.90 471.60 C 108.10 471.30 110.20 471.70 112.20 472.40 C 114.20 473.20 116.20 474.30 117.80 475.90 C 118.60 476.70 119.30 477.60 119.90 478.50 C 120.50 479.50 120.90 480.50 121.20 481.60 C 121.80 483.70 121.90 486.00 121.40 488.00 L 120.90 490.10 L 120.80 488.10 L 120.80 488.10 L 120.80 487.50 L 120.90 487.10 C 121.00 486.80 121.00 486.60 121.10 486.40 C 121.20 485.90 121.40 485.50 121.60 485.00 C 122.00 484.10 122.60 483.30 123.30 482.50 C 124.00 481.70 124.70 481.00 125.60 480.40 C 126.50 479.80 127.50 479.30 128.80 479.10 C 130.00 478.90 131.40 479.20 132.40 479.90 C 133.40 480.60 134.10 481.40 134.60 482.40 C 135.60 484.20 136.10 486.10 136.20 488.00 L 135.60 488.20 C 134.60 486.60 133.70 485.00 132.70 483.70 C 132.20 483.10 131.60 482.60 131.00 482.30 C 130.40 482.00 129.90 482.00 129.30 482.20 C 128.10 482.50 126.80 483.50 125.50 484.70 C 124.90 485.30 124.30 485.90 123.60 486.50 C 123.30 486.80 122.90 487.10 122.60 487.40 C 122.40 487.50 122.20 487.70 122.00 487.80 L 121.70 488.00 L 121.50 488.10 L 121.40 488.10 C 121.40 488.10 121.40 488.10 121.40 488.10 C 121.40 488.10 121.40 488.10 121.40 488.10 C 121.40 488.10 121.40 488.00 121.40 488.00 L 121.40 488.00 L 120.80 488.10 C 120.10 486.10 119.40 484.30 118.50 482.70 C 117.60 481.10 116.50 479.70 115.30 478.40 C 114.00 477.10 112.60 475.90 111.00 475.00 C 109.40 474.00 107.60 473.20 105.80 472.30 L 105.90 471.60 Z" fill="#ff7f0a" fill-rule="nonzero" group-id="13" node-id="378" stroke="none" target-height="18.800018" target-width="30.399994" target-x="105.8" target-y="471.3"></path></g><g node-id="411"><path d="M 759.60 766.60 C 759.60 771.29 660.12 775.10 537.40 775.10 C 414.68 775.10 315.20 771.29 315.20 766.60 C 315.20 761.91 414.68 758.10 537.40 758.10 C 660.12 758.10 759.60 761.91 759.60 766.60 Z" fill="#4d4d4d" fill-opacity="0.21" fill-rule="nonzero" group-id="14" node-id="383" stroke="none" target-height="17" target-width="444.39996" target-x="315.2" target-y="758.1"></path></g><path d="M 851.60 214.60 C 844.10 214.60 838.10 208.50 838.10 201.10 L 838.10 201.10 C 838.10 193.70 844.20 187.60 851.60 187.60 L 900.50 187.60 C 908.00 187.60 914.00 193.70 914.00 201.10 L 914.00 201.10 C 914.00 208.50 907.90 214.60 900.50 214.60" fill="url(#SVGID_10_)" fill-rule="nonzero" node-id="386" stroke="none" target-height="27" target-width="75.900024" target-x="838.1" target-y="187.6"></path><path d="M 876.10 210.60 C 863.20 210.60 852.70 201.70 852.70 190.70 C 852.70 179.70 863.20 170.80 876.10 170.80" fill="url(#SVGID_11_)" fill-rule="nonzero" node-id="388" stroke="none" target-height="39.800003" target-width="23.399963" target-x="852.7" target-y="170.8"></path><path d="M 876.20 170.80 C 889.10 170.80 899.50 179.80 899.50 190.70 C 899.50 201.70 889.00 210.50 876.10 210.50" fill="url(#SVGID_12_)" fill-rule="nonzero" node-id="390" stroke="none" target-height="39.699997" target-width="23.400024" target-x="876.1" target-y="170.8"></path><path d="M 353.30 302.70 C 341.00 302.70 331.00 292.70 331.00 280.40 L 331.00 280.40 C 331.00 268.10 341.00 258.10 353.30 258.10 L 433.90 258.10 C 446.20 258.10 456.20 268.10 456.20 280.40 L 456.20 280.40 C 456.20 292.70 446.20 302.70 433.90 302.70" fill="url(#SVGID_13_)" fill-rule="nonzero" node-id="392" stroke="none" target-height="44.600006" target-width="125.20001" target-x="331" target-y="258.1"></path><path d="M 393.60 296.10 C 372.30 296.10 355.10 281.50 355.10 263.40 C 355.10 245.30 372.40 230.70 393.60 230.70" fill="url(#SVGID_14_)" fill-rule="nonzero" node-id="394" stroke="none" target-height="65.40001" target-width="38.5" target-x="355.1" target-y="230.7"></path><path d="M 393.70 230.60 C 415.00 230.70 432.20 245.40 432.10 263.40 C 432.00 281.50 414.70 296.10 393.50 296.00" fill="url(#SVGID_15_)" fill-rule="nonzero" node-id="396" stroke="none" target-height="65.5" target-width="38.700012" target-x="393.5" target-y="230.6"></path></svg>