<?xml version="1.0" standalone="no"?><!DOCTYPE svg PUBLIC "-//W3C//DTD SVG 1.1//EN" "http://www.w3.org/Graphics/SVG/1.1/DTD/svg11.dtd"><svg height="1500" node-id="1" sillyvg="true" template-height="1500" template-width="1734" version="1.1" viewBox="0 0 1734 1500" width="1734" xmlns="http://www.w3.org/2000/svg" xmlns:xlink="http://www.w3.org/1999/xlink"><defs node-id="64"><linearGradient gradientUnits="userSpaceOnUse" id="未命名的渐变_17" node-id="5" spreadMethod="pad" x1="42297.902" x2="42375.6" y1="-535689.7" y2="-535689.7"><stop offset="0" stop-color="#eaeff5"></stop><stop offset="0.99" stop-color="#dee1f0"></stop></linearGradient><linearGradient gradientUnits="userSpaceOnUse" id="未命名的渐变_49" node-id="8" spreadMethod="pad" x1="1278.66" x2="1459.61" y1="987.06" y2="987.06"><stop offset="0" stop-color="#ebf4ff"></stop><stop offset="1" stop-color="#ebebff"></stop></linearGradient><linearGradient gradientUnits="userSpaceOnUse" id="未命名的渐变_94" node-id="11" spreadMethod="pad" x1="413.06" x2="1342.62" y1="982.44" y2="982.44"><stop offset="0" stop-color="#ebf4ff"></stop><stop offset="1" stop-color="#ebe1ff"></stop></linearGradient><linearGradient gradientUnits="userSpaceOnUse" id="未命名的渐变_49-2" node-id="14" spreadMethod="pad" x1="942.94" x2="1206.28" y1="516.13" y2="516.13"><stop offset="0" stop-color="#ebf4ff"></stop><stop offset="1" stop-color="#ebebff"></stop></linearGradient><linearGradient gradientUnits="userSpaceOnUse" id="未命名的渐变_49-3" node-id="15" spreadMethod="pad" x1="1241.62" x2="1444.89" y1="306" y2="306"><stop offset="0" stop-color="#ebf4ff"></stop><stop offset="1" stop-color="#ebebff"></stop></linearGradient><linearGradient gradientUnits="userSpaceOnUse" id="未命名的渐变_49-4" node-id="16" spreadMethod="pad" x1="306.62" x2="670.12" y1="536.89" y2="536.89"><stop offset="0" stop-color="#ebf4ff"></stop><stop offset="1" stop-color="#ebebff"></stop></linearGradient><linearGradient gradientUnits="userSpaceOnUse" id="未命名的渐变_23" node-id="19" spreadMethod="pad" x1="89957.68" x2="90116.96" y1="-285486.16" y2="-285486.16"><stop offset="0" stop-color="#548fff"></stop><stop offset="1" stop-color="#949fff"></stop></linearGradient><linearGradient gradientUnits="userSpaceOnUse" id="未命名的渐变_49-5" node-id="22" spreadMethod="pad" x1="332.6" x2="493.56" y1="1056.88" y2="1056.88"><stop offset="0" stop-color="#ebf4ff"></stop><stop offset="1" stop-color="#ebebff"></stop></linearGradient><clipPath id="clip-path" node-id="17"><path d="M 413.12 590.00 C 413.12 590.00 432.12 589.00 431.12 561.00 C 430.12 533.00 419.12 501.00 440.12 494.00 C 461.12 487.00 520.12 529.00 541.12 528.00 C 562.12 527.00 542.12 494.00 566.12 488.00 C 590.12 482.00 640.12 501.00 652.12 512.00 C 664.12 523.00 674.12 566.00 674.12 566.00 C 674.12 566.00 467.90 713.16 446.12 683.00 C 433.12 665.00 413.12 590.00 413.12 590.00 Z" fill="#000000" fill-rule="nonzero" node-id="115" stroke="none" target-height="231.15997" target-width="261" target-x="413.12" target-y="482"></path></clipPath></defs><g node-id="184"><g node-id="188"><path d="M 270.82 1204.13 L 238.00 1185.22 C 235.59 1183.79 235.84 1181.31 238.69 1179.66 L 269.84 1161.66 C 272.69 1160.02 277.06 1159.84 279.47 1161.27 L 312.26 1180.17 C 314.74 1181.60 314.42 1184.09 311.57 1185.74 L 280.43 1203.74 C 277.61 1205.33 273.30 1205.55 270.82 1204.13 Z" fill="#c9cfe5" fill-opacity="0.3" fill-rule="nonzero" group-id="1,5" id="路径" node-id="27" stroke="none" target-height="45.710083" target-width="79.149994" target-x="235.59" target-y="1159.84"></path></g><path d="M 314.00 1167.14 C 314.01 1167.04 314.01 1166.94 314.00 1166.84 L 314.00 884.84 L 236.37 884.84 L 236.37 1167.21 C 236.44 1168.26 237.08 1169.18 238.03 1169.62 L 270.82 1188.52 C 273.30 1189.94 277.61 1189.73 280.45 1188.12 L 311.59 1170.12 C 312.78 1169.57 313.65 1168.50 313.94 1167.22 Z" fill="url(#未命名的渐变_17)" fill-rule="nonzero" group-id="1" id="路径-2" node-id="28" stroke="none" target-height="305.0999" target-width="77.640045" target-x="236.37" target-y="884.84"></path><path d="M 270.82 906.35 L 238.00 887.44 C 235.59 886.01 235.84 883.52 238.69 881.88 L 269.84 863.88 C 272.69 862.23 277.06 862.05 279.47 863.47 C 281.07 864.42 292.00 870.73 312.26 882.39 C 314.74 883.81 314.42 886.30 311.57 887.94 L 280.43 905.94 C 277.61 907.60 273.30 907.76 270.82 906.35 Z" fill="#fafbfd" fill-rule="nonzero" group-id="1" id="路径-3" node-id="29" stroke="none" target-height="45.710022" target-width="79.149994" target-x="235.59" target-y="862.05"></path></g><path d="M 1320.35 923.73 C 1320.35 923.73 1356.53 907.57 1398.12 888.00 C 1415.12 880.00 1472.12 1003.00 1457.12 1041.00 C 1448.52 1062.79 1348.44 1101.60 1296.78 1080.30 C 1245.12 1059.00 1320.35 923.73 1320.35 923.73 Z" fill="url(#未命名的渐变_49)" fill-rule="nonzero" node-id="128" stroke="none" target-height="221.59998" target-width="227" target-x="1245.12" target-y="880"></path><path d="M 1453.12 912.00 C 1453.12 912.00 1439.12 927.00 1414.12 930.00" fill="none" node-id="130" stroke="#fe9f39" stroke-linecap="round" stroke-width="24" target-height="18" target-width="39" target-x="1414.12" target-y="912"></path><path d="M 1469.12 967.00 C 1469.12 967.00 1462.12 977.00 1444.12 982.00" fill="none" node-id="132" stroke="#fe9f39" stroke-linecap="round" stroke-width="24" target-height="15" target-width="25" target-x="1444.12" target-y="967"></path><path d="M 1373.12 949.00 C 1373.12 949.00 1397.12 995.00 1400.12 1017.00" fill="none" node-id="134" stroke="#5d83ff" stroke-linecap="round" stroke-width="14" target-height="68" target-width="27" target-x="1373.12" target-y="949"></path><path d="M 1340.21 959.73 C 1340.21 959.73 1366.53 1032.53 1364.03 1042.27" fill="none" node-id="136" stroke="#5d83ff" stroke-linecap="round" stroke-width="15" target-height="82.54004" target-width="26.320068" target-x="1340.21" target-y="959.73"></path><path d="M 457.12 1196.00 L 413.12 786.00 C 413.12 786.00 409.62 738.50 457.12 738.00 C 523.12 737.31 1307.12 740.00 1307.12 740.00 C 1307.12 740.00 1349.62 737.50 1341.62 785.50 C 1332.97 837.40 1275.12 1225.00 1275.12 1225.00 L 459.12 1227.00 Z" fill="url(#未命名的渐变_94)" fill-rule="nonzero" node-id="138" stroke="#5d83ff" stroke-linecap="butt" stroke-width="18" target-height="489.69" target-width="940" target-x="409.62" target-y="737.31"></path><path d="M 457.12 1196.00 L 413.12 786.00 C 413.12 786.00 409.62 738.50 457.12 738.00 C 523.12 737.31 1307.12 740.00 1307.12 740.00 C 1307.12 740.00 1349.62 737.50 1341.62 785.50 C 1332.97 837.40 1275.12 1225.00 1275.12 1225.00 L 459.12 1227.00 Z" fill="none" node-id="140" stroke="#5d83ff" stroke-linecap="butt" stroke-width="18" target-height="489.69" target-width="940" target-x="409.62" target-y="737.31"></path><path d="M 1525.62 1271.00 L 247.62 1271.00 C 235.21 1270.96 225.16 1260.91 225.12 1248.50 L 225.12 1248.50 C 225.16 1236.09 235.21 1226.04 247.62 1226.00 L 1525.62 1226.00 C 1538.03 1226.03 1548.09 1236.09 1548.12 1248.50 L 1548.12 1248.50 C 1548.09 1260.91 1538.03 1270.97 1525.62 1271.00 Z" fill="none" node-id="142" stroke="#d3dcf4" stroke-linecap="butt" stroke-width="20" target-height="45" target-width="1323" target-x="225.12" target-y="1226"></path><path d="M 1161.12 1312.00 L 1236.00 1312.00 C 1259.52 1312.00 1283.64 1310.32 1307.00 1312.85 C 1314.38 1313.64 1323.08 1314.30 1329.83 1317.94 C 1336.17 1321.35 1335.25 1326.78 1332.75 1332.47 C 1329.17 1340.61 1325.35 1348.14 1325.97 1357.32 C 1326.64 1367.12 1334.70 1371.03 1343.47 1372.88 C 1369.47 1378.37 1396.83 1374.80 1423.10 1374.00 C 1434.66 1373.65 1434.71 1355.64 1423.10 1356.00 C 1399.29 1356.73 1374.99 1359.61 1351.27 1356.08 C 1350.48 1355.96 1341.03 1353.08 1341.11 1353.00 C 1340.67 1353.39 1344.95 1356.50 1343.97 1357.32 C 1344.01 1356.56 1343.99 1355.80 1343.90 1355.04 C 1343.91 1353.11 1344.25 1351.19 1344.90 1349.37 C 1347.42 1341.61 1352.24 1334.99 1352.82 1326.60 C 1354.30 1305.25 1332.37 1298.23 1315.40 1295.92 C 1292.02 1292.75 1268.35 1294.00 1244.81 1294.00 L 1161.10 1294.00 C 1149.52 1294.00 1149.50 1312.00 1161.10 1312.00 Z" fill="#d3dcf4" fill-rule="nonzero" node-id="144" stroke="none" target-height="85.619995" target-width="285.20996" target-x="1149.5" target-y="1292.75"></path><path d="M 413.12 1320.00 L 673.12 1320.00 C 684.70 1320.00 684.72 1302.00 673.12 1302.00 L 413.12 1302.00 C 401.54 1302.00 401.52 1320.00 413.12 1320.00 Z" fill="#d3dcf4" fill-rule="nonzero" node-id="146" stroke="none" target-height="18" target-width="283.19998" target-x="401.52" target-y="1302"></path><path d="M 1310.12 741.00 C 1340.12 602.00 1225.12 601.00 1225.12 601.00 L 751.12 601.00 C 716.12 601.00 717.12 593.00 717.12 593.00 C 717.12 593.00 704.91 563.07 697.12 541.00 C 691.12 524.00 670.12 524.00 670.12 524.00 L 523.12 524.00 C 479.02 524.00 486.12 551.00 486.12 551.00 L 486.12 740.00 Z" fill="none" node-id="148" stroke="#5d83ff" stroke-linecap="butt" stroke-width="18" target-height="217" target-width="861.1" target-x="479.02" target-y="524"></path><path d="M 1310.12 741.00 C 1340.12 602.00 1225.12 601.00 1225.12 601.00 L 751.12 601.00 C 716.12 601.00 717.12 593.00 717.12 593.00 C 717.12 593.00 704.91 563.07 697.12 541.00 C 691.12 524.00 670.12 524.00 670.12 524.00 L 523.12 524.00 C 479.02 524.00 486.12 551.00 486.12 551.00 L 486.12 740.00 Z" fill="none" node-id="150" stroke="#5d83ff" stroke-linecap="butt" stroke-width="18" target-height="217" target-width="861.1" target-x="479.02" target-y="524"></path><path d="M 946.45 661.14 C 997.10 633.14 1037.95 586.80 1066.23 536.82 C 1078.15 515.91 1087.68 493.73 1094.67 470.70 C 1101.23 448.76 1106.67 422.48 1098.42 400.24 C 1092.35 383.89 1076.87 368.54 1058.20 370.78 C 1042.70 372.64 1030.42 385.09 1024.27 398.78 C 1017.48 413.95 1016.79 432.44 1026.33 446.66 C 1038.24 464.41 1061.60 472.03 1082.22 470.37 C 1106.22 468.44 1128.12 456.22 1146.98 441.96 C 1166.30 427.36 1183.45 410.25 1199.84 392.50 C 1203.32 388.73 1206.78 384.94 1210.22 381.13 C 1215.66 375.13 1206.77 366.21 1201.31 372.22 C 1187.22 387.74 1172.99 403.15 1157.31 417.15 C 1141.18 431.60 1123.12 445.51 1102.57 452.98 C 1083.97 459.75 1062.51 460.49 1045.63 448.74 C 1034.19 440.79 1029.63 426.98 1032.50 413.55 C 1035.05 401.75 1042.83 389.07 1054.06 384.62 C 1066.83 379.55 1079.53 388.99 1085.27 401.28 C 1094.09 420.18 1088.98 444.21 1083.63 463.28 C 1077.82 483.64 1069.86 503.33 1059.89 522.01 C 1032.60 573.63 991.57 621.68 940.05 650.19 C 932.95 654.12 939.30 665.01 946.40 661.07 Z" fill="url(#未命名的渐变_49-2)" fill-rule="nonzero" group-id="2" node-id="153" stroke="none" target-height="298.80002" target-width="282.71002" target-x="932.95" target-y="366.21"></path><path d="M 1241.62 277.50 C 1241.62 277.50 1303.12 334.50 1345.62 334.50 C 1401.12 334.50 1444.89 283.22 1444.89 283.22 C 1444.89 283.22 1393.62 319.50 1354.62 318.50 C 1315.62 317.50 1241.62 277.50 1241.62 277.50 Z" fill="url(#未命名的渐变_49-3)" fill-rule="nonzero" group-id="2" node-id="155" stroke="none" target-height="57" target-width="203.27002" target-x="1241.62" target-y="277.5"></path><path d="M 1216.42 224.92 C 1220.66 239.22 1225.83 253.48 1233.99 266.04 C 1241.82 277.95 1252.04 288.12 1263.99 295.89 C 1289.99 313.07 1320.73 318.02 1351.25 319.72 C 1357.04 320.04 1357.02 311.04 1351.25 310.72 C 1322.87 309.14 1294.38 304.72 1270.01 289.08 C 1258.30 281.72 1248.37 271.86 1240.93 260.20 C 1233.63 248.57 1228.93 235.64 1225.10 222.53 C 1223.46 216.99 1214.77 219.35 1216.42 224.92 Z" fill="#d3dcf4" fill-rule="nonzero" group-id="2" node-id="157" stroke="none" target-height="103.05" target-width="142.27002" target-x="1214.77" target-y="216.99"></path><path d="M 1218.00 226.61 C 1259.00 256.89 1325.37 257.75 1365.10 224.72 C 1376.46 215.16 1385.05 202.73 1389.97 188.72 C 1391.97 183.25 1383.23 180.90 1381.29 186.32 C 1363.88 234.92 1303.75 247.78 1258.58 235.82 C 1245.61 232.48 1233.40 226.71 1222.58 218.82 C 1217.92 215.38 1213.43 223.19 1218.04 226.59 Z" fill="#d3dcf4" fill-rule="nonzero" group-id="2" node-id="159" stroke="none" target-height="76.850006" target-width="178.53992" target-x="1213.43" target-y="180.9"></path><path d="M 1381.25 187.73 C 1381.34 207.87 1393.82 223.73 1410.92 233.18 C 1433.22 245.58 1458.42 246.18 1483.25 244.73 C 1489.01 244.40 1489.04 235.40 1483.25 235.73 C 1461.05 236.99 1438.25 237.10 1417.98 226.73 C 1402.56 218.88 1390.33 205.82 1390.25 187.73 C 1390.25 181.94 1381.25 181.93 1381.25 187.73 Z" fill="#d3dcf4" fill-rule="nonzero" group-id="2" node-id="161" stroke="none" target-height="64.25" target-width="107.79004" target-x="1381.25" target-y="181.93"></path><path d="M 1481.57 237.00 C 1472.26 246.42 1465.23 257.80 1455.87 267.17 C 1446.51 276.54 1436.47 285.07 1425.07 291.55 C 1401.51 304.95 1372.55 310.83 1345.62 310.96 C 1339.83 310.96 1339.82 319.96 1345.62 319.96 C 1373.62 319.83 1403.44 313.68 1428.14 300.14 C 1439.84 293.73 1450.14 285.07 1459.76 275.92 C 1470.22 265.99 1477.76 253.60 1487.93 243.37 C 1492.01 239.24 1485.65 232.88 1481.57 237.00 Z" fill="#d3dcf4" fill-rule="nonzero" group-id="2" node-id="163" stroke="none" target-height="87.07999" target-width="152.19006" target-x="1339.82" target-y="232.88"></path><path d="M 1385.62 635.50 L 1388.67 632.50 L 1447.62 574.50 L 1474.62 625.50 L 1385.62 635.50 Z" fill="#d3dcf4" fill-rule="nonzero" group-id="2" node-id="165" stroke="none" target-height="61" target-width="89" target-x="1385.62" target-y="574.5"></path><path d="M 1390.12 666.00 L 1517.12 679.00 L 1488.12 745.00 L 1390.12 666.00 Z" fill="#d3dcf4" fill-rule="nonzero" group-id="2" node-id="167" stroke="none" target-height="79" target-width="127" target-x="1390.12" target-y="666"></path><path d="M 1367.12 243.00 C 1383.03 262.00 1408.65 269.17 1432.50 270.28 C 1438.29 270.55 1438.28 261.55 1432.50 261.28 C 1410.86 260.28 1387.90 253.81 1373.50 236.64 C 1369.77 232.20 1363.43 238.59 1367.14 243.00 Z" fill="#d3dcf4" fill-rule="nonzero" group-id="2" node-id="169" stroke="none" target-height="38.34999" target-width="74.859985" target-x="1363.43" target-y="232.2"></path><path d="M 1342.12 260.00 C 1351.96 271.73 1366.03 279.00 1380.53 283.26 C 1386.10 284.90 1388.47 276.26 1382.92 274.58 C 1369.79 270.72 1357.39 264.25 1348.48 253.64 C 1344.75 249.20 1338.41 255.59 1342.12 260.00 Z" fill="#d3dcf4" fill-rule="nonzero" group-id="2" node-id="171" stroke="none" target-height="35.699997" target-width="50.059937" target-x="1338.41" target-y="249.2"></path><path d="M 446.12 683.00 C 446.12 683.00 469.12 594.00 306.62 510.50 C 306.62 510.50 495.12 374.00 560.62 392.50 C 595.62 403.50 670.62 530.50 670.12 567.00 C 660.12 577.00 504.12 626.00 446.12 683.00 Z" fill="url(#未命名的渐变_49-4)" fill-rule="nonzero" group-id="3" node-id="175" stroke="none" target-height="309" target-width="364" target-x="306.62" target-y="374"></path><g clip-path="url(#clip-path)" group-id="3,6" node-id="177"><path d="M 445.12 683.00 C 445.12 683.00 468.12 594.00 305.62 510.50 C 305.62 510.50 494.12 374.00 559.62 392.50 C 594.62 403.50 669.62 530.50 669.12 567.00 C 659.12 577.00 503.12 626.00 445.12 683.00 Z" fill="#3a3a77" fill-rule="nonzero" group-id="3,6" node-id="179" stroke="none" target-height="309" target-width="364" target-x="305.62" target-y="374"></path></g><path d="M 499.12 444.00 C 499.12 421.00 518.12 411.00 538.12 411.00 C 554.69 411.00 572.12 424.43 572.12 441.00 C 572.12 463.00 559.12 475.00 535.12 475.00 C 518.55 475.00 499.12 460.57 499.12 444.00 Z" fill="#fe9f39" fill-rule="nonzero" group-id="3" node-id="182" stroke="none" target-height="64" target-width="73" target-x="499.12" target-y="411"></path><path d="M 404.06 1275.41 L 336.06 1236.23 C 330.92 1233.29 331.56 1228.13 337.49 1224.71 L 402.08 1187.50 C 408.00 1184.09 416.95 1183.73 422.08 1186.67 L 490.08 1225.85 C 495.20 1228.85 494.56 1233.96 488.64 1237.38 L 424.04 1274.58 C 418.15 1278.00 409.19 1278.36 404.06 1275.41 Z" fill="#a0b3f8" fill-opacity="0.3" fill-rule="nonzero" group-id="4,7,8" id="路径-4" node-id="60" stroke="none" target-height="94.630005" target-width="164.28" target-x="330.92" target-y="1183.73"></path><path d="M 493.54 1204.78 C 493.54 1204.58 493.54 1204.37 493.54 1204.16 L 493.54 1056.69 L 332.61 1056.69 L 332.61 1204.90 C 332.61 1206.77 333.74 1208.51 336.07 1209.90 L 404.07 1249.06 C 409.19 1252.06 418.15 1251.65 424.07 1248.24 L 488.67 1211.00 C 491.67 1209.28 493.29 1207.10 493.49 1205.00 L 493.49 1205.00 Z" fill="url(#未命名的渐变_23)" fill-rule="nonzero" group-id="4,7" id="路径-5" node-id="61" stroke="none" target-height="195.37012" target-width="160.93002" target-x="332.61" target-y="1056.69"></path><path d="M 404.06 1101.30 L 336.06 1062.08 C 330.92 1059.08 331.56 1053.96 337.49 1050.56 L 402.08 1013.28 C 408.00 1009.88 416.96 1009.50 422.08 1012.46 L 490.08 1051.63 C 495.20 1054.63 494.56 1059.75 488.65 1063.15 L 424.04 1100.43 C 418.15 1103.88 409.19 1104.26 404.06 1101.30 Z" fill="url(#未命名的渐变_49-5)" fill-rule="nonzero" group-id="4,7" id="路径-6" node-id="62" stroke="none" target-height="94.76001" target-width="164.28" target-x="330.92" target-y="1009.5"></path></svg>